<?xml version="1.0" encoding="UTF-8"?>
<svg version="1.1" xmlns="http://www.w3.org/2000/svg" width="120" height="218">
<path d="M0 0 C1.87365234 -0.02126953 1.87365234 -0.02126953 3.78515625 -0.04296875 C6.9375 0.1875 6.9375 0.1875 8.9375 2.1875 C9.33514263 4.17571313 9.67525349 6.17694339 9.9375 8.1875 C10.47375 7.8575 11.01 7.5275 11.5625 7.1875 C14.4766061 5.96050796 16.80617708 6.04516714 19.9375 6.1875 C20.185 6.826875 20.4325 7.46625 20.6875 8.125 C21.72563195 10.38385114 21.72563195 10.38385114 23.9375 10.6875 C25.9375 11.1875 25.9375 11.1875 27.25 12.9375 C28.14017758 15.85080843 27.92212121 17.30396646 26.9375 20.1875 C25 23 25 23 22.9375 25.1875 C22.2775 25.1875 21.6175 25.1875 20.9375 25.1875 C21.185 26.13625 21.4325 27.085 21.6875 28.0625 C22.47179095 33.23458088 20.18987257 37.6303741 17.9375 42.1875 C17.6075 42.5175 17.2775 42.8475 16.9375 43.1875 C16.70154785 45.3285473 16.52328114 47.47610036 16.375 49.625 C16.29121094 50.79933594 16.20742187 51.97367188 16.12109375 53.18359375 C16.01927168 54.8495761 15.9375 56.51840895 15.9375 58.1875 C17.113125 58.5278125 17.113125 58.5278125 18.3125 58.875 C20.9375 60.1875 20.9375 60.1875 22.1875 62.625 C22.435 63.470625 22.6825 64.31625 22.9375 65.1875 C23.2675 66.1775 23.5975 67.1675 23.9375 68.1875 C26.87388223 67.62718727 26.87388223 67.62718727 29.9375 66.1875 C31.0025015 64.22134339 32.00583174 62.22023074 32.9375 60.1875 C36.53433948 57.86149246 39.3482814 57.8132903 43.4921875 58.39453125 C49.76021484 60.42713436 54.45953878 65.70734357 57.4375 71.4375 C60.02340962 77.23185303 60.54084486 82.88817066 59.9375 89.1875 C58.5 92.125 58.5 92.125 56.9375 94.1875 C55.64937765 97.22496883 55.64937765 97.22496883 56.625 100.625 C56.9375 104.1875 56.9375 104.1875 55.3125 106.6875 C52.9375 108.1875 52.9375 108.1875 50.3125 108 C47.9375 107.1875 47.9375 107.1875 45.9375 106.1875 C45.9375 109.4875 45.9375 112.7875 45.9375 116.1875 C46.5975 116.1875 47.2575 116.1875 47.9375 116.1875 C48.5975 115.5275 49.2575 114.8675 49.9375 114.1875 C52.9375 114.3125 52.9375 114.3125 55.9375 115.1875 C58.41641958 118.22981039 58.25398513 121.38967847 57.9375 125.1875 C57.380625 126.239375 57.380625 126.239375 56.8125 127.3125 C56.52375 127.93125 56.235 128.55 55.9375 129.1875 C56.24171875 129.77917969 56.5459375 130.37085938 56.859375 130.98046875 C59.18715987 135.74568052 58.6107161 141.63572879 57.28515625 146.66015625 C54.70350498 153.11982446 50.5010864 158.08589776 44.5 161.625 C40.91168941 162.41267794 37.6089417 162.31195565 33.9375 162.1875 C33.64875 162.826875 33.36 163.46625 33.0625 164.125 C31.9375 166.1875 31.9375 166.1875 29.9375 167.1875 C26.9375 167.375 26.9375 167.375 23.9375 167.1875 C23.2775 166.5275 22.6175 165.8675 21.9375 165.1875 C21.9375 164.1975 21.9375 163.2075 21.9375 162.1875 C17.23292189 163.46621527 14.45425209 165.14668671 10.9375 168.5 C9.65746094 169.69882812 9.65746094 169.69882812 8.3515625 170.921875 C7.55492188 171.66953125 6.75828125 172.4171875 5.9375 173.1875 C3.96279297 174.88902622 1.95742573 176.53966585 -0.0625 178.1875 C-3.69327762 175.86007845 -7.07831158 173.39464492 -10.4375 170.6875 C-14.44678282 167.52227672 -18.41902915 165.29816857 -23.0625 163.1875 C-23.248125 164.3940625 -23.248125 164.3940625 -23.4375 165.625 C-23.64375 166.470625 -23.85 167.31625 -24.0625 168.1875 C-27.11233996 169.71241998 -29.7048369 169.42312548 -33.0625 169.1875 C-35.65711433 167.54424426 -35.98641959 166.48490522 -36.75 163.5 C-36.853125 162.736875 -36.95625 161.97375 -37.0625 161.1875 C-38.0525 161.435 -39.0425 161.6825 -40.0625 161.9375 C-44.86413477 162.58741824 -48.2373126 161.0350533 -52.0625 158.1875 C-58.51993285 151.47348041 -60.46936007 144.94712483 -60.33203125 135.74609375 C-60.00184665 132.6117327 -58.94045008 130.69143345 -57.0625 128.1875 C-57.02623215 125.11175309 -57.02623215 125.11175309 -57.3125 121.75 C-57.0625 118.1875 -57.0625 118.1875 -55.375 115.6875 C-53.0625 114.1875 -53.0625 114.1875 -50.4375 114.3125 C-48.0625 115.1875 -48.0625 115.1875 -46.0625 117.1875 C-44.93993869 114.94237738 -44.92836238 113.67293351 -44.9375 111.1875 C-44.93492188 110.48625 -44.93234375 109.785 -44.9296875 109.0625 C-44.94872764 107.09596225 -44.94872764 107.09596225 -46.0625 105.1875 C-46.454375 105.703125 -46.84625 106.21875 -47.25 106.75 C-49.0625 108.1875 -49.0625 108.1875 -51.625 108 C-54.0625 107.1875 -54.0625 107.1875 -56.0625 105.1875 C-56.1875 101.75 -56.1875 101.75 -56.0625 98.1875 C-56.0625 97.1975 -56.0625 96.2075 -56.0625 95.1875 C-56.7225 94.5275 -57.3825 93.8675 -58.0625 93.1875 C-61.10405951 88.62516074 -60.75722265 84.51609431 -60.0625 79.1875 C-57.94595602 70.67122838 -53.2850316 64.21670745 -46.1875 59.125 C-41.93902177 57.85045653 -38.32293624 57.9403389 -34.0625 59.1875 C-31.6275953 61.47022316 -31.12078682 63.01263953 -30.0625 66.1875 C-28.7425 66.5175 -27.4225 66.8475 -26.0625 67.1875 C-24.4125 64.2175 -22.7625 61.2475 -21.0625 58.1875 C-20.0725 58.1875 -19.0825 58.1875 -18.0625 58.1875 C-17.65464065 50.10584246 -18.27943932 43.36459137 -22.15234375 36.16015625 C-23.53502244 33.16336338 -23.24291911 30.43504394 -23.0625 27.1875 C-22.7325 26.5275 -22.4025 25.8675 -22.0625 25.1875 C-22.660625 24.94 -23.25875 24.6925 -23.875 24.4375 C-26.44688757 22.96784996 -27.59444377 21.75659841 -29.0625 19.1875 C-29.4051549 16.17313007 -29.31932758 14.62777585 -27.77734375 11.984375 C-24.71921162 8.46248218 -22.95421767 6.4444356 -18.375 5.125 C-15.68815737 5.17569514 -13.57532993 5.28288122 -11.0625 6.1875 C-10.7325 4.5375 -10.4025 2.8875 -10.0625 1.1875 C-6.55538381 0.01846127 -3.69467614 0.01910381 0 0 Z " fill="#E3B32E" transform="translate(60.0625,-0.1875)"/>
<path d="M0 0 C0.99 0.33 1.98 0.66 3 1 C2.67 1.33 2.34 1.66 2 2 C1.95936168 3.66617115 1.957279 5.33388095 2 7 C4.33071879 7.41870553 4.33071879 7.41870553 7 7 C9.33630748 4.60140956 9.33630748 4.60140956 11 2 C16.78461538 6.18461538 16.78461538 6.18461538 17.875 10.3125 C17.91625 11.199375 17.9575 12.08625 18 13 C16.35 13.66 14.7 14.32 13 15 C13 16.98 13 18.96 13 21 C14.65 21.33 16.3 21.66 18 22 C18 22.66 18 23.32 18 24 C18.56847656 23.84660156 19.13695313 23.69320312 19.72265625 23.53515625 C23.6285014 22.61731614 27.03853319 22.17776143 31 23 C34.74098836 26.00035309 35.88312682 30.03597333 36.44311523 34.6550293 C36.62597087 38.2299472 36.6124266 41.79497893 36.54199219 45.37304688 C36.49995923 47.62718623 36.50094809 49.87834506 36.5078125 52.1328125 C36.41860754 64.44633188 36.41860754 64.44633188 33 70 C29.81055627 71.59472187 26.47081121 71.38490832 23 71 C20 69.625 20 69.625 18 68 C18 67.34 18 66.68 18 66 C20.475 65.505 20.475 65.505 23 65 C22.22076172 64.47212891 22.22076172 64.47212891 21.42578125 63.93359375 C16.4906516 60.43977738 13.25901802 57.09221566 10 52 C6.74887112 56.87669332 7.41130866 62.29790829 8 68 C9.04303644 70.79805863 10.20064579 72.58211779 12 75 C12.66 73.68 13.32 72.36 14 71 C14.48726562 71.49628906 14.97453125 71.99257812 15.4765625 72.50390625 C21.17546264 77.96448875 26.86871423 81.20449749 33.9609375 84.45703125 C37 86 37 86 38.6015625 87.76171875 C39.99294753 89.28741455 39.99294753 89.28741455 42.4296875 88.85546875 C45.07530688 87.97493585 46.87385582 86.94308162 49.125 85.3125 C52.54430824 82.9264051 55.99579544 80.87627273 59.6875 78.9375 C63.95124164 76.66789595 67.44878056 74.26328273 71 71 C71.33 72.32 71.66 73.64 72 75 C75.99108579 68.5144856 77.25243947 62.61618598 76 55 C74.59135472 53.15032176 74.59135472 53.15032176 73 52 C72.58041016 52.77923828 72.58041016 52.77923828 72.15234375 53.57421875 C69.11331306 58.86076411 66.16194279 61.76113394 61 65 C62.98 65.33 64.96 65.66 67 66 C62.23862375 70.92008879 62.23862375 70.92008879 57.125 71.25 C54.29878469 71.21409527 53.10846449 71.05840396 50.5625 69.6875 C47.30237308 66.16656292 47.82354368 61.88567208 47.796875 57.375 C47.79117493 56.63169434 47.78547485 55.88838867 47.77960205 55.12255859 C47.77016575 53.55242329 47.76362351 51.9822683 47.75976562 50.41210938 C47.75003549 48.00876577 47.71899083 45.60626886 47.6875 43.203125 C47.68097197 41.67708841 47.67572071 40.15104571 47.671875 38.625 C47.6595282 37.90618652 47.6471814 37.18737305 47.63446045 36.44677734 C47.6569095 31.42903687 47.6569095 31.42903687 49.44628906 29.19140625 C49.95901367 28.79824219 50.47173828 28.40507813 51 28 C52.19027984 25.40084462 52.19027984 25.40084462 53 23 C53.92683594 23.01160156 54.85367188 23.02320312 55.80859375 23.03515625 C57.60490234 23.04869141 57.60490234 23.04869141 59.4375 23.0625 C60.63246094 23.07410156 61.82742187 23.08570312 63.05859375 23.09765625 C65.88873341 23.33901792 65.88873341 23.33901792 67 22 C68.66617115 21.95936168 70.33388095 21.957279 72 22 C71.505 18.04 71.505 18.04 71 14 C69.35 13.34 67.7 12.68 66 12 C66 10.68 66 9.36 66 8 C71.22727273 3 71.22727273 3 74 3 C74.4125 3.66 74.825 4.32 75.25 5 C76.90933823 7.3664015 76.90933823 7.3664015 80.1875 7.25 C81.5796875 7.12625 81.5796875 7.12625 83 7 C83 5.02 83 3.04 83 1 C82.01 0.505 82.01 0.505 81 0 C83.73683617 0.08049518 85.49343721 0.55295833 87.5625 2.37890625 C92.01038699 7.34941997 94.86310414 12.12518689 95.1875 18.9375 C95.0946875 20.4534375 95.0946875 20.4534375 95 22 C94.34 22 93.68 22 93 22 C92.505 20.515 92.505 20.515 92 19 C90.35 19 88.7 19 87 19 C86.19032562 21.91482778 85.78154007 23.46113217 86.9375 26.3125 C87.288125 26.869375 87.63875 27.42625 88 28 C87.38125 28.2475 86.7625 28.495 86.125 28.75 C83.54120195 30.2698812 83.07627763 31.23242895 82 34 C81.443125 35.2684375 81.443125 35.2684375 80.875 36.5625 C79.33788761 42.60115581 79.14267952 48.51828283 81.1875 54.4375 C83.15405072 57.21779584 85.29818603 58.95538402 88 61 C88 61.66 88 62.32 88 63 C87.2265625 63.680625 87.2265625 63.680625 86.4375 64.375 C85.963125 64.91125 85.48875 65.4475 85 66 C85.22757731 68.16299211 85.22757731 68.16299211 86 70 C87.83700789 70.77242269 87.83700789 70.77242269 90 71 C91.77190909 69.64555699 91.77190909 69.64555699 93 68 C93.71507439 74.57868441 91.64140955 79.51872036 88 85 C85.96875 86.81640625 85.96875 86.81640625 84 88 C81.75 87.6875 81.75 87.6875 80 87 C80.33 86.38125 80.66 85.7625 81 85.125 C82.14193235 83.08981656 82.14193235 83.08981656 82 81 C78.535 81.495 78.535 81.495 75 82 C74.34 83.65 73.68 85.3 73 87 C71.87464844 86.87818359 71.87464844 86.87818359 70.7265625 86.75390625 C63.28638838 86.29475193 59.1084233 87.34669455 53.26171875 91.98828125 C49.05430912 95.73062315 45.13416736 99.29874896 42 104 C41.01 103.67 40.02 103.34 39 103 C39 102.34 39 101.68 39 101 C38.41605469 100.73832031 37.83210938 100.47664063 37.23046875 100.20703125 C34.88013735 98.93513562 33.25015488 97.51953847 31.3125 95.6875 C25.85438667 90.85605894 20.69859539 86.59492926 13.125 87 C12.37992188 87.05027344 11.63484375 87.10054688 10.8671875 87.15234375 C10.25101563 87.10207031 9.63484375 87.05179687 9 87 C7.25 84.5625 7.25 84.5625 6 82 C3.40877257 81.11341534 3.40877257 81.11341534 1 81 C0.4465236 83.07553648 0 84.84365964 0 87 C0.66 87.33 1.32 87.66 2 88 C-2.8642194 87.58306691 -4.89876673 85.67251308 -8 82 C-11.144094 77.12123345 -11.2910618 73.62719476 -11 68 C-10.5875 68.515625 -10.175 69.03125 -9.75 69.5625 C-9.1725 70.036875 -8.595 70.51125 -8 71 C-5.83700789 70.77242269 -5.83700789 70.77242269 -4 70 C-3.06934867 67.39417629 -2.85082593 66.35801776 -3.9375 63.75 C-4.4634375 62.88375 -4.4634375 62.88375 -5 62 C-4.0925 61.525625 -3.185 61.05125 -2.25 60.5625 C1.99688091 57.70440953 3.62144754 53.81718893 5 49 C6.07964545 42.5000937 4.68447486 37.41488319 1 32 C-0.57726241 30.15911583 -2.18151931 28.61642728 -4 27 C-3.34 26.01 -2.68 25.02 -2 24 C-2.3121764 21.35367713 -2.3121764 21.35367713 -3 19 C-4.65 19 -6.3 19 -8 19 C-8.33 19.99 -8.66 20.98 -9 22 C-9.66 22 -10.32 22 -11 22 C-11.7246047 15.33363678 -9.61226054 10.5783086 -6 5 C-4.07311848 2.79853787 -2.51581672 1.58605837 0 0 Z " fill="#07037F" transform="translate(18,66)"/>
<path d="M0 0 C2.4349047 2.28272316 2.94171318 3.82513953 4 7 C6.50447516 8.21869929 6.50447516 8.21869929 9 9 C8.67 10.32 8.34 11.64 8 13 C4.125 11.125 4.125 11.125 3 10 C2.443125 10.825 1.88625 11.65 1.3125 12.5 C-1 15 -1 15 -3.6875 15.375 C-6 15 -6 15 -7 14 C-7.04063832 12.33382885 -7.042721 10.66611905 -7 9 C-7.99 9 -8.98 9 -10 9 C-15.68108418 14.82311129 -18.16956689 20.86175551 -19 29 C-18.34 29 -17.68 29 -17 29 C-16.67 27.68 -16.34 26.36 -16 25 C-13.625 24.875 -13.625 24.875 -11 25 C-10.34 25.66 -9.68 26.32 -9 27 C-9.30652045 29.9425963 -9.67271154 32.34542308 -11 35 C-10.071875 35.680625 -9.14375 36.36125 -8.1875 37.0625 C-4.24437635 40.3903845 -2.44845234 43.97709903 -1.68359375 49.1328125 C-1.36274319 55.07372295 -2.8642616 59.95861994 -6 65 C-10.09756098 69 -10.09756098 69 -13 69 C-12.2265625 69.86625 -12.2265625 69.86625 -11.4375 70.75 C-10 73 -10 73 -10.1875 75.125 C-11 77 -11 77 -13 79 C-16.53571429 78.46428571 -16.53571429 78.46428571 -18 77 C-17.73260866 83.01630523 -17.12635909 87.30053548 -13 92 C-10.39562767 93.41190564 -10.39562767 93.41190564 -8 94 C-8.20625 93.21625 -8.4125 92.4325 -8.625 91.625 C-8.74875 90.75875 -8.8725 89.8925 -9 89 C-8.01 88.01 -8.01 88.01 -7 87 C-4.1617638 87.21832586 -2.46577913 87.64665032 -0.1875 89.375 C1 91 1 91 1 94 C1.99 93.505 1.99 93.505 3 93 C10.04514047 91.97258368 14.36894601 94.99406982 20 99 C30.52124352 107.04248705 30.52124352 107.04248705 32 110 C32.66 110 33.32 110 34 110 C35.56648858 108.41262601 35.56648858 108.41262601 37.1875 106.375 C40.50555337 102.47749448 43.96990151 99.14759517 48 96 C48.763125 95.38125 49.52625 94.7625 50.3125 94.125 C54.4359962 92.39888531 58.58694313 92.59384255 63 93 C63.66 93.33 64.32 93.66 65 94 C65.103125 93.21625 65.20625 92.4325 65.3125 91.625 C66 89 66 89 69 87 C71.6875 87.375 71.6875 87.375 74 88 C74.625 89.875 74.625 89.875 75 92 C74.34 92.66 73.68 93.32 73 94 C76.84107278 93.45127532 78.56828492 91.98081203 81 89 C83.10402753 84.86708877 84.42385199 81.66237192 84 77 C83.34 77.66 82.68 78.32 82 79 C79.06546739 78.63318342 78.13562754 78.13562754 76 76 C76.375 73.375 76.375 73.375 77 71 C77.99 70.67 78.98 70.34 80 70 C80 69.34 80 68.68 80 68 C79.4225 67.773125 78.845 67.54625 78.25 67.3125 C74.43916226 65.08951132 72.38070336 62.14211008 71 58 C70.30365085 49.59024486 71.21989226 43.24167991 76.6875 36.5625 C77.8321875 35.2940625 77.8321875 35.2940625 79 34 C78.34 33.01 77.68 32.02 77 31 C77.54054054 26.45945946 77.54054054 26.45945946 79 25 C80.66617115 24.95936168 82.33388095 24.957279 84 25 C84.495 26.98 84.495 26.98 85 29 C85.66 29 86.32 29 87 29 C86.05421629 22.11130674 84.55727875 16.3988217 80 11 C77.38392279 9.00682357 77.38392279 9.00682357 75 8 C75 9.98 75 11.96 75 14 C72.1875 14.6875 72.1875 14.6875 69 15 C67.125 13.6875 67.125 13.6875 66 12 C66 11.34 66 10.68 66 10 C65.50628906 10.3609375 65.01257813 10.721875 64.50390625 11.09375 C63.86324219 11.5578125 63.22257812 12.021875 62.5625 12.5 C61.92441406 12.9640625 61.28632812 13.428125 60.62890625 13.90625 C59 15 59 15 58 15 C58 13.02 58 11.04 58 9 C58.928125 8.79375 59.85625 8.5875 60.8125 8.375 C64.86136362 6.62843138 65.21117059 4.90290053 67 1 C70.59683948 -1.32600754 73.4107814 -1.3742097 77.5546875 -0.79296875 C83.82271484 1.23963436 88.52203878 6.51984357 91.5 12.25 C94.08590962 18.04435303 94.60334486 23.70067066 94 30 C92.5625 32.9375 92.5625 32.9375 91 35 C89.71187765 38.03746883 89.71187765 38.03746883 90.6875 41.4375 C91 45 91 45 89.375 47.5 C87 49 87 49 84.375 48.8125 C82 48 82 48 80 47 C80 50.3 80 53.6 80 57 C80.66 57 81.32 57 82 57 C82.99 56.01 82.99 56.01 84 55 C87 55.125 87 55.125 90 56 C92.47891958 59.04231039 92.31648513 62.20217847 92 66 C91.443125 67.051875 91.443125 67.051875 90.875 68.125 C90.58625 68.74375 90.2975 69.3625 90 70 C90.30421875 70.59167969 90.6084375 71.18335938 90.921875 71.79296875 C93.24965987 76.55818052 92.6732161 82.44822879 91.34765625 87.47265625 C88.76600498 93.93232446 84.5635864 98.89839776 78.5625 102.4375 C74.97418941 103.22517794 71.6714417 103.12445565 68 103 C67.71125 103.639375 67.4225 104.27875 67.125 104.9375 C66 107 66 107 64 108 C61 108.1875 61 108.1875 58 108 C57.34 107.34 56.68 106.68 56 106 C56 105.01 56 104.02 56 103 C51.29542189 104.27871527 48.51675209 105.95918671 45 109.3125 C44.14664063 110.11171875 43.29328125 110.9109375 42.4140625 111.734375 C41.61742188 112.48203125 40.82078125 113.2296875 40 114 C38.02529297 115.70152622 36.01992573 117.35216585 34 119 C30.36922238 116.67257845 26.98418842 114.20714492 23.625 111.5 C19.61571718 108.33477672 15.64347085 106.11066857 11 104 C10.87625 104.804375 10.7525 105.60875 10.625 106.4375 C10.41875 107.283125 10.2125 108.12875 10 109 C6.95016004 110.52491998 4.3576631 110.23562548 1 110 C-1.59461433 108.35674426 -1.92391959 107.29740522 -2.6875 104.3125 C-2.790625 103.549375 -2.89375 102.78625 -3 102 C-3.99 102.2475 -4.98 102.495 -6 102.75 C-10.80163477 103.39991824 -14.1748126 101.8475533 -18 99 C-24.45743285 92.28598041 -26.40686007 85.75962483 -26.26953125 76.55859375 C-25.93934665 73.4242327 -24.87795008 71.50393345 -23 69 C-22.96373215 65.92425309 -22.96373215 65.92425309 -23.25 62.5625 C-23 59 -23 59 -21.3125 56.5 C-19 55 -19 55 -16.375 55.125 C-14 56 -14 56 -12 58 C-10.87743869 55.75487738 -10.86586238 54.48543351 -10.875 52 C-10.87242188 51.29875 -10.86984375 50.5975 -10.8671875 49.875 C-10.88622764 47.90846225 -10.88622764 47.90846225 -12 46 C-12.391875 46.515625 -12.78375 47.03125 -13.1875 47.5625 C-15 49 -15 49 -17.5625 48.8125 C-20 48 -20 48 -22 46 C-22.125 42.5625 -22.125 42.5625 -22 39 C-22 38.01 -22 37.02 -22 36 C-22.66 35.34 -23.32 34.68 -24 34 C-27.04155951 29.43766074 -26.69472265 25.32859431 -26 20 C-23.88345602 11.48372838 -19.2225316 5.02920745 -12.125 -0.0625 C-7.87652177 -1.33704347 -4.26043624 -1.2471611 0 0 Z " fill="#EBAA05" transform="translate(26,59)"/>
<path d="M0 0 C16.60258548 7.14330301 31.78899807 10.51838565 49.33032227 4.12524414 C50.80952148 3.52389648 50.80952148 3.52389648 52.31860352 2.91040039 C54.58930009 2.03504555 56.8601344 1.16004792 59.13110352 0.28540039 C60.20489258 -0.13354492 61.27868164 -0.55249023 62.38500977 -0.98413086 C69.78738713 -3.77357532 78.58904496 -5.99658576 86.31860352 -3.08959961 C87.41289148 0.19326428 87.11493413 0.74557173 86.31860352 3.91040039 C86.42800996 5.50910207 86.60015418 7.10416914 86.81860352 8.69165039 C88.25926632 23.2191821 88.25926632 23.2191821 84.71899414 28.12866211 C80.4184135 32.20392525 75.01546728 36.10372413 69.31860352 37.91040039 C65.7915924 37.38338927 65.7915924 37.38338927 64.31860352 35.91040039 C64.0324395 31.04561213 64.68814564 27.46666014 66.31860352 22.91040039 C65.13266602 23.4530957 63.94672852 23.99579102 62.72485352 24.55493164 C36.88030302 36.09421193 18.81806604 33.38001921 -6.98608398 23.82836914 C-9.52237403 22.80293553 -9.52237403 22.80293553 -11.68139648 22.91040039 C-11.33915039 23.78051758 -11.33915039 23.78051758 -10.98999023 24.66821289 C-9.21749149 29.48495835 -8.2386323 32.79514556 -9.68139648 37.91040039 C-12.07593189 38.77739879 -13.20352294 39.12484506 -15.57250977 38.06176758 C-16.20914551 37.61478516 -16.84578125 37.16780273 -17.50170898 36.70727539 C-18.20166992 36.22129883 -18.90163086 35.73532227 -19.62280273 35.23461914 C-20.70368164 34.45538086 -20.70368164 34.45538086 -21.80639648 33.66040039 C-22.5347168 33.15637695 -23.26303711 32.65235352 -24.01342773 32.13305664 C-27.25426917 29.85068956 -29.4511775 28.25572886 -31.68139648 24.91040039 C-31.47374667 22.99171611 -31.2550897 21.07295412 -30.95678711 19.16625977 C-30.67307611 16.84224413 -30.67043619 14.67026934 -30.75952148 12.33227539 C-30.78530273 11.56399414 -30.81108398 10.79571289 -30.83764648 10.00415039 C-30.90079829 8.42535532 -30.97923731 6.8471064 -31.07202148 5.26977539 C-31.2279762 -0.50054917 -31.2279762 -0.50054917 -28.36889648 -3.58178711 C-18.85369355 -8.92025853 -9.07084643 -3.9515981 0 0 Z " fill="#0C077C" transform="translate(31.681396484375,179.089599609375)"/>
<path d="M0 0 C3.3 0 6.6 0 10 0 C10.01458252 0.9379541 10.02916504 1.8759082 10.04418945 2.84228516 C10.10546717 6.34269379 10.17965932 9.84234449 10.26245117 13.34228516 C10.29557926 14.85324904 10.32364855 16.36433307 10.34643555 17.87548828 C10.38020681 20.05553082 10.43252896 22.23448439 10.48828125 24.4140625 C10.51446533 25.7232666 10.54064941 27.0324707 10.56762695 28.38134766 C11.0276701 32.23157889 11.97621737 34.71170216 14 38 C17.18441952 39.59220976 20.5337155 39.3976617 24 39 C26.9254644 37.6490712 26.9254644 37.6490712 29 36 C26.03 35.505 26.03 35.505 23 35 C25.07506231 32.84808353 27.07453946 30.94595889 29.5 29.1875 C32.65874802 26.42359548 34.07239647 23.71242162 36 20 C38.59646014 22.16371679 39.87629074 23.36326115 40.53125 26.734375 C40.46000765 33.60926176 39.73815179 38.17288103 36 44 C35.01 44.495 35.01 44.495 34 45 C33.505 43.02 33.505 43.02 33 41 C32.59652344 41.4125 32.19304687 41.825 31.77734375 42.25 C26.76436882 47.01817997 21.40391604 50.14857688 15.28100586 53.24609375 C12.59372158 54.60656829 10.13811015 55.88735697 7.796875 57.796875 C6 59 6 59 4.0078125 58.859375 C1.72875829 57.88390432 -0.10866572 56.69342749 -2.125 55.25 C-5.38227782 52.99619986 -8.59631493 51.16830317 -12.1875 49.5 C-16.75754968 47.31122426 -19.65540119 44.78467761 -23 41 C-23.66 42.32 -24.32 43.64 -25 45 C-29.8505166 39.26599645 -30.55764128 34.35075604 -30.56640625 26.953125 C-29.89210913 23.43747931 -28.72713321 22.23375524 -26 20 C-25.731875 20.50789063 -25.46375 21.01578125 -25.1875 21.5390625 C-22.33415287 26.55119199 -19.34451748 29.63505007 -14.57421875 32.87109375 C-14.05472656 33.24363281 -13.53523438 33.61617187 -13 34 C-13 34.33 -13 34.66 -13 35 C-14.98 35 -16.96 35 -19 35 C-19 35.66 -19 36.32 -19 37 C-14.47806839 39.2609658 -10.96161052 39.40012988 -6 39 C-3.32568511 37.18836733 -3.04079641 36.12238923 -2 33 C-1.77888448 30.49214668 -1.60209497 28.00076837 -1.46484375 25.48828125 C-1.40037804 24.39594429 -1.40037804 24.39594429 -1.33460999 23.28153992 C-1.19840842 20.9587308 -1.06788411 18.63564222 -0.9375 16.3125 C-0.84607721 14.73630638 -0.75428475 13.16013416 -0.66210938 11.58398438 C-0.43711809 7.72289129 -0.21721744 3.86153791 0 0 Z " fill="#EAAA06" transform="translate(55,97)"/>
<path d="M0 0 C16.60258548 7.14330301 31.78899807 10.51838565 49.33032227 4.12524414 C50.80952148 3.52389648 50.80952148 3.52389648 52.31860352 2.91040039 C54.58930009 2.03504555 56.8601344 1.16004792 59.13110352 0.28540039 C60.20489258 -0.13354492 61.27868164 -0.55249023 62.38500977 -0.98413086 C69.78738713 -3.77357532 78.58904496 -5.99658576 86.31860352 -3.08959961 C87.41289148 0.19326428 87.11493413 0.74557173 86.31860352 3.91040039 C86.42800996 5.50910207 86.60015418 7.10416914 86.81860352 8.69165039 C88.25926632 23.2191821 88.25926632 23.2191821 84.71899414 28.12866211 C80.4184135 32.20392525 75.01546728 36.10372413 69.31860352 37.91040039 C65.7915924 37.38338927 65.7915924 37.38338927 64.31860352 35.91040039 C64.0324395 31.04561213 64.68814564 27.46666014 66.31860352 22.91040039 C65.13266602 23.4530957 63.94672852 23.99579102 62.72485352 24.55493164 C36.88030302 36.09421193 18.81806604 33.38001921 -6.98608398 23.82836914 C-9.52237403 22.80293553 -9.52237403 22.80293553 -11.68139648 22.91040039 C-11.33915039 23.78051758 -11.33915039 23.78051758 -10.98999023 24.66821289 C-9.21749149 29.48495835 -8.2386323 32.79514556 -9.68139648 37.91040039 C-12.07593189 38.77739879 -13.20352294 39.12484506 -15.57250977 38.06176758 C-16.20914551 37.61478516 -16.84578125 37.16780273 -17.50170898 36.70727539 C-18.20166992 36.22129883 -18.90163086 35.73532227 -19.62280273 35.23461914 C-20.70368164 34.45538086 -20.70368164 34.45538086 -21.80639648 33.66040039 C-22.5347168 33.15637695 -23.26303711 32.65235352 -24.01342773 32.13305664 C-27.25426917 29.85068956 -29.4511775 28.25572886 -31.68139648 24.91040039 C-31.47374667 22.99171611 -31.2550897 21.07295412 -30.95678711 19.16625977 C-30.67307611 16.84224413 -30.67043619 14.67026934 -30.75952148 12.33227539 C-30.78530273 11.56399414 -30.81108398 10.79571289 -30.83764648 10.00415039 C-30.90079829 8.42535532 -30.97923731 6.8471064 -31.07202148 5.26977539 C-31.2279762 -0.50054917 -31.2279762 -0.50054917 -28.36889648 -3.58178711 C-18.85369355 -8.92025853 -9.07084643 -3.9515981 0 0 Z M-27.68139648 -1.08959961 C-28.09619756 0.9392735 -28.09619756 0.9392735 -27.97436523 3.26196289 C-27.96469727 4.11274414 -27.9550293 4.96352539 -27.94506836 5.84008789 C-27.91993164 6.72954102 -27.89479492 7.61899414 -27.86889648 8.53540039 C-27.85536133 9.43258789 -27.84182617 10.32977539 -27.82788086 11.25415039 C-27.79246573 13.47349828 -27.7430811 15.69165227 -27.68139648 17.91040039 C-26.64849487 17.81686279 -26.64849487 17.81686279 -25.59472656 17.72143555 C-16.26094711 17.25740588 -8.85936211 19.90895208 -0.36889648 23.28540039 C1.61670963 24.05377206 3.60440044 24.81648504 5.59281921 25.57754517 C7.38560287 26.2670032 9.17321381 26.9698687 10.96044922 27.67358398 C27.26671293 33.67922062 40.83628581 30.44400492 56.35375977 24.44555664 C57.00747559 24.19475342 57.66119141 23.9439502 58.3347168 23.68554688 C59.66763635 23.16474703 60.99422513 22.62747247 62.31420898 22.07470703 C69.33554497 19.22212862 75.71678855 19.24976713 83.31860352 18.91040039 C83.64860352 12.31040039 83.97860352 5.71040039 84.31860352 -1.08959961 C72.4347727 -1.84015734 64.19361558 0.55654989 53.31860352 4.91040039 C40.5023149 9.81389103 27.98231557 11.51301221 14.31860352 8.91040039 C16.1842684 12.53834037 16.1842684 12.53834037 19.31860352 14.91040039 C19.81360352 16.39540039 19.81360352 16.39540039 20.31860352 17.91040039 C19.65860352 17.91040039 18.99860352 17.91040039 18.31860352 17.91040039 C18.31860352 20.55040039 18.31860352 23.19040039 18.31860352 25.91040039 C17.32860352 25.91040039 16.33860352 25.91040039 15.31860352 25.91040039 C15.31860352 22.94040039 15.31860352 19.97040039 15.31860352 16.91040039 C14.65860352 16.91040039 13.99860352 16.91040039 13.31860352 16.91040039 C12.98860352 19.55040039 12.65860352 22.19040039 12.31860352 24.91040039 C11.32860352 24.91040039 10.33860352 24.91040039 9.31860352 24.91040039 C9.31860352 23.26040039 9.31860352 21.61040039 9.31860352 19.91040039 C6.37130814 18.75228651 6.37130814 18.75228651 3.31860352 18.91040039 C3.31860352 17.92040039 3.31860352 16.93040039 3.31860352 15.91040039 C4.96860352 15.91040039 6.61860352 15.91040039 8.31860352 15.91040039 C7.82360352 14.42540039 7.82360352 14.42540039 7.31860352 12.91040039 C9.29860352 12.91040039 11.27860352 12.91040039 13.31860352 12.91040039 C12.82360352 11.42540039 12.82360352 11.42540039 12.31860352 9.91040039 C12.64860352 9.25040039 12.97860352 8.59040039 13.31860352 7.91040039 C9.21499893 6.26316313 5.11062525 4.61785087 1.00610352 2.97290039 C-0.16114258 2.50432617 -1.32838867 2.03575195 -2.53100586 1.55297852 C-4.20839844 0.88105469 -4.20839844 0.88105469 -5.91967773 0.19555664 C-6.95133057 -0.21815186 -7.9829834 -0.63186035 -9.04589844 -1.05810547 C-12.7814681 -2.52015103 -15.68281461 -3.24734826 -19.68139648 -3.27709961 C-20.54764648 -3.2912793 -21.41389648 -3.30545898 -22.30639648 -3.32006836 C-24.94861186 -3.25215899 -24.94861186 -3.25215899 -27.68139648 -1.08959961 Z " fill="#DC9F0D" transform="translate(31.681396484375,179.089599609375)"/>
<path d="M0 0 C0.99459989 7.86093409 1.53505014 13.78849772 -2 21 C-1.01 20.67 -0.02 20.34 1 20 C1 18.35 1 16.7 1 15 C1.33 15 1.66 15 2 15 C2.33 11.7 2.66 8.4 3 5 C2.34 5 1.68 5 1 5 C1 4.34 1 3.68 1 3 C4.01031744 2.06576355 4.86650268 1.95550089 8 3 C8 6.66666667 8 10.33333333 8 14 C8.33 11.36 8.66 8.72 9 6 C9.99 6 10.98 6 12 6 C12.33 7.65 12.66 9.3 13 11 C13 8.69 13 6.38 13 4 C16.37097383 2.50178941 18.20442119 2 22 2 C23.32229189 4.64458379 23.09677194 6.67761301 23.0625 9.625 C23.05347656 10.62789062 23.04445312 11.63078125 23.03515625 12.6640625 C23.02355469 13.43492188 23.01195312 14.20578125 23 15 C23.66 15 24.32 15 25 15 C25 17.66666667 25 20.33333333 25 23 C22.7522025 20.94766315 21.9977758 19.99332739 21 17 C19.74875954 18.66274199 19.74875954 18.66274199 19 21 C19.7913437 24.20898563 19.7913437 24.20898563 21 27 C22.299375 26.9690625 22.299375 26.9690625 23.625 26.9375 C26.85903648 26.99738956 29.82799897 27.39580933 33 28 C33 30.97 33 33.94 33 37 C28.22861753 39.81885663 24.19455867 40.46442811 18.7578125 40.51171875 C17.98944061 40.52966995 17.22106873 40.54762115 16.42941284 40.56611633 C13.99466305 40.61994958 11.5601062 40.65402692 9.125 40.6875 C7.46611914 40.72069705 5.80726365 40.75518891 4.1484375 40.79101562 C0.09909818 40.87565991 -3.95018661 40.94259857 -8 41 C-8.33 44.3 -8.66 47.6 -9 51 C-10.32 51 -11.64 51 -13 51 C-13 50.34 -13 49.68 -13 49 C-13.804375 49.020625 -14.60875 49.04125 -15.4375 49.0625 C-18 49 -18 49 -19 48 C-19.1875 45.0625 -19.1875 45.0625 -19 42 C-16.8614515 39.8614515 -15.86724686 39.57344937 -13 39 C-12.96261719 38.31292969 -12.92523438 37.62585938 -12.88671875 36.91796875 C-12.82097656 36.01691406 -12.75523438 35.11585937 -12.6875 34.1875 C-12.62949219 33.29417969 -12.57148437 32.40085938 -12.51171875 31.48046875 C-11.9290745 28.65620082 -11.3289646 27.66512671 -9 26 C-8.01 26 -7.02 26 -6 26 C-6.66 24.35 -7.32 22.7 -8 21 C-7.01 20.67 -6.02 20.34 -5 20 C-4.94392578 18.21142578 -4.94392578 18.21142578 -4.88671875 16.38671875 C-4.82105968 14.820281 -4.75461232 13.25387616 -4.6875 11.6875 C-4.66494141 10.90181641 -4.64238281 10.11613281 -4.61914062 9.30664062 C-4.58369141 8.54931641 -4.54824219 7.79199219 -4.51171875 7.01171875 C-4.48553467 6.31522217 -4.45935059 5.61872559 -4.43237305 4.90112305 C-3.93447724 2.71189963 -2.57510068 0 0 0 Z " fill="#EDBE2D" transform="translate(49,39)"/>
<path d="M0 0 C1.76923828 0.01353516 1.76923828 0.01353516 3.57421875 0.02734375 C4.47785156 0.03894531 5.38148437 0.05054688 6.3125 0.0625 C6.621875 1.01125 6.93125 1.96 7.25 2.9375 C8.18644742 5.92330408 8.18644742 5.92330408 9.3125 8.0625 C9.38140109 10.37068664 9.3099522 12.66059017 9.25 14.96875 C9.16749134 17.12275522 9.16749134 17.12275522 10.3125 19.0625 C11.3025 18.7325 12.2925 18.4025 13.3125 18.0625 C13.8075 20.0425 13.8075 20.0425 14.3125 22.0625 C13.3225 22.5575 13.3225 22.5575 12.3125 23.0625 C11.8175 23.5575 11.8175 23.5575 11.3125 24.0625 C10.6525 24.0625 9.9925 24.0625 9.3125 24.0625 C8.6525 23.0725 7.9925 22.0825 7.3125 21.0625 C6.3225 21.7225 5.3325 22.3825 4.3125 23.0625 C2.125 22.6875 2.125 22.6875 0.3125 22.0625 C1.2715625 21.629375 1.2715625 21.629375 2.25 21.1875 C4.46456079 20.23426549 4.46456079 20.23426549 5.3125 18.0625 C5.9725 18.0625 6.6325 18.0625 7.3125 18.0625 C6.8175 17.0725 6.8175 17.0725 6.3125 16.0625 C5.94125 16.5575 5.57 17.0525 5.1875 17.5625 C3.3125 19.0625 3.3125 19.0625 0.25 19.4375 C-0.719375 19.31375 -1.68875 19.19 -2.6875 19.0625 C-3.3475 18.0725 -4.0075 17.0825 -4.6875 16.0625 C-4.3575 15.7325 -4.0275 15.4025 -3.6875 15.0625 C-4.3475 14.7325 -5.0075 14.4025 -5.6875 14.0625 C-6.0175 15.3825 -6.3475 16.7025 -6.6875 18.0625 C-6.0275 18.0625 -5.3675 18.0625 -4.6875 18.0625 C-4.3575 18.7225 -4.0275 19.3825 -3.6875 20.0625 C-2.6975 20.3925 -1.7075 20.7225 -0.6875 21.0625 C-0.6875 21.7225 -0.6875 22.3825 -0.6875 23.0625 C-2.0075 23.0625 -3.3275 23.0625 -4.6875 23.0625 C-4.6875 22.4025 -4.6875 21.7425 -4.6875 21.0625 C-5.6775 21.0625 -6.6675 21.0625 -7.6875 21.0625 C-8.3475 19.4125 -9.0075 17.7625 -9.6875 16.0625 C-9.6875 17.0525 -9.6875 18.0425 -9.6875 19.0625 C-9.6875 20.0525 -9.6875 21.0425 -9.6875 22.0625 C-9.0275 22.0625 -8.3675 22.0625 -7.6875 22.0625 C-8.0175 23.7125 -8.3475 25.3625 -8.6875 27.0625 C-9.6775 27.0625 -10.6675 27.0625 -11.6875 27.0625 C-12.3475 28.3825 -13.0075 29.7025 -13.6875 31.0625 C-14.0175 29.7425 -14.3475 28.4225 -14.6875 27.0625 C-15.0175 29.7025 -15.3475 32.3425 -15.6875 35.0625 C-17.6875 32.0625 -17.6875 32.0625 -17.6875 30.0625 C-18.0175 30.7225 -18.3475 31.3825 -18.6875 32.0625 C-19.3475 31.7325 -20.0075 31.4025 -20.6875 31.0625 C-20.6875 28.4225 -20.6875 25.7825 -20.6875 23.0625 C-21.265 22.959375 -21.8425 22.85625 -22.4375 22.75 C-25.13083219 21.92703739 -26.69121406 21.05878594 -28.6875 19.0625 C-29.07399601 16.05084277 -28.94337383 14.50114085 -27.40234375 11.859375 C-24.34421162 8.33748218 -22.57921767 6.3194356 -18 5 C-15.31315737 5.05069514 -13.20032993 5.15788122 -10.6875 6.0625 C-10.3575 4.4125 -10.0275 2.7625 -9.6875 1.0625 C-6.26517028 -0.07827657 -3.60076783 -0.03565117 0 0 Z " fill="#E7B82E" transform="translate(59.6875,-0.0625)"/>
<path d="M0 0 C7.98253526 3.27231658 15.02068211 4.79870042 23.65625 4.90039062 C23.32625 5.56039062 22.99625 6.22039062 22.65625 6.90039062 C17.70625 6.90039062 12.75625 6.90039062 7.65625 6.90039062 C9.30625 8.55039063 10.95625 10.20039063 12.65625 11.90039062 C12.65625 12.89039063 12.65625 13.88039062 12.65625 14.90039062 C11.99625 14.90039062 11.33625 14.90039062 10.65625 14.90039062 C10.65625 17.54039062 10.65625 20.18039063 10.65625 22.90039062 C9.66625 22.90039062 8.67625 22.90039062 7.65625 22.90039062 C7.65625 19.93039063 7.65625 16.96039063 7.65625 13.90039062 C6.99625 13.90039062 6.33625 13.90039062 5.65625 13.90039062 C5.32625 16.54039062 4.99625 19.18039063 4.65625 21.90039062 C3.66625 21.90039062 2.67625 21.90039062 1.65625 21.90039062 C1.32625 20.25039062 0.99625 18.60039062 0.65625 16.90039062 C-0.99375 16.90039062 -2.64375 16.90039062 -4.34375 16.90039062 C-4.83875 14.92039063 -4.83875 14.92039063 -5.34375 12.90039062 C-3.69375 12.57039063 -2.04375 12.24039063 -0.34375 11.90039062 C-0.34375 11.24039063 -0.34375 10.58039063 -0.34375 9.90039062 C1.30625 9.57039063 2.95625 9.24039063 4.65625 8.90039062 C4.57367751 6.96333029 4.57367751 6.96333029 3.65625 4.90039062 C-0.23729744 2.61890417 -4.56037553 1.22777337 -8.78125 -0.34960938 C-9.93302734 -0.80851563 -11.08480469 -1.26742187 -12.27148438 -1.74023438 C-20.05343313 -4.70646782 -27.21263526 -6.80998095 -35.34375 -4.09960938 C-35.34375 2.17039063 -35.34375 8.44039062 -35.34375 14.90039062 C-34.68375 14.57039063 -34.02375 14.24039063 -33.34375 13.90039062 C-26.62084833 13.25059344 -21.48416609 14.17131681 -15.34375 16.90039062 C-15.67375 17.56039062 -16.00375 18.22039062 -16.34375 18.90039062 C-17.33375 19.23039062 -18.32375 19.56039062 -19.34375 19.90039062 C-19.00150391 20.77050781 -19.00150391 20.77050781 -18.65234375 21.65820312 C-16.87984501 26.47494859 -15.90098582 29.7851358 -17.34375 34.90039062 C-19.7382854 35.76738903 -20.86587646 36.1148353 -23.23486328 35.05175781 C-23.87149902 34.60477539 -24.50813477 34.15779297 -25.1640625 33.69726562 C-25.86402344 33.21128906 -26.56398438 32.7253125 -27.28515625 32.22460938 C-28.36603516 31.44537109 -28.36603516 31.44537109 -29.46875 30.65039062 C-30.19707031 30.14636719 -30.92539062 29.64234375 -31.67578125 29.12304688 C-34.91662269 26.8406798 -37.11353102 25.2457191 -39.34375 21.90039062 C-39.13610019 19.98170635 -38.91744322 18.06294436 -38.61914062 16.15625 C-38.33542962 13.83223436 -38.33278971 11.66025958 -38.421875 9.32226562 C-38.44765625 8.55398437 -38.4734375 7.78570312 -38.5 6.99414062 C-38.5631518 5.41534555 -38.64159082 3.83709664 -38.734375 2.25976562 C-38.89032972 -3.51055894 -38.89032972 -3.51055894 -36.03125 -6.59179688 C-24.59534205 -13.00787314 -10.72120069 -4.58564399 0 0 Z " fill="#E0A10B" transform="translate(39.34375,182.099609375)"/>
<path d="M0 0 C1.32 0.66 2.64 1.32 4 2 C3.01 2.495 3.01 2.495 2 3 C3.09798661 4.31189416 3.09798661 4.31189416 5.8125 4.25 C9.27714111 3.97826344 10.49415104 3.31309135 13 1 C13 1.99 13 2.98 13 4 C12.34 4 11.68 4 11 4 C10.67 4.99 10.34 5.98 10 7 C9.01 7.33 8.02 7.66 7 8 C9.38564077 7.42415568 11.66682784 6.77772405 14 6 C14.495 7.98 14.495 7.98 15 10 C14.34 9.67 13.68 9.34 13 9 C9.91666667 9.75 9.91666667 9.75 7 11 C6.67 11.66 6.34 12.32 6 13 C5.34 12.67 4.68 12.34 4 12 C1 10.66666667 1 10.66666667 -2 12 C-1.01 12 -0.02 12 1 12 C3 15 3 15 4 18 C5.91666667 18.83333333 5.91666667 18.83333333 8 19 C8.66 18.67 9.32 18.34 10 18 C10 19.98 10 21.96 10 24 C10.66 23.67 11.32 23.34 12 23 C12 23.66 12 24.32 12 25 C13.65 25.33 15.3 25.66 17 26 C14.25002779 27.4731994 12.10380501 28.22404875 9 29 C9 32.63 9 36.26 9 40 C7 38 7 38 6.875 34.375 C6.91625 33.26125 6.9575 32.1475 7 31 C6.01 31 5.02 31 4 31 C4.04125 32.27875 4.0825 33.5575 4.125 34.875 C4.1953125 37.0546875 4.1953125 37.0546875 4 39 C3.34 39.66 2.68 40.32 2 41 C1.83126522 39.56274129 1.66509263 38.12518162 1.5 36.6875 C1.4071875 35.88699219 1.314375 35.08648437 1.21875 34.26171875 C1 32 1 32 1 29 C-0.65 28.67 -2.3 28.34 -4 28 C-4 28.66 -4 29.32 -4 30 C-3.34 30 -2.68 30 -2 30 C-1.94589313 31.77049689 -1.90715881 33.54146849 -1.875 35.3125 C-1.85179688 36.29863281 -1.82859375 37.28476562 -1.8046875 38.30078125 C-2 41 -2 41 -4 44 C-3.34 44.33 -2.68 44.66 -2 45 C-2 45.66 -2 46.32 -2 47 C-3.65 46.67 -5.3 46.34 -7 46 C-6.125 40.25 -6.125 40.25 -5 38 C-5.08780403 35.95501575 -5.24241538 33.91255052 -5.4375 31.875 C-5.53933594 30.77929688 -5.64117187 29.68359375 -5.74609375 28.5546875 C-5.82988281 27.71164063 -5.91367187 26.86859375 -6 26 C-8.35358251 28.35358251 -8.27871904 28.92968394 -8.4140625 32.1328125 C-8.47207031 33.34130859 -8.47207031 33.34130859 -8.53125 34.57421875 C-8.57765625 35.83685547 -8.57765625 35.83685547 -8.625 37.125 C-8.68300781 38.39923828 -8.68300781 38.39923828 -8.7421875 39.69921875 C-8.83656494 41.79911684 -8.91937586 43.89952891 -9 46 C-10.32 46 -11.64 46 -13 46 C-12.484375 46.763125 -11.96875 47.52625 -11.4375 48.3125 C-10.963125 49.199375 -10.48875 50.08625 -10 51 C-10.33 51.99 -10.66 52.98 -11 54 C-11.33 53.34 -11.66 52.68 -12 52 C-12.66 52 -13.32 52 -14 52 C-16.02350324 55.03525486 -16.32124018 56.19426202 -16.625 59.6875 C-16.69976562 60.49574219 -16.77453125 61.30398437 -16.8515625 62.13671875 C-16.90054688 62.75160156 -16.94953125 63.36648437 -17 64 C-17.66 63.67 -18.32 63.34 -19 63 C-19 61.68 -19 60.36 -19 59 C-19.66 58.67 -20.32 58.34 -21 58 C-19.7023817 52.70139194 -17.84984298 48.65474354 -15 44 C-14.01 44 -13.02 44 -12 44 C-11.59214065 35.91834246 -12.21693932 29.17709137 -16.08984375 21.97265625 C-17.47252244 18.97586338 -17.18041911 16.24754394 -17 13 C-16.67 12.34 -16.34 11.68 -16 11 C-17.32 10.34 -18.64 9.68 -20 9 C-19.67 8.34 -19.34 7.68 -19 7 C-17.35 7.33 -15.7 7.66 -14 8 C-14.01740234 8.95712891 -14.01740234 8.95712891 -14.03515625 9.93359375 C-14.04417969 10.75988281 -14.05320312 11.58617187 -14.0625 12.4375 C-14.07410156 13.26121094 -14.08570313 14.08492187 -14.09765625 14.93359375 C-14.23267348 16.99163938 -14.23267348 16.99163938 -13 18 C-12.67 17.01 -12.34 16.02 -12 15 C-11.67 16.32 -11.34 17.64 -11 19 C-10.34 17.02 -9.68 15.04 -9 13 C-8.34 13.33 -7.68 13.66 -7 14 C-4.90178785 13.60061233 -4.90178785 13.60061233 -3 13 C-3.33 12.01 -3.66 11.02 -4 10 C-3.34 10 -2.68 10 -2 10 C-2 9.34 -2 8.68 -2 8 C-2.66 8 -3.32 8 -4 8 C-4.66 6.02 -5.32 4.04 -6 2 C-5.01 2 -4.02 2 -3 2 C-2.67 3.65 -2.34 5.3 -2 7 C-1.01 7 -0.02 7 1 7 C1 7.66 1 8.32 1 9 C2.32 9 3.64 9 5 9 C5 8.34 5 7.68 5 7 C3.68 6.67 2.36 6.34 1 6 C1 5.34 1 4.68 1 4 C0.34 4 -0.32 4 -1 4 C-0.67 2.68 -0.34 1.36 0 0 Z " fill="#D9A730" transform="translate(54,14)"/>
<path d="M0 0 C1.64510941 0.00015915 3.29022379 0.00585551 4.93530273 0.01586914 C6.23164894 0.01799156 6.23164894 0.01799156 7.55418396 0.02015686 C10.32578941 0.025773 13.09731528 0.0383282 15.86889648 0.05102539 C17.74324428 0.05603831 19.61759334 0.06060158 21.49194336 0.06469727 C26.09679192 0.07574767 30.70158069 0.09302309 35.30639648 0.11352539 C35.80139648 5.06352539 35.80139648 5.06352539 36.30639648 10.11352539 C33.00639648 10.11352539 29.70639648 10.11352539 26.30639648 10.11352539 C26.01764648 11.06227539 25.72889648 12.01102539 25.43139648 12.98852539 C24.30639648 16.11352539 24.30639648 16.11352539 22.30639648 18.11352539 C22.06138154 20.54528936 21.93314727 22.87217423 21.89233398 25.30883789 C21.87296783 26.01628143 21.85360168 26.72372498 21.83364868 27.4526062 C21.77381997 29.71445624 21.72745548 31.97635709 21.68139648 34.23852539 C21.64321963 35.77109979 21.60416806 37.30365267 21.56420898 38.83618164 C21.46811609 42.59512163 21.38409799 46.35416207 21.30639648 50.11352539 C20.97639648 50.11352539 20.64639648 50.11352539 20.30639648 50.11352539 C20.30639648 39.55352539 20.30639648 28.99352539 20.30639648 18.11352539 C19.64639648 18.44352539 18.98639648 18.77352539 18.30639648 19.11352539 C12.76793495 19.34429462 12.76793495 19.34429462 10.30639648 18.11352539 C10.30639648 21.74352539 10.30639648 25.37352539 10.30639648 29.11352539 C9.97639648 29.11352539 9.64639648 29.11352539 9.30639648 29.11352539 C9.26772461 28.0268457 9.26772461 28.0268457 9.22827148 26.91821289 C8.86184717 20.67234396 8.19981653 17.011699 4.30639648 12.11352539 C4.30639648 11.45352539 4.30639648 10.79352539 4.30639648 10.11352539 C1.33639648 10.11352539 -1.63360352 10.11352539 -4.69360352 10.11352539 C-4.79125977 3.17993164 -4.79125977 3.17993164 -4.69360352 1.11352539 C-3.69360352 0.11352539 -3.69360352 0.11352539 0 0 Z " fill="#AA7E1F" transform="translate(44.693603515625,78.886474609375)"/>
<path d="M0 0 C0.66 0.33 1.32 0.66 2 1 C2 1.66 2 2.32 2 3 C2.66 3 3.32 3 4 3 C4 3.66 4 4.32 4 5 C4.66 5 5.32 5 6 5 C6.69965443 6.26418246 7.38434763 7.53665402 8.0625 8.8125 C8.44535156 9.52019531 8.82820313 10.22789063 9.22265625 10.95703125 C10 13 10 13 9 16 C8.34 15.67 7.68 15.34 7 15 C6.34 16.65 5.68 18.3 5 20 C-7.375 20.495 -7.375 20.495 -20 21 C-20.33 24.3 -20.66 27.6 -21 31 C-22.32 31 -23.64 31 -25 31 C-25 30.34 -25 29.68 -25 29 C-25.804375 29.020625 -26.60875 29.04125 -27.4375 29.0625 C-30 29 -30 29 -31 28 C-31.1875 25.0625 -31.1875 25.0625 -31 22 C-28.8614515 19.8614515 -27.86724686 19.57344937 -25 19 C-24.96261719 18.30132812 -24.92523438 17.60265625 -24.88671875 16.8828125 C-24.82097656 15.97273438 -24.75523438 15.06265625 -24.6875 14.125 C-24.62949219 13.22007813 -24.57148437 12.31515625 -24.51171875 11.3828125 C-24 9 -24 9 -21 7 C-19.875 12.625 -19.875 12.625 -21 16 C-20.05125 15.835 -19.1025 15.67 -18.125 15.5 C-15 15 -15 15 -13 15 C-13 14.34 -13 13.68 -13 13 C-12.34 12.67 -11.68 12.34 -11 12 C-10.21984379 10.17489003 -9.52204594 8.31393324 -8.875 6.4375 C-8.52179687 5.42558594 -8.16859375 4.41367187 -7.8046875 3.37109375 C-7.53914063 2.58863281 -7.27359375 1.80617187 -7 1 C-6.67 1.66 -6.34 2.32 -6 3 C-4.02 2.67 -2.04 2.34 0 2 C0 1.34 0 0.68 0 0 Z " fill="#DEAE2F" transform="translate(61,59)"/>
<path d="M0 0 C3.77606496 1.09382234 7.38468077 2.46039637 11 4 C10.67 5.65 10.34 7.3 10 9 C10.99 9.33 11.98 9.66 13 10 C13 10.99 13 11.98 13 13 C12.34 13 11.68 13 11 13 C10.67 15.64 10.34 18.28 10 21 C4.62090008 23.25171625 4.62090008 23.25171625 1.6875 22.0625 C-1.48965881 20.80641396 -3.9101561 20.80022321 -7.3125 20.875 C-8.38113281 20.89304688 -9.44976562 20.91109375 -10.55078125 20.9296875 C-11.35902344 20.95289063 -12.16726562 20.97609375 -13 21 C-13.08687496 17.87517438 -13.14034568 14.75065754 -13.1875 11.625 C-13.21263672 10.73554688 -13.23777344 9.84609375 -13.26367188 8.9296875 C-13.27333984 8.07890625 -13.28300781 7.228125 -13.29296875 6.3515625 C-13.3086792 5.56604004 -13.32438965 4.78051758 -13.34057617 3.97119141 C-13.22818604 3.32069824 -13.1157959 2.67020508 -13 2 C-8.69461453 -0.87025698 -5.05698487 -0.59575438 0 0 Z " fill="#0A057D" transform="translate(17,176)"/>
<path d="M0 0 C0 3.96 0 7.92 0 12 C-1.32 11.67 -2.64 11.34 -4 11 C-4.33 11.33 -4.66 11.66 -5 12 C-6.99958364 12.04080783 -9.00045254 12.04254356 -11 12 C-11.33 10.35 -11.66 8.7 -12 7 C-13.98 7.33 -15.96 7.66 -18 8 C-16.60804085 10.7839183 -14.84424221 10.97898997 -12 12 C-12.33 13.65 -12.66 15.3 -13 17 C-13.66 16.67 -14.32 16.34 -15 16 C-14.67 15.01 -14.34 14.02 -14 13 C-16.07977297 14.22590192 -16.07977297 14.22590192 -18 16 C-18 17.32 -18 18.64 -18 20 C-19.875 19.75 -19.875 19.75 -22 19 C-23.25 16.9375 -23.25 16.9375 -24 15 C-22.68 14.67 -21.36 14.34 -20 14 C-20 13.34 -20 12.68 -20 12 C-22.31 11.34 -24.62 10.68 -27 10 C-27 13.3 -27 16.6 -27 20 C-27.66 20 -28.32 20 -29 20 C-29.66 18.02 -30.32 16.04 -31 14 C-31.99 14 -32.98 14 -34 14 C-33.2236068 17.0745356 -33.2236068 17.0745356 -31 19 C-32.65 18.67 -34.3 18.34 -36 18 C-36.33 17.01 -36.66 16.02 -37 15 C-36.67 14.34 -36.34 13.68 -36 13 C-36.66 12.67 -37.32 12.34 -38 12 C-38 11.01 -38 10.02 -38 9 C-36.95042114 8.80422363 -36.95042114 8.80422363 -35.87963867 8.60449219 C-32.64704774 7.99586654 -29.41734705 7.37301618 -26.1875 6.75 C-25.08728516 6.54503906 -23.98707031 6.34007812 -22.85351562 6.12890625 C-16.35322867 4.86336366 -10.30242399 3.20862044 -4.13793945 0.77832031 C-2 0 -2 0 0 0 Z " fill="#B78421" transform="translate(97,185)"/>
<path d="M0 0 C0.99386719 0.00902344 1.98773438 0.01804688 3.01171875 0.02734375 C4.15060547 0.04474609 4.15060547 0.04474609 5.3125 0.0625 C5.3125 0.3925 5.3125 0.7225 5.3125 1.0625 C1.3525 1.7225 -2.6075 2.3825 -6.6875 3.0625 C-6.6875 4.3825 -6.6875 5.7025 -6.6875 7.0625 C-7.3475 7.0625 -8.0075 7.0625 -8.6875 7.0625 C-8.6875 8.0525 -8.6875 9.0425 -8.6875 10.0625 C-9.6775 10.0625 -10.6675 10.0625 -11.6875 10.0625 C-11.6875 9.4025 -11.6875 8.7425 -11.6875 8.0625 C-14.3275 8.0625 -16.9675 8.0625 -19.6875 8.0625 C-19.6875 8.7225 -19.6875 9.3825 -19.6875 10.0625 C-19.0275 10.0625 -18.3675 10.0625 -17.6875 10.0625 C-17.6875 11.3825 -17.6875 12.7025 -17.6875 14.0625 C-16.6975 14.0625 -15.7075 14.0625 -14.6875 14.0625 C-14.3575 13.0725 -14.0275 12.0825 -13.6875 11.0625 C-12.70629536 14.11513664 -12.70629536 16.00986336 -13.6875 19.0625 C-12.90375 19.371875 -12.12 19.68125 -11.3125 20 C-8.6875 21.0625 -8.6875 21.0625 -6.6875 22.0625 C-7.0175 23.7125 -7.3475 25.3625 -7.6875 27.0625 C-8.6775 27.0625 -9.6675 27.0625 -10.6875 27.0625 C-11.3475 28.3825 -12.0075 29.7025 -12.6875 31.0625 C-13.0175 29.7425 -13.3475 28.4225 -13.6875 27.0625 C-14.0175 29.7025 -14.3475 32.3425 -14.6875 35.0625 C-16.6875 32.0625 -16.6875 32.0625 -16.6875 30.0625 C-17.0175 30.7225 -17.3475 31.3825 -17.6875 32.0625 C-18.3475 31.7325 -19.0075 31.4025 -19.6875 31.0625 C-19.6875 28.4225 -19.6875 25.7825 -19.6875 23.0625 C-20.265 22.959375 -20.8425 22.85625 -21.4375 22.75 C-24.13083219 21.92703739 -25.69121406 21.05878594 -27.6875 19.0625 C-28.07399601 16.05084277 -27.94337383 14.50114085 -26.40234375 11.859375 C-23.34421162 8.33748218 -21.57921767 6.3194356 -17 5 C-14.31315737 5.05069514 -12.20032993 5.15788122 -9.6875 6.0625 C-9.3575 4.4125 -9.0275 2.7625 -8.6875 1.0625 C-5.53819107 0.01273036 -3.29935544 -0.03881595 0 0 Z " fill="#DBAA30" transform="translate(58.6875,-0.0625)"/>
<path d="M0 0 C2.22189824 2.22189824 2.92598892 4.08482708 4 7 C4 6.34 4 5.68 4 5 C4.31802943 3.33034549 4.64984951 1.66321482 5 0 C5.226875 0.61875 5.45375 1.2375 5.6875 1.875 C6.8440732 4.23244106 6.8440732 4.23244106 9.5 4.9375 C12 6 12 6 13.25 8.5625 C13.4975 9.366875 13.745 10.17125 14 11 C14.33 11.33 14.66 11.66 15 12 C15.07226502 13.85287502 15.0838122 15.70833878 15.0625 17.5625 C15.05347656 18.57441406 15.04445313 19.58632812 15.03515625 20.62890625 C15.02355469 21.41136719 15.01195313 22.19382812 15 23 C16.98 23.99 18.96 24.98 21 26 C21 28.64 21 31.28 21 34 C18.03 34.66 15.06 35.32 12 36 C10.79727181 33.59454362 10.89928528 32.05003047 10.9375 29.375 C10.94652344 28.55773437 10.95554687 27.74046875 10.96484375 26.8984375 C10.97644531 26.27195312 10.98804687 25.64546875 11 25 C9.68 24.67 8.36 24.34 7 24 C7.66 23.34 8.32 22.68 9 22 C10.32 22 11.64 22 13 22 C13 19.03 13 16.06 13 13 C12.01 13 11.02 13 10 13 C10 14.65 10 16.3 10 18 C9.67 18 9.34 18 9 18 C9 16.35 9 14.7 9 13 C6.03 13 3.06 13 0 13 C-0.66 10.36 -1.32 7.72 -2 5 C-1.34 5 -0.68 5 0 5 C0 3.35 0 1.7 0 0 Z " fill="#DEAB2F" transform="translate(69,54)"/>
<path d="M0 0 C7.26 0 14.52 0 22 0 C21 6 21 6 19.46948242 7.41918945 C17.10861704 9.95891421 17.51906582 12.99538081 17.48828125 16.29296875 C17.47033005 16.99899734 17.45237885 17.70502594 17.43388367 18.43244934 C17.37976822 20.68407241 17.34588278 22.93548343 17.3125 25.1875 C17.27932781 26.71552431 17.24483823 28.24352063 17.20898438 29.77148438 C17.12404175 33.51416989 17.05723752 37.25679241 17 41 C16.67 41 16.34 41 16 41 C16 30.44 16 19.88 16 9 C15.01 9.495 15.01 9.495 14 10 C8.46153846 10.23076923 8.46153846 10.23076923 6 9 C6 12.63 6 16.26 6 20 C5.67 20 5.34 20 5 20 C4.97421875 19.27554688 4.9484375 18.55109375 4.921875 17.8046875 C4.55325851 11.52145194 3.84149569 7.95676864 0 3 C0 2.01 0 1.02 0 0 Z " fill="#A67923" transform="translate(49,88)"/>
<path d="M0 0 C1.21816406 0.03480469 1.21816406 0.03480469 2.4609375 0.0703125 C3.68683594 0.09738281 3.68683594 0.09738281 4.9375 0.125 C5.87722656 0.15980469 5.87722656 0.15980469 6.8359375 0.1953125 C10.11185702 6.01006965 12.5701541 10.44051976 11.8359375 17.1953125 C7.61939394 15.70896134 4.21115145 13.58282091 0.5234375 11.0703125 C-0.54519531 10.34585938 -1.61382812 9.62140625 -2.71484375 8.875 C-3.92720703 8.04355469 -3.92720703 8.04355469 -5.1640625 7.1953125 C-4.08619049 0.36878976 -4.08619049 0.36878976 0 0 Z " fill="#0A067D" transform="translate(8.1640625,197.8046875)"/>
<path d="M0 0 C1.61949011 2.57213134 2.04408751 3.67669159 1.625 6.75 C1.41875 7.4925 1.2125 8.235 1 9 C5.455 9.99 5.455 9.99 10 11 C6 13 6 13 2 14 C1.67 17.3 1.34 20.6 1 24 C-0.32 24 -1.64 24 -3 24 C-3 23.34 -3 22.68 -3 22 C-3.804375 22.020625 -4.60875 22.04125 -5.4375 22.0625 C-8 22 -8 22 -9 21 C-9.1875 18.0625 -9.1875 18.0625 -9 15 C-6.8614515 12.8614515 -5.86724686 12.57344937 -3 12 C-2.95101562 11.30132812 -2.90203125 10.60265625 -2.8515625 9.8828125 C-2.73941406 8.51769531 -2.73941406 8.51769531 -2.625 7.125 C-2.55539063 6.22007813 -2.48578125 5.31515625 -2.4140625 4.3828125 C-2 2 -2 2 0 0 Z " fill="#E2B32F" transform="translate(39,66)"/>
<path d="M0 0 C0.8971875 1.175625 0.8971875 1.175625 1.8125 2.375 C3.91085249 5.14574323 3.91085249 5.14574323 7 7 C7 7.99 7 8.98 7 10 C6.34 10 5.68 10 5 10 C5 12.64 5 15.28 5 18 C4.01 18 3.02 18 2 18 C2 15.03 2 12.06 2 9 C1.34 9 0.68 9 0 9 C-0.33 11.64 -0.66 14.28 -1 17 C-1.99 17 -2.98 17 -4 17 C-4.33 15.35 -4.66 13.7 -5 12 C-6.65 12 -8.3 12 -10 12 C-10.33 10.68 -10.66 9.36 -11 8 C-9.35 7.67 -7.7 7.34 -6 7 C-6 6.34 -6 5.68 -6 5 C-4.35 4.67 -2.7 4.34 -1 4 C-1 3.01 -1 2.02 -1 1 C-0.67 0.67 -0.34 0.34 0 0 Z " fill="#CD9416" transform="translate(45,187)"/>
<path d="M0 0 C1.875 1.0625 1.875 1.0625 3 3 C3.39650104 6.63459282 3.41637627 9.09785142 1.875 12.4375 C0 14 0 14 -2.875 14.5625 C-6.92974297 13.83264627 -8.37974474 12.08265324 -11 9 C-9.03261235 2.189812 -7.59934653 -0.94991832 0 0 Z " fill="#F1C42C" transform="translate(63,65)"/>
<path d="M0 0 C4.29 0 8.58 0 13 0 C13 1.32 13 2.64 13 4 C10.73676913 5.95004226 8.58628877 7.59308545 6.125 9.25 C5.14853516 9.93835938 5.14853516 9.93835938 4.15234375 10.640625 C-0.69675409 14 -0.69675409 14 -3 14 C-3.29341888 8.32723489 -3.00559652 5.00932754 0 0 Z " fill="#09057D" transform="translate(102,200)"/>
<path d="M0 0 C1.17046875 0.10183594 2.3409375 0.20367187 3.546875 0.30859375 C4.43890625 0.39238281 5.3309375 0.47617188 6.25 0.5625 C6.25 0.8925 6.25 1.2225 6.25 1.5625 C5.24646484 1.56636719 5.24646484 1.56636719 4.22265625 1.5703125 C-5.51603645 1.96247462 -13.76664719 5.09860843 -22.75 8.5625 C-33.7850933 12.76134644 -42.91632809 13.71021574 -54.75 13.5625 C-54.75 13.2325 -54.75 12.9025 -54.75 12.5625 C-54.11191406 12.50191406 -53.47382812 12.44132813 -52.81640625 12.37890625 C-51.99011719 12.29511719 -51.16382813 12.21132812 -50.3125 12.125 C-49.48878906 12.04378906 -48.66507813 11.96257812 -47.81640625 11.87890625 C-45.76337975 11.77319185 -45.76337975 11.77319185 -44.75 10.5625 C-43.13041975 10.28510154 -41.50989123 10.01244246 -39.88574219 9.76318359 C-30.21551057 8.24409634 -21.58328007 5.0966359 -12.60253906 1.27099609 C-8.1743441 -0.42254921 -4.73936512 -0.42654286 0 0 Z " fill="#DB9E0E" transform="translate(107.75,176.4375)"/>
<path d="M0 0 C2.97 0 5.94 0 9 0 C9 0.99 9 1.98 9 3 C9.99 3.33 10.98 3.66 12 4 C12 4.99 12 5.98 12 7 C11.34 7 10.68 7 10 7 C9.67 9.64 9.34 12.28 9 15 C8.01 15.33 7.02 15.66 6 16 C6.14107747 14.54119891 6.28802415 13.08296449 6.4375 11.625 C6.51871094 10.81289062 6.59992187 10.00078125 6.68359375 9.1640625 C7 7 7 7 8 5 C7.34 5 6.68 5 6 5 C5.87625 5.7425 5.7525 6.485 5.625 7.25 C5.04513299 9.80141485 4.26291261 11.7267573 3 14 C1.68 13.67 0.36 13.34 -1 13 C-1.33 11.35 -1.66 9.7 -2 8 C-0.35 8 1.3 8 3 8 C3 7.01 3 6.02 3 5 C1.68 4.67 0.36 4.34 -1 4 C-0.67 2.68 -0.34 1.36 0 0 Z " fill="#D19713" transform="translate(18,182)"/>
<path d="M0 0 C0.66 0 1.32 0 2 0 C1.49890042 4.38462134 0.01704885 6.8000997 -3 10 C-3.66 10 -4.32 10 -5 10 C-4.7525 10.94875 -4.505 11.8975 -4.25 12.875 C-3.46570905 18.04708088 -5.74762743 22.4428741 -8 27 C-8.33 27.33 -8.66 27.66 -9 28 C-9.3931648 29.67884238 -9.74085452 31.36850045 -10.0625 33.0625 C-10.23910156 33.98160156 -10.41570312 34.90070312 -10.59765625 35.84765625 C-10.73042969 36.55792969 -10.86320312 37.26820312 -11 38 C-11.33 38 -11.66 38 -12 38 C-12 34.33333333 -12 30.66666667 -12 27 C-12.33 26.67 -12.66 26.34 -13 26 C-12.01 24.515 -12.01 24.515 -11 23 C-11.80161791 20.32854463 -11.80161791 20.32854463 -13 18 C-12.01 18 -11.02 18 -10 18 C-9.34 18.99 -8.68 19.98 -8 21 C-7.13617572 18.24293584 -7.13617572 18.24293584 -7 15 C-8.81088845 12.13034253 -8.81088845 12.13034253 -11 10 C-10.34 9.34 -9.68 8.68 -9 8 C-9 7.01 -9 6.02 -9 5 C-7.68 5.99 -6.36 6.98 -5 8 C-5 7.01 -5 6.02 -5 5 C-5 4.01 -5 3.02 -5 2 C-3.68 2.66 -2.36 3.32 -1 4 C-0.67 2.68 -0.34 1.36 0 0 Z " fill="#CF9D33" transform="translate(86,15)"/>
<path d="M0 0 C0.99 0.495 0.99 0.495 2 1 C1.67 2.98 1.34 4.96 1 7 C2.98 6.67 4.96 6.34 7 6 C7 4.68 7 3.36 7 2 C8.74906659 1.80398392 10.49931846 1.61852597 12.25 1.4375 C13.22453125 1.33308594 14.1990625 1.22867188 15.203125 1.12109375 C17.7631352 1.01025532 19.58148159 1.22261908 22 2 C22 3.32 22 4.64 22 6 C19 5 19 5 18 4 C17.01 4.66 16.02 5.32 15 6 C13.35 6.33 11.7 6.66 10 7 C19.9 6.67 29.8 6.34 40 6 C40.495 7.485 40.495 7.485 41 9 C27.47 9 13.94 9 0 9 C0 6.03 0 3.06 0 0 Z " fill="#89652D" transform="translate(40,80)"/>
<path d="M0 0 C-0.33 0.33 -0.66 0.66 -1 1 C-0.01 1.66 0.98 2.32 2 3 C-0.97 2.505 -0.97 2.505 -4 2 C-4 5.3 -4 8.6 -4 12 C-4.66 12 -5.32 12 -6 12 C-6.66 10.02 -7.32 8.04 -8 6 C-8.99 6 -9.98 6 -11 6 C-10.2236068 9.0745356 -10.2236068 9.0745356 -8 11 C-9.65 10.67 -11.3 10.34 -13 10 C-13.33 9.01 -13.66 8.02 -14 7 C-13.67 6.34 -13.34 5.68 -13 5 C-13.66 4.67 -14.32 4.34 -15 4 C-15 3.01 -15 2.02 -15 1 C-13.25215171 0.63536268 -11.50159498 0.2836922 -9.75 -0.0625 C-8.28820312 -0.35833984 -8.28820312 -0.35833984 -6.796875 -0.66015625 C-4.131881 -0.98397535 -2.51128277 -0.85503199 0 0 Z " fill="#9F722E" transform="translate(74,193)"/>
<path d="M0 0 C4.29 0 8.58 0 13 0 C13 0.33 13 0.66 13 1 C11.02 1.33 9.04 1.66 7 2 C7 2.99 7 3.98 7 5 C7.66 5 8.32 5 9 5 C9.33 4.01 9.66 3.02 10 2 C10.33 2.66 10.66 3.32 11 4 C13.52733235 4.65555119 13.52733235 4.65555119 16 5 C15.67 3.35 15.34 1.7 15 0 C16.98 0 18.96 0 21 0 C21 1.98 21 3.96 21 6 C11.43 6 1.86 6 -8 6 C-7.67 4.68 -7.34 3.36 -7 2 C-6.34 2.66 -5.68 3.32 -5 4 C-4.34 4.33 -3.68 4.66 -3 5 C-2.67 4.01 -2.34 3.02 -2 2 C-1.67 2.33 -1.34 2.66 -1 3 C-0.34 2.67 0.32 2.34 1 2 C1.99 2.99 2.98 3.98 4 5 C4 3.68 4 2.36 4 1 C2.68 0.67 1.36 0.34 0 0 Z " fill="#D99D0E" transform="translate(58,81)"/>
<path d="M0 0 C5.39939136 1.0240225 10.35174216 2.44291709 15.5 4.375 C23.50575405 7.32679334 31.6716582 9.19518985 40 11 C40 11.66 40 12.32 40 13 C25.73602866 12.66757694 12.24355031 6.86286613 -1 2 C-0.67 1.34 -0.34 0.68 0 0 Z " fill="#E8A807" transform="translate(23,200)"/>
<path d="M0 0 C7.875 0.875 7.875 0.875 9 2 C9.14115161 4.67058851 9.04247107 7.32432238 9 10 C6.03 10.66 3.06 11.32 0 12 C-1.03159626 8.90521121 -0.97482862 7.47368607 -0.5625 4.3125 C-0.46066406 3.50425781 -0.35882813 2.69601563 -0.25390625 1.86328125 C-0.17011719 1.24839844 -0.08632812 0.63351563 0 0 Z " fill="#E0AF2C" transform="translate(81,78)"/>
<path d="M0 0 C0 0.33 0 0.66 0 1 C-0.61488281 1.13277344 -1.22976563 1.26554688 -1.86328125 1.40234375 C-3.07564453 1.66724609 -3.07564453 1.66724609 -4.3125 1.9375 C-5.11300781 2.11152344 -5.91351563 2.28554687 -6.73828125 2.46484375 C-9.145401 2.99886159 -9.145401 2.99886159 -12 4 C-12 4.55461914 -12 5.10923828 -12 5.68066406 C-12 12.78710938 -12 19.89355469 -12 27 C-14 28.75 -14 28.75 -16 30 C-15.74476562 28.30617187 -15.74476562 28.30617187 -15.484375 26.578125 C-15.0949484 23.48722154 -14.96950883 20.5346555 -15.078125 17.421875 C-15.10390625 16.65359375 -15.1296875 15.8853125 -15.15625 15.09375 C-15.2194018 13.51495493 -15.29784082 11.93670601 -15.390625 10.359375 C-15.54639689 4.59581504 -15.54639689 4.59581504 -12.7109375 1.50390625 C-8.41721185 -0.87805971 -4.67904519 -1.55968173 0 0 Z " fill="#EBAB05" transform="translate(16,174)"/>
<path d="M0 0 C4.62 0 9.24 0 14 0 C12 5 12 5 9 7 C6.0625 7.375 6.0625 7.375 3 7 C0.625 5 0.625 5 -1 3 C-0.67 2.01 -0.34 1.02 0 0 Z " fill="#EAA905" transform="translate(54,89)"/>
<path d="M0 0 C0.33 0.66 0.66 1.32 1 2 C1.66 2.33 2.32 2.66 3 3 C2.3125 4.9375 2.3125 4.9375 1 7 C-1.625 7.75 -1.625 7.75 -4 8 C-2.68 8 -1.36 8 0 8 C0.33 9.32 0.66 10.64 1 12 C-1.97 12 -4.94 12 -8 12 C-8 8.7 -8 5.4 -8 2 C-5.33333333 2 -2.66666667 2 0 2 C0 1.34 0 0.68 0 0 Z " fill="#F8CC2B" transform="translate(48,63)"/>
<path d="M0 0 C0 0.99 0 1.98 0 3 C2.475 3.99 2.475 3.99 5 5 C4.67 6.65 4.34 8.3 4 10 C3.34 9.67 2.68 9.34 2 9 C2.33 8.01 2.66 7.02 3 6 C0.92022703 7.22590192 0.92022703 7.22590192 -1 9 C-1 10.32 -1 11.64 -1 13 C-2.875 12.75 -2.875 12.75 -5 12 C-6.25 9.9375 -6.25 9.9375 -7 8 C-5.68 7.67 -4.36 7.34 -3 7 C-3.33 6.01 -3.66 5.02 -4 4 C-6.50447516 2.78130071 -6.50447516 2.78130071 -9 2 C-5.5647952 -0.29013653 -4.014669 -0.17842973 0 0 Z " fill="#DB9E0E" transform="translate(80,192)"/>
<path d="M0 0 C1.70159453 13.6332574 1.70159453 13.6332574 -2 20 C-3.5078125 18.9375 -3.5078125 18.9375 -5 17 C-5.1796875 13.75 -5.1796875 13.75 -4.875 10 C-4.78992187 8.7625 -4.70484375 7.525 -4.6171875 6.25 C-4.11814157 3.62211256 -3.39433985 0 0 0 Z " fill="#FDD22A" transform="translate(49,39)"/>
<path d="M0 0 C0 0.66 0 1.32 0 2 C0.66 2.33 1.32 2.66 2 3 C2 6.33333333 2 9.66666667 2 13 C0.33333333 13 -1.33333333 13 -3 13 C-2.67 10.69 -2.34 8.38 -2 6 C-3.32 6 -4.64 6 -6 6 C-6 4.68 -6 3.36 -6 2 C-6.66 2 -7.32 2 -8 2 C-8 1.34 -8 0.68 -8 0 C-5.13822943 -1.43088528 -3.06624227 -0.59991697 0 0 Z " fill="#F0C32C" transform="translate(47,8)"/>
<path d="M0 0 C7.26 0 14.52 0 22 0 C21.67 1.65 21.34 3.3 21 5 C20.67 3.68 20.34 2.36 20 1 C15.05 1.33 10.1 1.66 5 2 C5.66 3.98 6.32 5.96 7 8 C6.9765625 11.2109375 6.9765625 11.2109375 6.625 14.375 C6.51414062 15.43460938 6.40328125 16.49421875 6.2890625 17.5859375 C6.19367187 18.38257812 6.09828125 19.17921875 6 20 C5.67 20 5.34 20 5 20 C4.97421875 19.27554688 4.9484375 18.55109375 4.921875 17.8046875 C4.55325851 11.52145194 3.84149569 7.95676864 0 3 C0 2.01 0 1.02 0 0 Z " fill="#BC8918" transform="translate(49,88)"/>
<path d="M0 0 C1.32 0.66 2.64 1.32 4 2 C3.98839844 2.62648438 3.97679688 3.25296875 3.96484375 3.8984375 C3.95582031 4.71570313 3.94679688 5.53296875 3.9375 6.375 C3.92589844 7.18710938 3.91429688 7.99921875 3.90234375 8.8359375 C3.85533666 11.04937142 3.85533666 11.04937142 5 13 C5.99 12.67 6.98 12.34 8 12 C8.33 13.32 8.66 14.64 9 16 C8.34 16.33 7.68 16.66 7 17 C6.67 17.33 6.34 17.66 6 18 C5.34 18 4.68 18 4 18 C3.34 17.01 2.68 16.02 2 15 C1.01 15.66 0.02 16.32 -1 17 C-3.1875 16.625 -3.1875 16.625 -5 16 C-4.360625 15.71125 -3.72125 15.4225 -3.0625 15.125 C-0.84793921 14.17176549 -0.84793921 14.17176549 0 12 C0.66 12 1.32 12 2 12 C1.16666667 9.83333333 1.16666667 9.83333333 -1 9 C-0.01 8.67 0.98 8.34 2 8 C2 6.68 2 5.36 2 4 C1.01 4 0.02 4 -1 4 C-0.67 2.68 -0.34 1.36 0 0 Z " fill="#EFC12C" transform="translate(65,6)"/>
<path d="M0 0 C1.41655793 -0.0272415 2.83327045 -0.04650467 4.25 -0.0625 C5.43335937 -0.07990234 5.43335937 -0.07990234 6.640625 -0.09765625 C8.96285143 -0.00153761 10.8300721 0.15987305 13 1 C14.10966768 4.32900304 13.81550944 4.78295587 13 8 C12.93209325 10.24907152 12.91500016 12.50001605 12.9375 14.75 C12.95103516 16.50570312 12.95103516 16.50570312 12.96484375 18.296875 C12.97644531 19.18890625 12.98804687 20.0809375 13 21 C12.01 20.67 11.02 20.34 10 20 C9.97300275 17.72923158 9.95360547 15.45837179 9.9375 13.1875 C9.92589844 11.92292969 9.91429688 10.65835938 9.90234375 9.35546875 C10 6 10 6 11 3 C7.37 2.67 3.74 2.34 0 2 C0 1.34 0 0.68 0 0 Z " fill="#EDAA05" transform="translate(105,175)"/>
<path d="M0 0 C0.66 0.33 1.32 0.66 2 1 C-0.85064637 4.02881176 -3.81255092 6.77504073 -7.0625 9.375 C-8.03896484 10.16003906 -8.03896484 10.16003906 -9.03515625 10.9609375 C-11 12 -11 12 -13.18359375 11.7265625 C-15 11 -15 11 -16 10 C-16.04092937 7.66702567 -16.04241723 5.33294775 -16 3 C-15.34 3 -14.68 3 -14 3 C-13.67 4.65 -13.34 6.3 -13 8 C-9.89257577 6.53181332 -7.09528261 4.79975 -4.25 2.875 C-3.45078125 2.33617187 -2.6515625 1.79734375 -1.828125 1.2421875 C-0.92320313 0.62730469 -0.92320313 0.62730469 0 0 Z " fill="#E7A907" transform="translate(112,205)"/>
<path d="M0 0 C0.33 1.32 0.66 2.64 1 4 C1.33 2.68 1.66 1.36 2 0 C3.60031344 3.20062687 2.03173691 5.72271806 1 9 C0.34 7.68 -0.32 6.36 -1 5 C-1.33 7.64 -1.66 10.28 -2 13 C-4 10 -4 10 -4 8 C-4.33 8.66 -4.66 9.32 -5 10 C-5.66 9.67 -6.32 9.34 -7 9 C-6.67 6.36 -6.34 3.72 -6 1 C-3 0 -3 0 0 0 Z " fill="#EDBF2D" transform="translate(46,22)"/>
<path d="M0 0 C1.47906892 -0.02689216 2.95827483 -0.04634621 4.4375 -0.0625 C5.26121094 -0.07410156 6.08492188 -0.08570312 6.93359375 -0.09765625 C9 0 9 0 10 1 C10.07244053 3.01964199 10.08377188 5.04167124 10.0625 7.0625 C10.05347656 8.16722656 10.04445313 9.27195312 10.03515625 10.41015625 C10.02355469 11.26480469 10.01195313 12.11945313 10 13 C9.01 13 8.02 13 7 13 C7 15.97 7 18.94 7 22 C6.67 22 6.34 22 6 22 C6 19.36 6 16.72 6 14 C4.68 13.67 3.36 13.34 2 13 C2.66 12.34 3.32 11.68 4 11 C5.32 11 6.64 11 8 11 C8 8.03 8 5.06 8 2 C7.01 2 6.02 2 5 2 C5 3.65 5 5.3 5 7 C4.67 7 4.34 7 4 7 C4 5.35 4 3.7 4 2 C2.68 1.34 1.36 0.68 0 0 Z " fill="#D3A230" transform="translate(74,65)"/>
<path d="M0 0 C2.97 0.495 2.97 0.495 6 1 C5.98259766 1.95712891 5.98259766 1.95712891 5.96484375 2.93359375 C5.95582031 3.75988281 5.94679688 4.58617187 5.9375 5.4375 C5.92589844 6.26121094 5.91429687 7.08492187 5.90234375 7.93359375 C5.76732652 9.99163938 5.76732652 9.99163938 7 11 C7.33 10.01 7.66 9.02 8 8 C9.08318916 11.61063054 8.66411561 12.67176879 7 16 C7.27942455 17.67654729 7.60828247 19.34608154 8 21 C3.67624724 15.83939187 2.75462108 12.74792033 3 6 C3.33 5.34 3.66 4.68 4 4 C2.68 3.34 1.36 2.68 0 2 C0 1.34 0 0.68 0 0 Z " fill="#D3A131" transform="translate(34,21)"/>
<path d="M0 0 C2.56695636 0.39491636 4.67123994 0.83561997 7 2 C7.1875 4.375 7.1875 4.375 7 7 C6.01 7.66 5.02 8.32 4 9 C3.01 8.01 2.02 7.02 1 6 C1.66 7.65 2.32 9.3 3 11 C2.34 11.66 1.68 12.32 1 13 C-1.60585556 9.09121666 -1.22321871 5.53878034 -1 1 C-0.67 0.67 -0.34 0.34 0 0 Z " fill="#F4C72B" transform="translate(80,11)"/>
<path d="M0 0 C1.2065625 0.0309375 1.2065625 0.0309375 2.4375 0.0625 C2.4375 0.3925 2.4375 0.7225 2.4375 1.0625 C5.4075 1.5575 5.4075 1.5575 8.4375 2.0625 C7.7775 4.0425 7.1175 6.0225 6.4375 8.0625 C5.7775 8.0625 5.1175 8.0625 4.4375 8.0625 C4.1075 6.7425 3.7775 5.4225 3.4375 4.0625 C1.99552132 5.50447868 1.31963756 7.23941571 0.4375 9.0625 C-2.0375 8.0725 -2.0375 8.0725 -4.5625 7.0625 C-4.5625 6.4025 -4.5625 5.7425 -4.5625 5.0625 C-3.9025 5.0625 -3.2425 5.0625 -2.5625 5.0625 C-2.8409375 4.1034375 -2.8409375 4.1034375 -3.125 3.125 C-3.3415625 2.1040625 -3.3415625 2.1040625 -3.5625 1.0625 C-2.5625 0.0625 -2.5625 0.0625 0 0 Z " fill="#F1C42C" transform="translate(54.5625,1.9375)"/>
<path d="M0 0 C0 3.96 0 7.92 0 12 C-2.97 11.505 -2.97 11.505 -6 11 C-6.33 8.03 -6.66 5.06 -7 2 C-2.25 0 -2.25 0 0 0 Z " fill="#C79018" transform="translate(97,185)"/>
<path d="M0 0 C1.32 0 2.64 0 4 0 C4.625 1.875 4.625 1.875 5 4 C4.34 4.66 3.68 5.32 3 6 C2.3574765 8.06874034 2.3574765 8.06874034 2 10 C1.401875 9.67 0.80375 9.34 0.1875 9 C-2.05386471 7.79212012 -2.05386471 7.79212012 -5 8 C-5 6.35 -5 4.7 -5 3 C-3.35 2.67 -1.7 2.34 0 2 C0 1.34 0 0.68 0 0 Z " fill="#EDBF2D" transform="translate(75,7)"/>
<path d="M0 0 C0.99 0 1.98 0 3 0 C3.16858098 2.0831793 3.33479255 4.16655044 3.5 6.25 C3.5928125 7.41015625 3.685625 8.5703125 3.78125 9.765625 C3.94404644 12.17268658 4 14.58743951 4 17 C2.68 17 1.36 17 0 17 C0 11.39 0 5.78 0 0 Z " fill="#FDD22A" transform="translate(58,45)"/>
<path d="M0 0 C0.66 0 1.32 0 2 0 C3.32229189 2.64458379 3.09677194 4.67761301 3.0625 7.625 C3.05347656 8.62789062 3.04445313 9.63078125 3.03515625 10.6640625 C3.02355469 11.43492188 3.01195313 12.20578125 3 13 C3.66 13 4.32 13 5 13 C5 15.66666667 5 18.33333333 5 21 C2.23316924 18.61046434 1.11794947 16.46949836 0 13 C-0.1953125 9.66796875 -0.1953125 9.66796875 -0.125 6.1875 C-0.10695313 5.02605469 -0.08890625 3.86460938 -0.0703125 2.66796875 C-0.04710938 1.78753906 -0.02390625 0.90710937 0 0 Z " fill="#FCD12A" transform="translate(69,41)"/>
<path d="M0 0 C-0.33 0.66 -0.66 1.32 -1 2 C-2.32 2 -3.64 2 -5 2 C-5 2.66 -5 3.32 -5 4 C-5.66 4 -6.32 4 -7 4 C-7.66 2.68 -8.32 1.36 -9 0 C-9.69867188 0.02320313 -10.39734375 0.04640625 -11.1171875 0.0703125 C-12.02726563 0.08835938 -12.93734375 0.10640625 -13.875 0.125 C-14.77992187 0.14820313 -15.68484375 0.17140625 -16.6171875 0.1953125 C-19 0 -19 0 -21 -2 C-13.62617707 -4.45794098 -6.92742398 -3.0788551 0 0 Z " fill="#D89B10" transform="translate(24,199)"/>
<path d="M0 0 C0.85658203 0.30744141 0.85658203 0.30744141 1.73046875 0.62109375 C8.79586515 2.96873739 15.58380566 3.66290026 23 4 C22.67 4.66 22.34 5.32 22 6 C13.55666209 6.42691034 7.24096313 6.63421641 0 2 C0 1.34 0 0.68 0 0 Z " fill="#E9A906" transform="translate(40,183)"/>
<path d="M0 0 C3 2 3 2 3.6875 5.125 C3.8421875 6.548125 3.8421875 6.548125 4 8 C4.53625 7.67 5.0725 7.34 5.625 7 C8.5391061 5.77300796 10.86867708 5.85766714 14 6 C14.2475 6.639375 14.495 7.27875 14.75 7.9375 C15.81562433 10.18741541 15.81562433 10.18741541 18.125 10.75 C18.74375 10.8325 19.3625 10.915 20 11 C19.67 11.66 19.34 12.32 19 13 C16.5625 12.25 16.5625 12.25 14 11 C13.1875 8.875 13.1875 8.875 13 7 C11.68 7 10.36 7 9 7 C9 7.66 9 8.32 9 9 C7.68 9.33 6.36 9.66 5 10 C4.67 11.65 4.34 13.3 4 15 C3.67 15 3.34 15 3 15 C2.87625 13.96875 2.7525 12.9375 2.625 11.875 C2.06051147 8.37517112 1.16311332 5.33425817 0 2 C0 1.34 0 0.68 0 0 Z " fill="#D3A130" transform="translate(66,0)"/>
<path d="M0 0 C1.32 0 2.64 0 4 0 C4 2.97 4 5.94 4 9 C2.33388095 9.042721 0.66617115 9.04063832 -1 9 C-2 8 -2 8 -2.1875 5.0625 C-2 2 -2 2 0 0 Z " fill="#E3A40A" transform="translate(32,79)"/>
<path d="M0 0 C0 1.32 0 2.64 0 4 C-3 3 -3 3 -4 2 C-4.99 2.66 -5.98 3.32 -7 4 C-12.34545455 4.32727273 -12.34545455 4.32727273 -15 3 C-15 2.01 -15 1.02 -15 0 C-9.76528314 -0.75612577 -5.22745859 -1.2063366 0 0 Z " fill="#755444" transform="translate(62,82)"/>
<path d="M0 0 C4.95 0 9.9 0 15 0 C15 0.33 15 0.66 15 1 C12.03 1 9.06 1 6 1 C6.33 2.65 6.66 4.3 7 6 C4.69 6 2.38 6 0 6 C0 4.02 0 2.04 0 0 Z " fill="#E6A706" transform="translate(41,81)"/>
<path d="M0 0 C1.61949011 2.57213134 2.04408751 3.67669159 1.625 6.75 C1.41875 7.4925 1.2125 8.235 1 9 C5.455 9.99 5.455 9.99 10 11 C10 11.33 10 11.66 10 12 C2.74418605 12.48372093 2.74418605 12.48372093 -0.5 10.375 C-2.41140736 7.34860502 -2.45892595 5.51843231 -2 2 C-1.34 1.34 -0.68 0.68 0 0 Z " fill="#EDBF2D" transform="translate(39,66)"/>
<path d="M0 0 C0.99 0.33 1.98 0.66 3 1 C3 3.64 3 6.28 3 9 C2.34 9 1.68 9 1 9 C1 11.97 1 14.94 1 18 C-1.09390269 13.81219462 -1.24382711 11.8852371 -1.1875 7.3125 C-1.18105469 6.15363281 -1.17460938 4.99476562 -1.16796875 3.80078125 C-1 1 -1 1 0 0 Z " fill="#FBCF2A" transform="translate(65,41)"/>
<path d="M0 0 C0.99 0.33 1.98 0.66 3 1 C3.28780586 4.05074215 3.45787911 6.96183742 3 10 C0.5 12.0625 0.5 12.0625 -2 13 C-1.34 10.69 -0.68 8.38 0 6 C-3.3 5.67 -6.6 5.34 -10 5 C-10 4.67 -10 4.34 -10 4 C-6.7 4 -3.4 4 0 4 C0 2.68 0 1.36 0 0 Z " fill="#D49812" transform="translate(115,195)"/>
<path d="M0 0 C1.65 0 3.3 0 5 0 C5 2.64 5 5.28 5 8 C3.35 8 1.7 8 0 8 C0 5.36 0 2.72 0 0 Z " fill="#EBAA05" transform="translate(85,80)"/>
<path d="M0 0 C0.66 0 1.32 0 2 0 C2 2.97 2 5.94 2 9 C2.66 9.33 3.32 9.66 4 10 C3.67 10.66 3.34 11.32 3 12 C0.36 11.34 -2.28 10.68 -5 10 C-4.360625 9.835 -3.72125 9.67 -3.0625 9.5 C-0.83880759 8.218214 -0.83880759 8.218214 -0.51171875 6.0859375 C-0.2724022 4.06424845 -0.13106972 2.03158061 0 0 Z " fill="#1F1572" transform="translate(45,196)"/>
<path d="M0 0 C0.33 0.66 0.66 1.32 1 2 C1.99 2.66 2.98 3.32 4 4 C3.67 4.66 3.34 5.32 3 6 C2.01 6 1.02 6 0 6 C0.33 6.66 0.66 7.32 1 8 C0.34 8 -0.32 8 -1 8 C-1.33 8.66 -1.66 9.32 -2 10 C-2.33 8.02 -2.66 6.04 -3 4 C-3.66 4.66 -4.32 5.32 -5 6 C-5.66 4.68 -6.32 3.36 -7 2 C-4 0 -4 0 0 0 Z " fill="#F0C32C" transform="translate(59,24)"/>
<path d="M0 0 C0.33 0.66 0.66 1.32 1 2 C-0.32 2 -1.64 2 -3 2 C-3 2.99 -3 3.98 -3 5 C-4.75 6.75 -4.75 6.75 -7 8 C-9.25 7.6875 -9.25 7.6875 -11 7 C-10.67 5.68 -10.34 4.36 -10 3 C-8.68 3 -7.36 3 -6 3 C-6 2.34 -6 1.68 -6 1 C-4.02 0.67 -2.04 0.34 0 0 Z " fill="#BB871F" transform="translate(45,191)"/>
<path d="M0 0 C2.41793589 1.20896794 2.79103206 1.58206411 4 4 C6.52733235 4.65555119 6.52733235 4.65555119 9 5 C6.11371599 6.57554035 3.46657616 7.46276373 0.25 8.125 C-0.54921875 8.29257812 -1.3484375 8.46015625 -2.171875 8.6328125 C-2.77515625 8.75398438 -3.3784375 8.87515625 -4 9 C-3.67 8.01 -3.34 7.02 -3 6 C-2.01 6 -1.02 6 0 6 C-0.2784375 4.7934375 -0.2784375 4.7934375 -0.5625 3.5625 C-0.706875 2.716875 -0.85125 1.87125 -1 1 C-0.67 0.67 -0.34 0.34 0 0 Z " fill="#D4A231" transform="translate(62,35)"/>
<path d="M0 0 C0.66 0 1.32 0 2 0 C1.34 3.63 0.68 7.26 0 11 C-3.62326739 12.2077558 -4.64146369 11.54311128 -8 10 C-7.34 9.34 -6.68 8.68 -6 8 C-5.01 8.33 -4.02 8.66 -3 9 C-2.814375 8.1646875 -2.814375 8.1646875 -2.625 7.3125 C-1.94023145 4.77885636 -1.00866237 2.42078968 0 0 Z " fill="#211671" transform="translate(24,187)"/>
<path d="M0 0 C0.66 0 1.32 0 2 0 C2 0.66 2 1.32 2 2 C2.99 2 3.98 2 5 2 C5 1.34 5 0.68 5 0 C6.32 0.66 7.64 1.32 9 2 C8.67 2.66 8.34 3.32 8 4 C8 4.66 8 5.32 8 6 C7.34 6 6.68 6 6 6 C6 6.66 6 7.32 6 8 C6.66 8.33 7.32 8.66 8 9 C7.01 9.33 6.02 9.66 5 10 C4.67 8.02 4.34 6.04 4 4 C3.01 4.66 2.02 5.32 1 6 C-0.0625 4.125 -0.0625 4.125 -1 2 C-0.67 1.34 -0.34 0.68 0 0 Z " fill="#E4B42E" transform="translate(44,36)"/>
<path d="M0 0 C0.99 0.33 1.98 0.66 3 1 C3 4.3 3 7.6 3 11 C2.34 9.68 1.68 8.36 1 7 C0.34 6.34 -0.32 5.68 -1 5 C-1 5.99 -1 6.98 -1 8 C-2.32 7.67 -3.64 7.34 -5 7 C-4.67 6.01 -4.34 5.02 -4 4 C-3.01 4 -2.02 4 -1 4 C-1.33 3.01 -1.66 2.02 -2 1 C-1.34 0.67 -0.68 0.34 0 0 Z " fill="#F6CA2B" transform="translate(37,10)"/>
<path d="M0 0 C0 1.32 0 2.64 0 4 C-3 4 -6 4 -9 4 C-9 3.01 -9 2.02 -9 1 C-9.66 0.67 -10.32 0.34 -11 0 C-9.54263913 -0.19491452 -8.08405407 -0.38069358 -6.625 -0.5625 C-5.81289062 -0.66691406 -5.00078125 -0.77132812 -4.1640625 -0.87890625 C-2 -1 -2 -1 0 0 Z " fill="#7C5940" transform="translate(74,82)"/>
<path d="M0 0 C0.99 0.33 1.98 0.66 3 1 C3.33 2.98 3.66 4.96 4 7 C2.68 7.33 1.36 7.66 0 8 C-1.32 6.02 -2.64 4.04 -4 2 C-3.01 2 -2.02 2 -1 2 C-0.67 2.33 -0.34 2.66 0 3 C0 2.01 0 1.02 0 0 Z " fill="#E3B32F" transform="translate(36,15)"/>
<path d="M0 0 C2.0078125 0.23046875 2.0078125 0.23046875 5.0078125 2.23046875 C-1.95998153 3.55766761 -8.92207661 3.31872256 -15.9921875 3.23046875 C-15.9921875 2.90046875 -15.9921875 2.57046875 -15.9921875 2.23046875 C-15.03505859 2.13958984 -15.03505859 2.13958984 -14.05859375 2.046875 C-12.81916016 1.92119141 -12.81916016 1.92119141 -11.5546875 1.79296875 C-10.73097656 1.71175781 -9.90726563 1.63054687 -9.05859375 1.546875 C-5.92378143 1.06687538 -3.52163178 0.07147223 0 0 Z " fill="#CA9217" transform="translate(68.9921875,186.76953125)"/>
<path d="M0 0 C0.33 0 0.66 0 1 0 C1 3.63 1 7.26 1 11 C-3 11 -3 11 -5.25 9.1875 C-7 7 -7 7 -7 4 C-5.68 3.67 -4.36 3.34 -3 3 C-2.67 5.31 -2.34 7.62 -2 10 C-1.34 10 -0.68 10 0 10 C0 6.7 0 3.4 0 0 Z " fill="#523B57" transform="translate(70,195)"/>
<path d="M0 0 C-3.26737303 3.26737303 -6.83168198 3.95672896 -11.375 4.125 C-12.24125 4.08375 -13.1075 4.0425 -14 4 C-14 3.34 -14 2.68 -14 2 C-12.42085985 1.46658816 -10.83645613 0.94874237 -9.25 0.4375 C-8.36828125 0.14746094 -7.4865625 -0.14257812 -6.578125 -0.44140625 C-3.92165684 -1.01697435 -2.52968894 -0.89248371 0 0 Z " fill="#E9A906" transform="translate(85,184)"/>
<path d="M0 0 C1.125 1.75 1.125 1.75 2 4 C1.125 6.25 1.125 6.25 0 8 C-1.32 7.67 -2.64 7.34 -4 7 C-4.33 5.35 -4.66 3.7 -5 2 C-3.35 2 -1.7 2 0 2 C0 1.34 0 0.68 0 0 Z " fill="#C18B1C" transform="translate(21,188)"/>
<path d="M0 0 C0.598125 0.309375 1.19625 0.61875 1.8125 0.9375 C4.08956772 2.10209704 4.08956772 2.10209704 7 3 C6.34 5.31 5.68 7.62 5 10 C2.81434857 7.81434857 1.45914246 5.71931095 0 3 C0 2.01 0 1.02 0 0 Z " fill="#E0AF2F" transform="translate(73,27)"/>
<path d="M0 0 C0 2.97 0 5.94 0 9 C-0.99 9 -1.98 9 -3 9 C-3.66 6.36 -4.32 3.72 -5 1 C-1 0 -1 0 0 0 Z " fill="#D59A11" transform="translate(44,195)"/>
<path d="M0 0 C1.98 0.495 1.98 0.495 4 1 C4.33 3.64 4.66 6.28 5 9 C3.02 9 1.04 9 -1 9 C-0.34 8.67 0.32 8.34 1 8 C1.20970559 3.85906302 1.20970559 3.85906302 0 0 Z " fill="#926934" transform="translate(87,188)"/>
<path d="M0 0 C0.66 0.99 1.32 1.98 2 3 C2.66 3 3.32 3 4 3 C3.67 3.99 3.34 4.98 3 6 C2.34 5.67 1.68 5.34 1 5 C0.34 6.65 -0.32 8.3 -1 10 C-1.99 10 -2.98 10 -4 10 C-3.52449439 8.51965236 -3.04448784 7.04074979 -2.5625 5.5625 C-2.29566406 4.73878906 -2.02882813 3.91507812 -1.75390625 3.06640625 C-1 1 -1 1 0 0 Z " fill="#E3B32F" transform="translate(67,69)"/>
<path d="M0 0 C1.65 0.99 3.3 1.98 5 3 C4.67 4.65 4.34 6.3 4 8 C3.01 7.67 2.02 7.34 1 7 C1.33 6.34 1.66 5.68 2 5 C1.34 5 0.68 5 0 5 C-0.33 4.01 -0.66 3.02 -1 2 C-0.67 1.34 -0.34 0.68 0 0 Z " fill="#D8A630" transform="translate(66,30)"/>
<path d="M0 0 C1.65 1.32 3.3 2.64 5 4 C5.66 3.67 6.32 3.34 7 3 C6.67 4.65 6.34 6.3 6 8 C3 7 3 7 1 5 C-0.32 5 -1.64 5 -3 5 C-2.67 3.68 -2.34 2.36 -2 1 C-2 1.99 -2 2.98 -2 4 C-1.34 4 -0.68 4 0 4 C0 2.68 0 1.36 0 0 Z " fill="#DAA830" transform="translate(61,6)"/>
<path d="M0 0 C1.32 0.66 2.64 1.32 4 2 C4 4.31 4 6.62 4 9 C2.35 9.33 0.7 9.66 -1 10 C-0.67 9.34 -0.34 8.68 0 8 C0.66 8 1.32 8 2 8 C2 6.68 2 5.36 2 4 C1.01 4 0.02 4 -1 4 C-0.67 2.68 -0.34 1.36 0 0 Z " fill="#F6CA2B" transform="translate(65,6)"/>
<path d="M0 0 C2.42130331 2.42130331 2.52840504 3.80111377 3.125 7.125 C3.29257812 8.03507813 3.46015625 8.94515625 3.6328125 9.8828125 C3.81457031 10.93082031 3.81457031 10.93082031 4 12 C3.34 12 2.68 12 2 12 C1.01 8.37 0.02 4.74 -1 1 C-0.67 0.67 -0.34 0.34 0 0 Z " fill="#ECAE05" transform="translate(19,202)"/>
<path d="M0 0 C0 2.97 0 5.94 0 9 C-0.66 9 -1.32 9 -2 9 C-2.12375 7.865625 -2.2475 6.73125 -2.375 5.5625 C-2.58125 4.386875 -2.7875 3.21125 -3 2 C-3.66 1.67 -4.32 1.34 -5 1 C-2 0 -2 0 0 0 Z " fill="#DDA00D" transform="translate(70,196)"/>
<path d="M0 0 C1.98 0 3.96 0 6 0 C6 1.65 6 3.3 6 5 C4.35 5 2.7 5 1 5 C0.67 3.35 0.34 1.7 0 0 Z " fill="#EEAC04" transform="translate(73,81)"/>
<path d="M0 0 C0.33 0 0.66 0 1 0 C1 1.98 1 3.96 1 6 C1.66 6 2.32 6 3 6 C3.33 5.01 3.66 4.02 4 3 C4 4.65 4 6.3 4 8 C2.02 8.33 0.04 8.66 -2 9 C-1.855625 8.443125 -1.71125 7.88625 -1.5625 7.3125 C-0.97230872 4.88615805 -0.476571 2.45093655 0 0 Z " fill="#F2C52C" transform="translate(52,49)"/>
<path d="M0 0 C0.33 0 0.66 0 1 0 C1.33 4.62 1.66 9.24 2 14 C1.01 14.33 0.02 14.66 -1 15 C-1.02685412 12.68756208 -1.04632841 10.3750373 -1.0625 8.0625 C-1.07410156 6.77472656 -1.08570313 5.48695312 -1.09765625 4.16015625 C-1 1 -1 1 0 0 Z " fill="#EDBF2D" transform="translate(63,42)"/>
<path d="M0 0 C0.99 0 1.98 0 3 0 C3 0.99 3 1.98 3 3 C3.66 3 4.32 3 5 3 C5.33 3.66 5.66 4.32 6 5 C6.99 5.33 7.98 5.66 9 6 C9 6.66 9 7.32 9 8 C7.68 8 6.36 8 5 8 C5 7.34 5 6.68 5 6 C4.01 6 3.02 6 2 6 C1.34 4.02 0.68 2.04 0 0 Z " fill="#F0C22C" transform="translate(50,15)"/>
<path d="M0 0 C0.66 0 1.32 0 2 0 C1.4739075 3.78786597 0.61896089 6.17152224 -2 9 C-2.66 9 -3.32 9 -4 9 C-4.33 6.69 -4.66 4.38 -5 2 C-3.02 2.99 -3.02 2.99 -1 4 C-0.67 2.68 -0.34 1.36 0 0 Z " fill="#D9A82F" transform="translate(86,15)"/>
<path d="M0 0 C0.66 0 1.32 0 2 0 C2 3.96 2 7.92 2 12 C1.34 12 0.68 12 0 12 C-0.19477739 10.37585622 -0.38059458 8.75063577 -0.5625 7.125 C-0.66691406 6.22007812 -0.77132812 5.31515625 -0.87890625 4.3828125 C-1 2 -1 2 0 0 Z " fill="#DDA00D" transform="translate(95,185)"/>
<path d="M0 0 C0.66 0 1.32 0 2 0 C2 0.99 2 1.98 2 3 C2.99 3 3.98 3 5 3 C4.67 4.32 4.34 5.64 4 7 C2.33333333 7 0.66666667 7 -1 7 C-1.04254356 5.00045254 -1.04080783 2.99958364 -1 1 C-0.67 0.67 -0.34 0.34 0 0 Z " fill="#FACE2A" transform="translate(73,69)"/>
<path d="M0 0 C0 2.31 0 4.62 0 7 C-0.99 7 -1.98 7 -3 7 C-3 5.68 -3 4.36 -3 3 C-3.66 3 -4.32 3 -5 3 C-5 2.34 -5 1.68 -5 1 C-3 0 -3 0 0 0 Z " fill="#F9CD2B" transform="translate(44,7)"/>
<path d="M0 0 C0.33 0 0.66 0 1 0 C1 3.63 1 7.26 1 11 C0.34 11 -0.32 11 -1 11 C-1.33 11.66 -1.66 12.32 -2 13 C-2.625 10.6875 -2.625 10.6875 -3 8 C-2.34 7.01 -1.68 6.02 -1 5 C-0.61500109 3.34450469 -0.27206865 1.6777567 0 0 Z " fill="#DEAD2F" transform="translate(68,42)"/>
<path d="M0 0 C1.32 0 2.64 0 4 0 C4.33 1.32 4.66 2.64 5 4 C3.35 4.66 1.7 5.32 0 6 C-1.125 2.25 -1.125 2.25 0 0 Z " fill="#FACF2A" transform="translate(75,7)"/>
<path d="M0 0 C0.99 0.33 1.98 0.66 3 1 C3 3.97 3 6.94 3 10 C2.01 10 1.02 10 0 10 C0 6.7 0 3.4 0 0 Z " fill="#EDBF2D" transform="translate(72,44)"/>
<path d="M0 0 C0.99 0.33 1.98 0.66 3 1 C2.34 2.65 1.68 4.3 1 6 C0.34 5.01 -0.32 4.02 -1 3 C-3.97 5.475 -3.97 5.475 -7 8 C-5.51218185 4.21282653 -3.38011591 2.22592999 0 0 Z " fill="#281C6D" transform="translate(18,66)"/>
<path d="M0 0 C0.99 0.99 1.98 1.98 3 3 C2.67 3.99 2.34 4.98 2 6 C1.34 6 0.68 6 0 6 C-0.33 6.99 -0.66 7.98 -1 9 C-1.66 7.35 -2.32 5.7 -3 4 C-2.01 3.67 -1.02 3.34 0 3 C0 2.01 0 1.02 0 0 Z " fill="#F0C22C" transform="translate(44,56)"/>
<path d="M0 0 C0.99 0.33 1.98 0.66 3 1 C3.1875 3.375 3.1875 3.375 3 6 C2.01 6.66 1.02 7.32 0 8 C-0.38063221 5.6739143 -0.71269945 3.33944736 -1 1 C-0.67 0.67 -0.34 0.34 0 0 Z " fill="#E9B92E" transform="translate(84,12)"/>
<path d="M0 0 C3.3 0 6.6 0 10 0 C6.39338934 1.80330533 3.91606575 2.46599103 0 3 C0 2.01 0 1.02 0 0 Z " fill="#D59A11" transform="translate(59,194)"/>
<path d="M0 0 C0.99 0.33 1.98 0.66 3 1 C3 2.65 3 4.3 3 6 C2.01 6 1.02 6 0 6 C0 5.01 0 4.02 0 3 C-0.66 3 -1.32 3 -2 3 C-2 2.34 -2 1.68 -2 1 C-1.34 0.67 -0.68 0.34 0 0 Z " fill="#E8B92D" transform="translate(75,66)"/>
<path d="M0 0 C0.66 0.33 1.32 0.66 2 1 C2.4140625 3.06640625 2.4140625 3.06640625 2.625 5.5625 C2.69976562 6.38878906 2.77453125 7.21507812 2.8515625 8.06640625 C2.90054688 8.70449219 2.94953125 9.34257812 3 10 C1.35 8.35 -0.3 6.7 -2 5 C-1.34 4.34 -0.68 3.68 0 3 C0 2.01 0 1.02 0 0 Z " fill="#D7A531" transform="translate(77,20)"/>
<path d="M0 0 C1.65 0 3.3 0 5 0 C4.67 2.31 4.34 4.62 4 7 C3.34 7 2.68 7 2 7 C2 5.35 2 3.7 2 2 C1.34 2 0.68 2 0 2 C0 1.34 0 0.68 0 0 Z " fill="#E4A509" transform="translate(84,189)"/>
<path d="M0 0 C0 0.66 0 1.32 0 2 C-0.66 2.66 -1.32 3.32 -2 4 C-2 4.33 -2 4.66 -2 5 C-3.65 5 -5.3 5 -7 5 C-5.22678182 1.07358831 -4.52021524 0 0 0 Z " fill="#E8B92E" transform="translate(79,60)"/>
<path d="M0 0 C1.98 0.495 1.98 0.495 4 1 C3.67 1.66 3.34 2.32 3 3 C2.67 3.99 2.34 4.98 2 6 C1.01 6 0.02 6 -1 6 C-0.67 4.02 -0.34 2.04 0 0 Z " fill="#DEAD2F" transform="translate(72,37)"/>
<path d="M0 0 C2.31 0 4.62 0 7 0 C6.34 1.98 5.68 3.96 5 6 C4.34 6 3.68 6 3 6 C2.814375 5.071875 2.814375 5.071875 2.625 4.125 C2.12802644 1.80879168 2.12802644 1.80879168 0 0 Z " fill="#FCD12A" transform="translate(56,4)"/>
<path d="M0 0 C0.66 0.33 1.32 0.66 2 1 C2 2.65 2 4.3 2 6 C1.01 6 0.02 6 -1 6 C-2 5 -3 4 -4 3 C-2.68 2.67 -1.36 2.34 0 2 C0 1.34 0 0.68 0 0 Z " fill="#EFC22C" transform="translate(64,29)"/>
<path d="M0 0 C2.97 0.495 2.97 0.495 6 1 C6 2.65 6 4.3 6 6 C5.34 6 4.68 6 4 6 C4 5.34 4 4.68 4 4 C2.68 3.34 1.36 2.68 0 2 C0 1.34 0 0.68 0 0 Z " fill="#CF9A32" transform="translate(34,21)"/>
<path d="M0 0 C0.66 0 1.32 0 2 0 C2.12375 0.61875 2.2475 1.2375 2.375 1.875 C2.87197356 4.19120832 2.87197356 4.19120832 5 6 C3.35 5.67 1.7 5.34 0 5 C-0.33 4.01 -0.66 3.02 -1 2 C-0.67 1.34 -0.34 0.68 0 0 Z " fill="#C28C1C" transform="translate(61,198)"/>
<path d="M0 0 C2.475 0.495 2.475 0.495 5 1 C4.67 2.65 4.34 4.3 4 6 C3.34 5.67 2.68 5.34 2 5 C2.33 4.01 2.66 3.02 3 2 C2.01 2.33 1.02 2.66 0 3 C0 2.01 0 1.02 0 0 Z " fill="#BA8620" transform="translate(80,196)"/>
<path d="M0 0 C0.99 0.33 1.98 0.66 3 1 C3 1.99 3 2.98 3 4 C1.35 4.33 -0.3 4.66 -2 5 C-1.34 3.35 -0.68 1.7 0 0 Z " fill="#F4C82B" transform="translate(68,74)"/>
<path d="M0 0 C1.32 0.99 2.64 1.98 4 3 C3.34 3 2.68 3 2 3 C2 3.66 2 4.32 2 5 C0.68 5 -0.64 5 -2 5 C-2 4.01 -2 3.02 -2 2 C-1.34 2 -0.68 2 0 2 C0 1.34 0 0.68 0 0 Z " fill="#D8A630" transform="translate(46,60)"/>
</svg>
