<svg xmlns="http://www.w3.org/2000/svg" width="690" height="362" viewBox="0 0 690 362" version="1.1"><path d="M 360.200 21.855 C 359.485 22.309, 358.827 23.652, 358.737 24.840 C 358.648 26.028, 357.995 27, 357.287 27 C 356.579 27, 356 27.675, 356 28.500 C 356 29.325, 356.615 30, 357.366 30 C 358.439 30, 358.625 31.504, 358.232 37 C 357.807 42.939, 357.972 44, 359.320 44 C 360.585 44, 360.969 42.627, 361.204 37.250 L 361.500 30.500 365 30.790 C 373.274 31.474, 373.977 31.858, 373.304 35.321 C 372.628 38.796, 371.317 40.140, 369 39.735 C 366.474 39.293, 367.230 35.661, 370 34.933 C 372.267 34.337, 372.324 34.201, 370.614 33.479 C 368.565 32.613, 366.225 33.696, 364.609 36.258 C 363.253 38.408, 366.410 42, 369.655 42 C 371.333 42, 372 42.569, 372 44 C 372 45.100, 372.441 46, 372.981 46 C 374.030 46, 374.615 44.138, 375.805 37 C 376.218 34.525, 376.884 32.586, 377.287 32.690 C 377.689 32.795, 380.088 33.191, 382.619 33.570 L 387.219 34.260 386.646 37.794 C 385.997 41.792, 384.688 43.543, 383.087 42.554 C 381.299 41.449, 381.856 38.851, 384 38.290 C 386.734 37.575, 386.528 36, 383.700 36 C 380.834 36, 379 37.756, 379 40.500 C 379 43.076, 380.796 45, 383.200 45 C 384.333 45, 385 45.741, 385 47 C 385 50.436, 386.872 49.188, 388 45 C 388.792 42.059, 389.596 41, 391.039 41 C 393.443 41, 393.560 42.724, 391.324 45.195 C 390.155 46.486, 389.965 47.365, 390.695 48.095 C 391.425 48.825, 392.388 48.323, 393.871 46.436 C 395.042 44.948, 396 43.341, 396 42.865 C 396 41.370, 391.973 37.899, 390.964 38.523 C 390.434 38.850, 390 38.416, 390 37.559 C 390 35.702, 390.735 35.653, 396.557 37.119 C 399.001 37.734, 401 38.789, 401 39.462 C 401 40.136, 400.137 43.195, 399.083 46.260 C 397.284 51.489, 397.284 53, 399.085 53 C 399.499 53, 400.810 50.075, 402 46.500 C 403.190 42.925, 404.366 40, 404.614 40 C 404.861 40, 406.659 40.667, 408.609 41.481 C 411 42.480, 412.047 43.511, 411.827 44.648 C 411.401 46.847, 409 47.641, 409 45.583 C 409 44.712, 408.550 44, 408 44 C 406.711 44, 406.733 47.499, 408.053 52.250 C 408.635 54.347, 409.724 56, 410.522 56 C 411.664 56, 411.743 55.453, 410.913 53.271 C 410.162 51.295, 410.191 50.436, 411.020 50.160 C 411.649 49.950, 412.917 48.540, 413.837 47.027 C 415.220 44.753, 415.909 44.422, 417.799 45.121 C 419.746 45.842, 419.923 46.276, 418.983 48.032 C 418.217 49.464, 417.284 49.908, 415.939 49.481 C 413.582 48.733, 413.402 49.842, 415.617 51.462 C 417.096 52.544, 417.100 52.906, 415.657 55.696 C 414.195 58.524, 414.325 60, 416.036 60 C 416.422 60, 417.930 57.253, 419.386 53.896 C 421.802 48.326, 422.251 47.846, 424.517 48.415 C 426.262 48.853, 427 48.628, 427 47.658 C 427 44.748, 400.994 34.656, 383.853 30.915 C 375.841 29.166, 374.472 28.530, 371.094 24.978 C 367.300 20.990, 363.350 19.857, 360.200 21.855 M 361.380 24.452 C 360.409 26.984, 361.979 28.001, 366.809 27.968 L 371.500 27.937 368.694 25.468 C 365.561 22.712, 362.226 22.248, 361.380 24.452 M 325 27.695 C 305.997 29.730, 275.495 38.522, 276.685 41.621 C 277.199 42.962, 278.367 42.900, 282.621 41.305 C 283.924 40.817, 285.286 43.728, 284.414 45.139 C 284.047 45.732, 283.319 45.679, 282.500 45 C 281.539 44.203, 280.990 44.208, 280.489 45.018 C 280.110 45.631, 279.957 46.264, 280.150 46.424 C 283.694 49.371, 289.456 52.836, 290.125 52.423 C 291.661 51.473, 291.073 50.354, 288.398 49.136 C 286.365 48.209, 286.042 47.654, 286.920 46.597 C 287.699 45.658, 287.740 44.446, 287.053 42.640 C 286.219 40.446, 286.393 39.860, 288.159 38.915 C 289.781 38.047, 290.448 38.099, 291.112 39.147 C 292.437 41.237, 292.157 43, 290.500 43 C 289.675 43, 289 43.450, 289 44 C 289 44.550, 289.923 45, 291.052 45 C 292.433 45, 293.446 45.981, 294.150 48 C 294.725 49.650, 295.875 51, 296.705 51 C 297.535 51, 298.006 50.437, 297.753 49.750 C 294.447 40.793, 293.821 37.727, 295.131 36.898 C 297.445 35.432, 299.741 35.902, 300.277 37.952 C 300.558 39.026, 300.273 40.122, 299.644 40.389 C 298.433 40.903, 301.588 44, 303.322 44 C 304.143 44, 303.955 40.849, 302.844 36 C 302.611 34.984, 303.284 34.500, 304.931 34.500 C 307.098 34.500, 307.512 35.178, 308.750 40.750 C 309.673 44.905, 310.624 47, 311.588 47 C 313.090 47, 313.047 46.472, 310.823 37.607 C 310.073 34.619, 310.155 33.518, 311.173 32.872 C 313.336 31.501, 313.805 31.833, 314.536 35.250 C 315.445 39.499, 316.740 41, 319.500 41 C 322.837 41, 324.229 38.736, 323.448 34.576 C 322.861 31.446, 323.026 31, 324.772 31 C 326.489 31, 326.864 31.905, 327.463 37.500 C 327.943 41.978, 328.583 44, 329.521 44 C 330.597 44, 330.760 42.528, 330.297 37 L 329.710 30 336.355 30 C 341.595 30, 343 30.317, 343 31.500 C 343 32.564, 341.910 33.004, 339.250 33.015 C 333.907 33.037, 332.649 34.055, 334.572 36.799 C 336.351 39.339, 338 39.676, 338 37.500 C 338 36.675, 338.413 36, 338.918 36 C 339.423 36, 340.521 35.737, 341.357 35.417 C 342.545 34.961, 342.945 35.762, 343.188 39.089 C 343.360 41.430, 344.063 43.530, 344.750 43.756 C 345.671 44.058, 346 42.303, 346 37.083 C 346 30.667, 346.188 30, 348 30 C 349.111 30, 350 29.333, 350 28.500 C 350 27.250, 348.210 27.027, 339.250 27.160 C 333.337 27.248, 326.925 27.489, 325 27.695 M 289.638 31.500 C 289.955 32.325, 290.841 33, 291.607 33 C 292.373 33, 293 32.325, 293 31.500 C 293 30.675, 292.115 30, 291.031 30 C 289.692 30, 289.247 30.480, 289.638 31.500 M 318.143 31.912 C 317.204 32.492, 316.998 33.713, 317.473 35.875 C 318.263 39.472, 321.037 40.174, 320.930 36.750 C 320.812 32.998, 319.650 30.980, 318.143 31.912 M 261.028 47.625 C 248.515 54.589, 226 71.537, 226 73.991 C 226 75.679, 227.776 75.975, 229.007 74.491 C 230.075 73.205, 230.705 73.411, 233.680 76.024 C 235.572 77.685, 237.591 78.753, 238.167 78.397 C 238.841 77.980, 238.974 78.507, 238.540 79.875 C 237.499 83.154, 239.730 82.422, 241.559 78.885 C 242.744 76.594, 243.465 76.065, 244.285 76.885 C 244.898 77.498, 245.760 78, 246.200 78 C 247.825 78, 246.911 75.726, 243.655 71.668 C 238.825 65.649, 238.759 65.388, 241.592 63.532 C 244.025 61.938, 244.239 61.945, 245.500 63.670 C 246.439 64.953, 246.526 65.866, 245.795 66.747 C 245 67.705, 245.489 68, 247.878 68 C 251.504 68, 251.669 67.412, 249 64 C 246.616 60.952, 246.496 59.407, 248.582 58.607 C 249.452 58.273, 250.305 58, 250.478 58 C 250.650 58, 252.274 60.362, 254.085 63.250 C 255.897 66.138, 257.526 68.695, 257.706 68.933 C 257.886 69.172, 258.475 68.925, 259.015 68.385 C 259.658 67.742, 258.815 65.528, 256.577 61.979 C 254.696 58.996, 253.379 56.195, 253.650 55.757 C 254.534 54.326, 264.354 49.101, 265.188 49.616 C 266.741 50.576, 265.979 51.696, 262.500 53.570 C 260.096 54.865, 259 56.159, 259 57.704 C 259 61.189, 266.699 65.198, 267.730 62.250 C 267.970 61.563, 267.504 61, 266.694 61 C 265.884 61, 264.202 60.174, 262.956 59.165 L 260.690 57.331 263.068 55.665 C 266.471 53.281, 267.420 53.561, 269.299 57.500 C 270.217 59.425, 271.425 61, 271.984 61 C 273.563 61, 273.219 59.491, 270.268 53.474 C 268.062 48.976, 267.798 47.743, 268.896 47.064 C 270.187 46.266, 269.661 43.987, 268.191 44.011 C 267.811 44.018, 264.588 45.644, 261.028 47.625 M 439.731 47.602 C 439.429 47.904, 439.560 49.467, 440.022 51.075 C 441.011 54.524, 440.510 54.655, 436.500 52 C 433.011 49.689, 431.997 49.520, 432.007 51.250 C 432.011 51.938, 433.788 53.633, 435.955 55.018 L 439.897 57.536 437.850 60.768 C 435.789 64.023, 433.666 64.887, 432.473 62.956 C 431.578 61.508, 434.025 58.796, 435.660 59.423 C 436.405 59.709, 437 59.285, 437 58.469 C 437 56.684, 432.906 56.494, 431.200 58.200 C 429.351 60.049, 429.777 63.730, 432.022 65.303 C 433.221 66.143, 433.804 67.347, 433.454 68.259 C 432.231 71.445, 434.889 70.854, 436.868 67.499 C 438.952 63.968, 441.277 63.021, 442.602 65.166 C 443.024 65.848, 442.131 67.281, 440.450 68.621 C 437.154 71.249, 437.795 72.870, 441.468 71.196 C 445.119 69.533, 445.912 65.157, 442.991 62.791 C 441.532 61.610, 441.030 60.570, 441.629 59.971 C 442.229 59.371, 445.145 61.063, 449.540 64.559 C 456.416 70.031, 459.779 74.051, 454.691 70.717 C 451.255 68.466, 449.312 68.548, 448 71 C 447.232 72.435, 447.247 73.593, 448.053 75.099 C 449.107 77.069, 448.987 77.156, 446.088 76.519 C 444.152 76.094, 443 76.237, 443 76.901 C 443 77.485, 444.238 78.233, 445.750 78.564 C 450.567 79.620, 450.856 79.834, 450.306 81.939 C 449.999 83.112, 450.248 84, 450.883 84 C 451.498 84, 452 83.341, 452 82.535 C 452 81.730, 452.927 80.574, 454.061 79.967 C 456.702 78.554, 456.033 76.500, 452.930 76.500 C 451.396 76.500, 450.407 75.834, 450.175 74.644 C 449.559 71.489, 451.447 70.778, 454.360 73.068 C 456.352 74.636, 457.401 74.912, 458.355 74.121 C 459.282 73.351, 459.980 73.380, 460.824 74.224 C 461.677 75.077, 462.301 75.099, 463.097 74.303 C 463.893 73.507, 461.716 71.144, 455.163 65.690 C 450.197 61.556, 445.395 57.761, 444.494 57.257 C 443.566 56.737, 442.611 54.521, 442.293 52.145 C 441.746 48.069, 440.851 46.482, 439.731 47.602 M 445 51.500 C 445 52.417, 445.484 53.005, 446.075 52.808 C 446.666 52.611, 447.150 52.023, 447.150 51.500 C 447.150 50.977, 446.666 50.389, 446.075 50.192 C 445.484 49.995, 445 50.583, 445 51.500 M 337.220 59.073 C 292.253 63.418, 252.742 95.251, 238.637 138.500 C 216.975 204.915, 259 275.351, 328.108 288.461 C 338.661 290.463, 359.370 290.457, 369.953 288.449 C 392.456 284.181, 413.775 273.013, 429.885 257.054 C 443.373 243.692, 453.170 227.876, 458.941 210.146 C 462.918 197.929, 464.384 188.326, 464.384 174.500 C 464.384 154.624, 460.697 139.136, 451.845 121.833 C 433.627 86.221, 399.474 63.086, 359.144 59.039 C 353.448 58.468, 348.048 58.061, 347.144 58.136 C 346.240 58.211, 341.774 58.633, 337.220 59.073 M 234.441 69.419 C 232.540 70.810, 232.549 70.891, 234.924 73.419 C 239.171 77.940, 242.934 75.523, 239.337 70.584 C 237.174 67.615, 236.974 67.567, 234.441 69.419 M 474 96 C 474 96.550, 473.325 97, 472.500 97 C 470.825 97, 470.481 98.561, 471.956 99.473 C 472.482 99.798, 472.702 100.612, 472.445 101.282 C 472.142 102.073, 473.033 102.500, 474.989 102.500 C 477.042 102.500, 478 102.007, 478 100.950 C 478 100.097, 478.540 98.860, 479.200 98.200 C 480.133 97.267, 479.911 97, 478.200 97 C 476.990 97, 476 96.550, 476 96 C 476 95.450, 475.550 95, 475 95 C 474.450 95, 474 95.450, 474 96 M 217.680 98.391 C 217.341 99.276, 216.374 100, 215.531 100 C 214.689 100, 214 100.450, 214 101 C 214 101.550, 214.502 102, 215.117 102 C 215.731 102, 216.016 102.832, 215.750 103.850 C 215.358 105.346, 215.813 105.680, 218.131 105.600 C 220.008 105.534, 220.996 104.966, 220.998 103.950 C 220.999 103.098, 221.540 101.860, 222.200 101.200 C 223.133 100.267, 223.033 100, 221.750 100 C 220.842 100, 219.694 99.276, 219.199 98.391 C 218.371 96.911, 218.248 96.911, 217.680 98.391 M 317.321 114.150 C 314.476 115.576, 312.598 120.239, 313.351 124.006 L 313.950 127 302.975 127 L 292 127 292 129.500 C 292 131.889, 292.267 132, 298 132 L 304 132 304 135 C 304 138.367, 302.561 138.818, 299.798 136.317 C 298.109 134.789, 297.793 134.778, 296.371 136.200 C 294.499 138.073, 295.039 139.350, 301.683 148.750 C 306.171 155.099, 307.848 156.093, 309.900 153.621 C 310.798 152.539, 310.267 151.312, 307.435 147.922 L 303.826 143.602 306.413 141.718 C 308.435 140.245, 309 138.977, 309 135.917 C 309 132.014, 309.014 132, 313 132 C 316.572 132, 317 132.261, 317 134.437 C 317 136.455, 316.442 136.927, 313.750 137.187 C 311.034 137.449, 310.500 137.910, 310.500 140 C 310.500 142.090, 311.034 142.551, 313.750 142.813 L 317 143.127 317 149.563 C 317 155.762, 317.092 156, 319.500 156 L 322 156 322 144 L 322 132 325.500 132 C 328.833 132, 329 132.167, 329 135.500 C 329 138.567, 329.310 139, 331.500 139 C 333.690 139, 334 138.567, 334 135.500 C 334 132.667, 334.381 132, 336 132 C 337.467 132, 338 131.333, 338 129.500 C 338 127.980, 337.430 127, 336.547 127 C 335.748 127, 334.047 124.901, 332.768 122.336 C 329.128 115.037, 322.529 111.540, 317.321 114.150 M 356.434 114.425 C 354.616 115.754, 354.719 116.038, 358.766 120.837 C 361.095 123.599, 363 126.116, 363 126.429 C 363 128.166, 359.994 126.434, 355.747 122.251 C 351.791 118.354, 350.756 117.771, 349.978 119.001 C 348.526 121.298, 348.723 121.665, 352.750 124.168 L 356.500 126.500 348.750 126.792 C 341.822 127.053, 341 127.292, 341 129.042 C 341 130.862, 341.742 131, 351.500 131 C 360.167 131, 362 131.262, 362 132.500 C 362 133.628, 360.791 134, 357.122 134 C 351.352 134, 349.502 135.561, 350.904 139.247 C 352.465 143.353, 356.928 146.236, 360.645 145.539 C 364.339 144.846, 365.106 145.599, 363.915 148.750 C 363.275 150.443, 362.265 151, 359.839 151 C 357.234 151, 355.569 149.922, 351.191 145.402 C 346.509 140.568, 345.574 139.997, 344.350 141.222 C 343.125 142.446, 343.479 143.262, 346.939 147.194 C 353.638 154.803, 361.158 157.023, 366.365 152.927 C 368.366 151.354, 368.996 149.970, 368.985 147.177 C 368.961 141.603, 367.921 140.597, 362.990 141.386 C 360.322 141.812, 358.267 141.637, 357.388 140.907 C 354.837 138.790, 355.955 138, 361.500 138 L 367 138 367 134.500 L 367 131 376 131 L 385 131 385 137.378 C 385 144.356, 383.752 146.386, 379.805 145.827 C 378.041 145.577, 377.428 144.764, 377.195 142.367 C 376.932 139.658, 377.303 139.090, 379.935 138.172 C 382.080 137.425, 382.803 136.651, 382.383 135.556 C 381.481 133.206, 377.220 133.689, 374.455 136.455 C 371.394 139.516, 371.272 143.805, 374.143 147.454 C 375.994 149.808, 376.878 150.132, 380.643 149.832 C 384.965 149.488, 385 149.512, 385 152.743 C 385 155.550, 385.345 156, 387.500 156 C 389.943 156, 390 155.831, 390 148.535 C 390 142, 390.259 140.932, 392.078 139.958 C 393.221 139.346, 394.796 139.092, 395.578 139.392 C 397.754 140.226, 397.367 146.358, 395.004 148.497 C 393.480 149.875, 393.272 150.623, 394.126 151.652 C 395.944 153.842, 397.898 153.213, 400.037 149.750 C 404.570 142.412, 399.888 133.094, 392.979 135.702 C 390.098 136.789, 390 136.730, 390 133.913 L 390 131 397.500 131 C 404.333 131, 405 130.822, 405 129 C 405 127.069, 404.333 127, 385.750 126.999 L 366.500 126.998 363.589 121.749 C 358.683 112.901, 358.614 112.831, 356.434 114.425 M 317.223 116.557 C 314.798 118.255, 314.242 122.714, 316.035 126.066 C 317.031 127.926, 316.630 128, 305.535 128 C 298.512 128, 294 128.391, 294 129 C 294 129.556, 296.667 130, 300 130 L 306 130 306 133.800 C 306 139.666, 302.641 141.795, 298.829 138.345 C 297.823 137.435, 297 137.158, 297 137.731 C 297 139.061, 304.523 150.359, 306.502 152.002 C 308.936 154.022, 308.167 151.794, 304.972 147.572 C 301.378 142.821, 301.360 142.612, 304.443 141.208 C 306.461 140.288, 306.940 139.260, 307.193 135.297 L 307.500 130.500 313.250 130.200 L 319 129.900 319 134.450 C 319 138.983, 318.987 139, 315.500 139 C 313.575 139, 312 139.450, 312 140 C 312 140.550, 313.575 141, 315.500 141 L 319 141 319.201 147.750 C 319.338 152.337, 319.578 150.655, 319.951 142.500 L 320.500 130.500 325.750 130.198 L 331 129.895 331.160 133.698 L 331.320 137.500 331.732 134.138 C 332.009 131.871, 332.772 130.611, 334.072 130.271 C 336.211 129.712, 336.718 128, 334.744 128 C 334.053 128, 332.456 125.750, 331.195 123 C 327.903 115.825, 322.093 113.146, 317.223 116.557 M 316.776 119.593 C 315.826 121.678, 315.886 122.707, 317.081 124.843 C 318.406 127.211, 319.243 127.532, 324.784 127.798 C 331.342 128.112, 331.916 127.648, 329.875 123.684 C 327.580 119.228, 324.723 117, 321.304 117 C 318.672 117, 317.705 117.554, 316.776 119.593 M 318.988 119.514 C 318.029 120.670, 317.919 121.873, 318.597 123.810 C 319.415 126.147, 320.158 126.540, 324.269 126.805 C 326.871 126.972, 328.998 126.747, 328.996 126.305 C 328.990 124.865, 325.055 119, 324.096 119 C 323.583 119, 322.524 118.755, 321.742 118.454 C 320.960 118.154, 319.721 118.631, 318.988 119.514 M 490.265 119.404 C 486.513 120.675, 486.445 120.771, 487.224 123.750 C 487.916 126.396, 489.841 126.795, 489.639 124.250 C 489.416 121.445, 493.430 122.003, 493.830 124.832 C 494.848 132.018, 484.068 133.137, 482.502 126.008 C 481.596 121.883, 479.564 122.069, 480.390 126.202 C 481.899 133.746, 489.546 136.545, 494.664 131.427 C 496.751 129.340, 497.133 128.207, 496.684 125.438 C 496.379 123.560, 495.538 121.187, 494.815 120.165 C 493.687 118.571, 493.041 118.463, 490.265 119.404 M 201.656 123.133 C 199.543 124.361, 196.645 130.616, 197.527 132.044 C 198.631 133.829, 199.866 133.010, 200.184 130.282 C 200.381 128.590, 201.495 127.007, 203.135 126.091 C 205.495 124.773, 206.042 124.798, 208.385 126.333 C 211.088 128.104, 212.087 133.210, 209.984 134.510 C 208.908 135.175, 209.578 137, 210.899 137 C 211.974 137, 214 132.347, 214 129.876 C 214 127.100, 208.680 121.993, 205.827 122.030 C 204.547 122.047, 202.670 122.543, 201.656 123.133 M 491.072 135.880 C 487.537 136.807, 484.439 138.182, 484.188 138.935 C 483.839 139.984, 484.464 140.151, 486.866 139.652 C 497.593 137.421, 497.075 137.162, 491.500 141.969 C 485.804 146.878, 485.720 147.006, 486.908 148.884 C 487.647 150.052, 488.893 149.997, 494.892 148.526 C 499.465 147.406, 502 146.288, 502 145.392 C 502 144.627, 501.887 144.005, 501.750 144.012 C 501.613 144.018, 499.025 144.688, 496 145.500 C 492.975 146.312, 490.302 146.982, 490.060 146.988 C 489.817 146.995, 492.036 144.835, 494.989 142.190 C 498.855 138.727, 500.178 136.907, 499.711 135.690 C 498.955 133.720, 499.337 133.712, 491.072 135.880 M 195.387 138.980 C 194.677 143.421, 194.704 143.892, 195.686 144.250 C 196.064 144.387, 196.741 143.080, 197.190 141.345 C 197.849 138.804, 198.409 138.294, 200.066 138.727 C 201.584 139.125, 202.051 139.950, 201.848 141.883 C 201.539 144.834, 203.310 146.092, 203.847 143.303 C 204.342 140.733, 205.629 139.644, 207.378 140.315 C 208.554 140.766, 208.696 141.573, 208.015 143.948 C 207.358 146.239, 207.465 147, 208.445 147 C 209.612 147, 211 142.901, 211 139.455 C 211 138.440, 199.854 135, 196.564 135 C 196.267 135, 195.737 136.791, 195.387 138.980 M 329.500 142 C 329.840 142.550, 330.740 143, 331.500 143 C 332.260 143, 333.160 142.550, 333.500 142 C 333.852 141.431, 332.991 141, 331.500 141 C 330.009 141, 329.148 141.431, 329.500 142 M 329 145 C 329 145.550, 330.125 146, 331.500 146 C 332.875 146, 334 145.550, 334 145 C 334 144.450, 332.875 144, 331.500 144 C 330.125 144, 329 144.450, 329 145 M 193 148.883 C 193 150.005, 196.552 150.969, 200.750 150.986 C 205.578 151.007, 204.707 152.258, 198.250 154.580 C 193.956 156.124, 192.500 157.135, 192.500 158.574 C 192.500 160.217, 193.568 160.631, 199.775 161.392 C 203.776 161.882, 207.363 161.970, 207.746 161.587 C 208.902 160.432, 205.728 159.032, 201.917 159.015 C 196.179 158.991, 196.452 157.716, 202.694 155.394 C 206.765 153.879, 208.590 152.644, 208.801 151.262 C 209.058 149.573, 208.341 149.199, 203.801 148.654 C 196.454 147.772, 193 147.845, 193 148.883 M 329 152 C 329 155.600, 329.250 156, 331.500 156 C 333.750 156, 334 155.600, 334 152 C 334 148.400, 333.750 148, 331.500 148 C 329.250 148, 329 148.400, 329 152 M 490.750 151.728 C 488.209 151.994, 487 152.617, 487 153.662 C 487 154.974, 488.077 155.097, 494.250 154.488 C 501.967 153.727, 503 153.426, 503 151.941 C 503 151.022, 498.285 150.940, 490.750 151.728 M 488.014 160.250 C 488.031 164.448, 488.995 168, 490.117 168 C 490.602 168, 491 167.148, 491 166.107 C 491 163.722, 492.877 163, 499.082 163 C 502.912 163, 504 162.648, 504 161.409 C 504 160.078, 502.899 159.874, 497.264 160.159 C 491.483 160.452, 490.480 160.252, 490.191 158.750 C 489.609 155.734, 487.999 156.844, 488.014 160.250 M 205 165 C 205 166.795, 204.333 167, 198.500 167 C 193.389 167, 192 167.321, 192 168.500 C 192 169.679, 193.389 170, 198.500 170 C 204.333 170, 205 170.205, 205 172 C 205 173.100, 205.450 174, 206 174 C 206.550 174, 207 171.525, 207 168.500 C 207 165.475, 206.550 163, 206 163 C 205.450 163, 205 163.900, 205 165 M 300.394 165.887 C 289.892 170.711, 289.881 186.394, 300.376 191.374 C 302.999 192.619, 305.972 193.007, 311.244 192.794 L 318.500 192.500 318.500 189.500 L 318.500 186.500 310.659 186 C 303.857 185.566, 302.554 185.174, 300.827 183.037 C 299.386 181.256, 299.002 179.738, 299.440 177.551 C 300.422 172.640, 302.311 171.549, 310.782 171 L 318.500 170.500 318.500 167.500 L 318.500 164.500 311.500 164.251 C 306.347 164.067, 303.416 164.499, 300.394 165.887 M 321 167.500 L 321 171 328.045 171 C 334.192 171, 335.404 171.313, 337.545 173.455 C 342.646 178.555, 338.789 186, 331.045 186 C 328.116 186, 327 185.586, 327 184.500 C 327 183.500, 326 183, 324 183 C 321.067 183, 321 183.111, 321 188 L 321 193 328.099 193 C 339.600 193, 345.778 188.568, 346.694 179.659 C 347.659 170.268, 340.091 164, 327.788 164 L 321 164 321 167.500 M 357.450 165.354 C 355.773 166.114, 353.186 168.179, 351.700 169.944 C 349.164 172.959, 349 173.754, 349 183.077 L 349 193 352 193 C 354.762 193, 355 192.722, 355 189.500 C 355 187.056, 355.452 186, 356.500 186 C 357.548 186, 358 184.944, 358 182.500 C 358 180.056, 357.548 179, 356.500 179 C 354.639 179, 354.635 178.606, 356.463 175.072 C 358.900 170.360, 364.270 169.529, 367.826 173.314 C 369.714 175.324, 370 176.773, 370 184.314 L 370 193 373.500 193 L 377 193 377 184.468 C 377 179.455, 376.428 174.567, 375.613 172.617 C 372.857 166.021, 363.895 162.437, 357.450 165.354 M 387.020 165.752 C 382.223 168.162, 379 173.284, 379 178.500 C 379 187.690, 385.862 192.996, 397.750 192.998 L 405 193 405 189.500 L 405 186 397.674 186 C 391.310 186, 390.063 185.696, 388.174 183.686 C 385.098 180.411, 385.302 175.694, 388.635 173.073 C 390.719 171.433, 392.704 171, 398.135 171 L 405 171 405 167.500 L 405 164 397.750 164.002 C 392.844 164.003, 389.375 164.568, 387.020 165.752 M 298.400 170.400 C 295.549 173.251, 295 174.520, 295 178.265 C 295 186.222, 300.991 191, 310.968 191 C 314.598 191, 316 190.613, 316 189.609 C 316 188.568, 314.307 188.198, 309.250 188.134 C 303.050 188.056, 302.276 187.802, 299.750 185.009 C 295.933 180.789, 295.998 175.848, 299.923 171.923 C 302.561 169.285, 303.487 169, 309.423 169 C 313.141 169, 316 168.565, 316 168 C 316 167.427, 312.967 167, 308.900 167 C 302.159 167, 301.628 167.172, 298.400 170.400 M 489 169.815 C 489 170.313, 491.813 171.121, 495.250 171.610 C 501.013 172.431, 501.500 172.695, 501.500 175 C 501.500 177.368, 501.171 177.516, 495.250 177.798 C 490.497 178.024, 489 178.454, 489 179.593 C 489 180.805, 490.285 181.035, 495.716 180.796 C 501.863 180.525, 502.562 180.267, 503.966 177.750 C 505.345 175.278, 505.345 174.722, 503.966 172.250 C 502.562 169.733, 501.863 169.475, 495.716 169.204 C 492.022 169.042, 489 169.316, 489 169.815 M 191.694 176.639 C 190.484 177.850, 192.124 179, 195.059 179 C 199.008 179, 198.969 181.766, 195 183.150 C 193.350 183.725, 192 184.827, 192 185.598 C 192 187.353, 193.767 187.335, 196.997 185.547 C 198.684 184.614, 199.883 184.488, 200.692 185.159 C 201.351 185.706, 202.927 186.006, 204.195 185.827 C 206.180 185.545, 206.542 184.840, 206.805 180.750 L 207.110 176 199.721 176 C 195.658 176, 192.046 176.288, 191.694 176.639 M 200.187 180.750 C 200.370 181.713, 201.528 182.644, 202.760 182.820 C 204.461 183.062, 205 182.641, 205 181.070 C 205 179.513, 204.362 179, 202.427 179 C 200.515 179, 199.939 179.450, 200.187 180.750 M 359 182.500 C 359 184.425, 359.450 186, 360 186 C 360.550 186, 361 184.425, 361 182.500 C 361 180.575, 360.550 179, 360 179 C 359.450 179, 359 180.575, 359 182.500 M 362 182.441 C 362 184.398, 362.450 186, 363 186 C 363.550 186, 364 184.677, 364 183.059 C 364 181.441, 363.550 179.840, 363 179.500 C 362.405 179.132, 362 180.323, 362 182.441 M 365.252 182.500 C 365.263 184.700, 365.468 185.482, 365.707 184.238 C 365.946 182.994, 365.937 181.194, 365.687 180.238 C 365.437 179.282, 365.241 180.300, 365.252 182.500 M 321 181 C 321 181.550, 322.350 182, 324 182 C 325.650 182, 327 181.550, 327 181 C 327 180.450, 325.650 180, 324 180 C 322.350 180, 321 180.450, 321 181 M 489.035 184.934 C 488.466 185.998, 488 188.187, 488 189.798 C 488 192.526, 488.321 192.772, 492.640 193.364 C 500.192 194.399, 503 194.165, 503 192.500 C 503 191.567, 502.056 191, 500.500 191 C 498.520 191, 498 190.495, 498 188.571 C 498 183.603, 491.220 180.852, 489.035 184.934 M 490.667 186.667 C 489.238 188.095, 490.116 189.789, 492.524 190.249 C 495.367 190.793, 496.295 189.933, 495.396 187.590 C 494.782 185.989, 491.906 185.428, 490.667 186.667 M 198.185 189.023 C 195.261 189.449, 192.746 189.956, 192.595 190.149 C 191.789 191.183, 193.386 199, 194.404 199 C 195.180 199, 195.455 197.774, 195.190 195.500 C 194.815 192.290, 194.997 192, 197.391 192 C 199.623 192, 200 192.433, 200 195 C 200 199.037, 201.792 198.838, 202.187 194.758 C 202.612 190.354, 205.509 189.793, 206.341 193.953 C 206.676 195.629, 207.464 197, 208.092 197 C 208.788 197, 208.998 196.122, 208.630 194.750 C 208.299 193.512, 208.021 191.488, 208.014 190.250 C 207.999 187.763, 207.377 187.685, 198.185 189.023 M 487 196.905 C 487 198.448, 488.509 200.017, 492.178 202.291 L 497.356 205.500 491.928 206.341 C 484.404 207.507, 484 207.686, 484 209.861 C 484 211.414, 485.358 212.117, 491.047 213.512 C 494.923 214.461, 498.343 214.990, 498.647 214.686 C 499.819 213.514, 497.824 212.146, 494 211.500 C 489.190 210.687, 487.716 209, 491.816 209 C 496.713 209, 501 207.823, 501 206.479 C 501 205.780, 498.733 203.754, 495.962 201.976 C 493.191 200.198, 491.083 198.583, 491.278 198.388 C 491.473 198.194, 493.175 198.477, 495.060 199.017 C 499.408 200.264, 503 200.278, 503 199.047 C 503 197.968, 497.570 196.255, 491.250 195.342 C 487.363 194.781, 487 194.914, 487 196.905 M 310 202.552 C 310 202.947, 311.125 204.313, 312.500 205.588 C 313.875 206.862, 315 208.376, 315 208.952 C 315 209.655, 306.760 210, 290 210 C 274 210, 265 210.360, 265 211 C 265 211.550, 267.223 212, 269.941 212 C 272.659 212, 275.160 212.450, 275.500 213 C 275.878 213.611, 274.344 214, 271.559 214 C 266.618 214, 265.868 214.812, 269 216.768 C 271.449 218.297, 271.628 220.195, 269.286 219.794 C 268.300 219.625, 267.420 220.243, 267.213 221.250 C 267 222.285, 267.453 223, 268.320 223 C 269.126 223, 270.045 223.675, 270.362 224.500 C 271.158 226.576, 273.009 226.388, 272.830 224.250 C 272.459 219.828, 273.087 217, 274.440 217 C 275.375 217, 275.988 218.287, 276.190 220.673 C 276.360 222.693, 277.063 224.530, 277.750 224.756 C 278.665 225.057, 279 223.402, 279 218.583 C 279 213.398, 279.319 212, 280.500 212 C 281.664 212, 282 213.321, 282 217.893 C 282 222.125, 282.410 223.943, 283.454 224.344 C 284.611 224.788, 284.967 223.639, 285.204 218.701 L 285.500 212.500 290.917 212.500 C 294.361 212.500, 296.485 212.955, 296.750 213.750 C 297.037 214.612, 295.917 215, 293.142 215 C 288.819 215, 287.636 215.889, 288.604 218.410 C 289.269 220.144, 292 220.618, 292 219 C 292 218.450, 293.096 218, 294.437 218 C 296.441 218, 296.929 218.563, 297.187 221.173 C 297.359 222.918, 298.063 224.531, 298.750 224.756 C 299.665 225.057, 300 223.402, 300 218.583 C 300 213.494, 300.330 212, 301.452 212 C 302.533 212, 302.981 213.579, 303.202 218.171 C 303.387 221.991, 303.976 224.498, 304.750 224.754 C 305.665 225.056, 306 223.403, 306 218.583 L 306 212 310 212 C 312.200 212, 314 212.450, 314 213 C 314 213.550, 313.086 214, 311.969 214 C 307.727 214, 308.228 221.517, 312.542 222.600 C 313.923 222.946, 315.513 224.091, 316.077 225.143 C 317.575 227.943, 318.674 226.645, 318.205 222.629 C 317.777 218.961, 315.328 216.982, 314.355 219.517 C 313.515 221.706, 311 221.319, 311 219 C 311 217.455, 311.667 217, 313.930 217 C 316.208 217, 316.932 216.499, 317.180 214.750 C 317.464 212.757, 318.156 212.466, 323.250 212.200 C 327.675 211.969, 329 212.225, 329 213.311 C 329 214.278, 328.211 214.572, 326.494 214.244 C 323.610 213.692, 321 215.461, 321 217.967 C 321 220.419, 324.580 223.375, 326.607 222.597 C 327.575 222.226, 329.077 222.664, 330.145 223.631 C 331.933 225.249, 332 225.086, 332 219.124 C 332 214.547, 332.390 212.787, 333.500 212.362 C 337.209 210.938, 334.295 210, 326.168 210 L 317.335 210 314.918 206.316 C 312.685 202.914, 310 200.859, 310 202.552 M 368 202.965 C 368 203.495, 368.847 204.383, 369.882 204.937 C 370.918 205.491, 372.062 206.719, 372.425 207.666 C 373.015 209.204, 372.867 209.189, 371.037 207.533 C 369.910 206.513, 368.686 205.981, 368.317 206.350 C 367.948 206.719, 368.513 207.677, 369.573 208.479 C 371.358 209.829, 371.183 209.939, 367.191 209.968 C 364.580 209.987, 363.125 210.394, 363.500 211 C 363.840 211.550, 365.891 212, 368.059 212 C 370.561 212, 372 212.460, 372 213.260 C 372 214.016, 370.702 214.515, 368.750 214.510 C 366.194 214.502, 365.435 214.954, 365.197 216.625 C 364.817 219.286, 367.717 222.307, 370.063 221.694 C 371.197 221.397, 372.004 221.906, 372.320 223.116 C 373.086 226.043, 375 225.334, 375 222.122 C 375 220.540, 375.751 218.627, 376.669 217.872 C 378.181 216.628, 378.278 216.800, 377.701 219.711 C 376.942 223.548, 378.430 224.934, 380.053 221.902 C 381.581 219.045, 379.805 215, 377.021 215 C 375.891 215, 375 214.339, 375 213.500 C 375 212.292, 376.556 212, 383 212 C 389.597 212, 391 212.275, 391 213.567 C 391 214.680, 390.419 214.950, 389 214.500 C 385.484 213.384, 383 214.847, 383 218.032 C 383 221.283, 385.900 223.484, 388.919 222.526 C 390.066 222.162, 390.985 222.518, 391.350 223.470 C 392.721 227.043, 394 224.644, 394 218.500 L 394 212 401.441 212 C 408.775 212, 411.988 213.234, 407.972 214.509 C 406.841 214.868, 404.212 214.874, 402.129 214.522 C 397.625 213.761, 395.435 215.593, 396.536 219.202 C 397.365 221.922, 399.900 225, 401.310 225 C 401.860 225, 401.529 224.137, 400.575 223.082 C 398.783 221.103, 398.727 216.307, 400.500 216.750 C 401.050 216.887, 401.500 217.412, 401.500 217.917 C 401.500 219.866, 403.197 220.399, 404.125 218.742 C 405.312 216.621, 407 216.458, 407 218.465 C 407 220.172, 410.013 222, 412.827 222 C 413.905 222, 415.045 222.675, 415.362 223.500 C 416.722 227.045, 418 224.623, 418 218.500 C 418 213.157, 418.290 212, 419.631 212 C 420.928 212, 421.148 212.698, 420.708 215.414 C 420.289 217.995, 420.623 219.254, 422.077 220.569 C 423.193 221.580, 424 221.825, 424 221.155 C 424 220.520, 425.094 220, 426.430 220 C 428.160 220, 428.953 220.626, 429.180 222.172 C 429.356 223.366, 430.063 224.529, 430.750 224.755 C 431.665 225.056, 432 223.403, 432 218.583 C 432 213.287, 432.305 212, 433.559 212 C 434.416 212, 434.840 211.550, 434.500 211 C 434.111 210.370, 422.996 210, 404.461 210 L 375.041 210 373 206 C 371.170 202.413, 368 200.489, 368 202.965 M 201.768 207.337 C 196.980 208.876, 195.263 209.857, 195.820 210.737 C 196.379 211.621, 197.498 211.717, 199.741 211.074 C 202.679 210.232, 202.920 210.360, 203.519 213.087 C 204.452 217.336, 206.370 216.786, 205.566 212.500 C 204.987 209.416, 205.155 209, 206.979 209 C 208.267 209, 209.409 209.945, 210 211.500 C 211.202 214.661, 213.411 214.888, 212.434 211.750 C 210.933 206.931, 210.019 205.003, 209.275 205.087 C 208.849 205.135, 205.471 206.148, 201.768 207.337 M 253.204 217.071 C 253.401 221.919, 253.932 224.483, 254.796 224.769 C 255.795 225.099, 256.024 223.531, 255.796 217.929 C 255.599 213.081, 255.068 210.517, 254.204 210.231 C 253.205 209.901, 252.976 211.469, 253.204 217.071 M 258 216.882 C 258 220.732, 258.450 224.160, 259 224.500 C 259.630 224.890, 260 222.530, 260 218.118 C 260 214.268, 259.550 210.840, 259 210.500 C 258.370 210.110, 258 212.470, 258 216.882 M 341.500 211 C 341.840 211.550, 344.116 212, 346.559 212 C 349.840 212, 351 212.392, 351 213.500 C 351 214.550, 349.941 215, 347.469 215 C 345.126 215, 343.727 215.549, 343.312 216.631 C 342.581 218.534, 345.872 225.197, 347.153 224.406 C 347.631 224.110, 347.354 222.916, 346.539 221.753 C 344.815 219.291, 346.060 217, 349.122 217 C 350.602 217, 351 217.743, 351 220.500 C 351 222.425, 351.480 224, 352.067 224 C 352.705 224, 352.860 224.867, 352.452 226.151 C 351.914 227.848, 352.104 228.174, 353.353 227.695 C 354.223 227.361, 355.204 227.521, 355.531 228.051 C 356.639 229.844, 353.001 230.231, 350.492 228.587 C 349.122 227.689, 348 227.317, 348 227.761 C 348 229.132, 354.019 232.207, 355.552 231.619 C 357.441 230.894, 357.410 227.586, 355.500 226 C 354.476 225.150, 354 222.879, 354 218.846 C 354 214.516, 354.401 212.783, 355.500 212.362 C 359.110 210.976, 356.398 210, 348.941 210 C 343.823 210, 341.108 210.365, 341.500 211 M 438.204 217.071 C 438.401 221.919, 438.932 224.483, 439.796 224.769 C 440.795 225.099, 441.024 223.531, 440.796 217.929 C 440.599 213.081, 440.068 210.517, 439.204 210.231 C 438.205 209.901, 437.976 211.469, 438.204 217.071 M 443 216.882 C 443 220.732, 443.450 224.160, 444 224.500 C 444.630 224.890, 445 222.530, 445 218.118 C 445 214.268, 444.550 210.840, 444 210.500 C 443.370 210.110, 443 212.470, 443 216.882 M 411.312 213.370 C 411.643 214.235, 411.206 215.652, 410.338 216.519 C 408.305 218.552, 409.214 219.414, 412.516 218.585 C 414.642 218.052, 415.068 217.428, 414.813 215.224 C 414.615 213.512, 413.803 212.385, 412.604 212.157 C 411.222 211.895, 410.872 212.223, 411.312 213.370 M 424.667 212.667 C 424.300 213.033, 424 214.158, 424 215.167 C 424 216.456, 424.742 217, 426.500 217 C 428.500 217, 429 216.500, 429 214.500 C 429 212.742, 428.456 212, 427.167 212 C 426.158 212, 425.033 212.300, 424.667 212.667 M 482.573 217.336 C 477.419 222.491, 481.110 230, 488.800 230 C 493.492 230, 496.089 227.560, 496.218 223.032 C 496.332 219.021, 493.518 216.121, 488.764 215.349 C 485.764 214.862, 484.708 215.201, 482.573 217.336 M 324.349 217.487 C 323.334 218.229, 322.819 219.152, 323.205 219.538 C 324.117 220.450, 329 219.228, 329 218.088 C 329 216.481, 326.216 216.122, 324.349 217.487 M 367.500 217 C 366.359 218.846, 367.990 220.076, 370.089 218.953 C 371.171 218.373, 371.792 217.472, 371.469 216.950 C 370.698 215.702, 368.283 215.733, 367.500 217 M 386.250 216.662 C 384.302 217.448, 384.782 220, 386.878 220 C 389.591 220, 391.546 217.423, 389.444 216.617 C 388.560 216.278, 387.761 216.036, 387.668 216.079 C 387.576 216.122, 386.938 216.385, 386.250 216.662 M 202.635 219.073 C 199.394 221.622, 199.172 225.678, 202.073 229.365 C 204.588 232.563, 208.205 232.782, 212.750 230.011 C 215.357 228.421, 216 227.378, 216 224.737 C 216 222.926, 215.299 220.445, 214.443 219.223 C 212.374 216.268, 206.299 216.190, 202.635 219.073 M 484.250 218.662 C 482.237 219.475, 482.735 224.788, 484.934 225.965 C 487.530 227.354, 491.326 227.274, 492.800 225.800 C 496.720 221.880, 490.059 216.318, 484.250 218.662 M 204 222 C 202.900 223.100, 202 224.418, 202 224.929 C 202 226.336, 204.961 229, 206.524 229 C 209.109 229, 212.960 226.703, 213.563 224.800 C 214.994 220.292, 207.812 218.188, 204 222 M 428 228 C 428 228.550, 428.830 229, 429.845 229 C 430.860 229, 432.507 229.903, 433.506 231.006 C 434.504 232.110, 435.551 232.783, 435.831 232.502 C 436.112 232.222, 435.286 230.869, 433.996 229.496 C 431.661 227.010, 428 226.097, 428 228 M 477.245 229.250 C 472.594 235.063, 476.758 243, 484.458 243 C 487.189 243, 492 237.847, 492 234.923 C 492 232.008, 490.327 232.622, 489.162 235.965 C 487.837 239.765, 483.998 240.884, 480.392 238.521 C 477.770 236.803, 477.508 234.327, 479.466 229.750 C 480.328 227.732, 478.744 227.376, 477.245 229.250 M 211.250 233.170 C 207.813 234.824, 205 236.812, 205 237.589 C 205 239.300, 205.216 239.315, 208.480 237.827 C 212.505 235.993, 213.662 238.060, 210.629 241.665 C 209.120 243.458, 208.451 245.112, 208.925 245.878 C 209.492 246.796, 210.365 246.355, 212.125 244.263 C 213.787 242.288, 215.440 241.404, 217.396 241.443 C 221.700 241.529, 222.768 239.029, 220.539 234.086 C 219.525 231.839, 218.427 230.037, 218.098 230.082 C 217.769 230.126, 214.688 231.516, 211.250 233.170 M 215.216 234.845 C 213.474 235.951, 214.832 239.178, 216.876 238.789 C 218.854 238.412, 219.728 233.993, 217.820 234.015 C 217.094 234.024, 215.922 234.397, 215.216 234.845 M 219.750 250.811 C 216.588 252.837, 214 254.731, 214 255.020 C 214 255.308, 215.383 257.222, 217.073 259.272 C 219.466 262.176, 220.861 263, 223.384 263 C 226.841 263, 230.427 260.379, 231.471 257.091 C 232.215 254.748, 228.537 246.970, 226.730 247.064 C 226.053 247.099, 222.912 248.785, 219.750 250.811 M 469.374 247.995 C 467.225 248.853, 463 254.002, 463 255.762 C 463 256.654, 474.072 264, 475.415 264 C 476.668 264, 479.993 257.412, 479.996 254.924 C 480.003 250.360, 473.717 246.260, 469.374 247.995 M 223.500 252.151 C 221.850 253.212, 219.886 254.446, 219.136 254.893 C 216.812 256.280, 219.539 260, 222.880 260 C 227.685 260, 230.495 255.271, 227.750 251.802 C 226.619 250.373, 226.214 250.407, 223.500 252.151 M 469.389 251.037 C 465.594 252.468, 465.852 254.636, 470.154 257.484 C 474.908 260.629, 477 260.193, 477 256.057 C 477 252.459, 472.859 249.728, 469.389 251.037 M 458.250 260.963 C 457.012 262.533, 456 264.281, 456 264.850 C 456 265.418, 458.617 267.897, 461.816 270.359 L 467.632 274.834 470.316 271.470 C 471.792 269.620, 473 267.633, 473 267.053 C 473 265.231, 471.239 265.904, 469.333 268.453 C 467.683 270.662, 467.309 270.763, 465.581 269.469 C 463.782 268.122, 463.767 267.915, 465.331 266.187 C 466.965 264.381, 467.579 262, 466.410 262 C 466.086 262, 465.070 262.928, 464.152 264.061 C 463.062 265.406, 461.878 265.890, 460.741 265.454 C 458.605 264.634, 458.535 263.631, 460.500 262 C 462.050 260.713, 462.574 257.958, 461.250 258.055 C 460.837 258.086, 459.488 259.394, 458.250 260.963 M 228.773 263.680 L 223.047 268.271 226.111 272.140 C 229.561 276.496, 232.140 276.410, 229.030 272.042 C 227.253 269.547, 227.197 269.081, 228.541 267.966 C 229.791 266.928, 230.463 267.086, 232.354 268.862 C 235.178 271.516, 236.446 270.611, 234.362 267.429 C 231.617 263.240, 234.820 261.323, 238.004 265.250 C 240.975 268.915, 241.522 266.373, 238.589 262.527 C 237.109 260.587, 235.584 259.020, 235.199 259.045 C 234.815 259.069, 231.923 261.155, 228.773 263.680 M 237.479 274.041 C 232.462 284.005, 233.629 285.002, 244.522 280.063 C 248.085 278.447, 251 276.647, 251 276.063 C 251 274.430, 249.386 274.771, 243.867 277.567 C 241.081 278.979, 238.620 279.953, 238.398 279.731 C 238.176 279.510, 239.316 276.913, 240.931 273.960 C 243.731 268.840, 244.001 267, 241.954 267 C 241.443 267, 239.429 270.169, 237.479 274.041 M 451.174 269.314 C 446.476 274.316, 450.173 283, 457 283 C 460.337 283, 465 279.238, 465 276.545 C 465 274.349, 464.083 274.625, 461.821 277.500 C 460.740 278.875, 458.832 280, 457.582 280 C 452.615 280, 449.924 272.313, 454 269.768 C 455.100 269.081, 456 268.177, 456 267.759 C 456 266.200, 453.275 267.078, 451.174 269.314 M 443.591 276.852 C 443.186 277.508, 444.491 279.983, 446.598 282.554 L 450.321 287.097 444.910 284.943 C 441.935 283.758, 439.010 282.591, 438.410 282.349 C 437.811 282.107, 436.742 282.606, 436.035 283.457 C 434.947 284.768, 435.407 285.734, 439.030 289.753 C 441.383 292.364, 443.650 294.888, 444.067 295.363 C 444.484 295.837, 445.336 295.910, 445.961 295.524 C 446.711 295.061, 445.815 293.260, 443.322 290.218 C 440.609 286.907, 440.104 285.838, 441.524 286.412 C 449.771 289.749, 452.184 290.244, 453.515 288.875 C 454.637 287.721, 454.005 286.552, 449.579 281.597 C 446.200 277.813, 444.050 276.110, 443.591 276.852 M 247.181 282.791 L 242.077 288.682 245.452 291.954 C 247.563 294, 249.296 294.935, 250.080 294.451 C 250.981 293.894, 250.517 293.027, 248.429 291.361 C 245.692 289.179, 245.623 288.948, 247.231 287.340 C 248.831 285.740, 249.054 285.739, 250.798 287.317 C 252.727 289.063, 255 289.563, 255 288.241 C 255 287.823, 254.100 286.919, 253 286.232 C 250.770 284.840, 250.606 284.172, 251.963 282.026 C 252.751 280.780, 253.272 280.907, 255.342 282.851 C 257.013 284.421, 258.013 284.788, 258.495 284.009 C 258.883 283.381, 259.040 282.784, 258.845 282.683 C 258.650 282.583, 257.094 281.240, 255.388 279.700 L 252.285 276.899 247.181 282.791 M 256.197 290.951 C 253.889 294.224, 252 297.113, 252 297.370 C 252 297.627, 253.599 298.825, 255.553 300.033 C 259.668 302.576, 261.625 301.740, 258.150 298.923 L 255.800 297.017 259.431 291.963 C 262.683 287.436, 263.281 285, 261.138 285 C 260.729 285, 258.505 287.678, 256.197 290.951 M 428.112 289.365 C 427.185 290.483, 427.326 292.398, 428.757 298.080 C 430.651 305.606, 432.975 308.461, 433.031 303.333 C 433.075 299.418, 437.107 296.425, 439.947 298.199 C 441.396 299.104, 442.253 299.147, 443.043 298.357 C 443.833 297.567, 442.248 296.052, 437.318 292.882 C 428.790 287.401, 429.513 287.677, 428.112 289.365 M 266.143 294.668 C 261.517 298.933, 261.126 302.280, 264.821 305.975 C 268.619 309.772, 271.354 309.800, 275.077 306.077 C 280.211 300.943, 278.608 294.181, 271.857 292.496 C 269.794 291.982, 268.540 292.459, 266.143 294.668 M 430.334 293.427 C 430.700 294.382, 431 295.802, 431 296.582 C 431 298.336, 432.090 298.386, 434.345 296.737 C 435.919 295.586, 435.788 295.306, 432.870 293.582 C 429.936 291.849, 429.723 291.836, 430.334 293.427 M 421.426 294.332 C 421.145 295.065, 421.373 297.653, 421.933 300.082 C 423.600 307.314, 423.246 307.657, 418.712 303.208 C 414.863 299.430, 411 297.712, 411 299.778 C 411 300.205, 413.668 302.903, 416.929 305.774 C 420.767 309.152, 423.411 310.779, 424.429 310.389 C 426.316 309.665, 426.339 309.015, 424.796 300.019 C 423.647 293.315, 422.536 291.440, 421.426 294.332 M 269.229 295.669 C 268.530 295.951, 267.279 297.494, 266.449 299.099 C 263.519 304.764, 268.629 308.461, 272.961 303.811 C 277.100 299.369, 274.443 293.572, 269.229 295.669 M 278.760 305.010 C 276.171 309.776, 275.375 312.114, 276.172 312.606 C 276.813 313.002, 278.097 312.363, 279.067 311.165 C 280.435 309.476, 281.478 309.146, 283.903 309.631 C 285.776 310.005, 287.588 309.757, 288.498 309.002 C 290.366 307.452, 290.363 307.580, 288.388 313.376 C 287.501 315.979, 287.021 318.354, 287.321 318.654 C 288.373 319.707, 289.865 317.939, 291.048 314.236 C 293.041 307.999, 294 308.182, 294 314.800 C 294 322.448, 295.035 322.673, 300.708 316.258 L 304.915 311.500 302.938 316.813 C 301.060 321.857, 301.070 324, 302.969 324 C 303.436 324, 304.948 320.644, 306.327 316.541 L 308.835 309.082 306.710 308.408 C 305.011 307.869, 303.731 308.711, 300.313 312.617 L 296.041 317.500 296.021 311.285 C 296.003 306.091, 295.669 304.893, 293.985 303.992 C 292.388 303.137, 291.843 303.245, 291.356 304.514 C 290.845 305.847, 290.554 305.738, 289.619 303.862 C 289.001 302.623, 287.147 300.826, 285.498 299.867 L 282.500 298.125 278.760 305.010 M 283.068 303.873 C 281.538 306.731, 281.718 307.179, 284.250 306.820 C 285.690 306.615, 286.500 305.810, 286.500 304.583 C 286.500 301.914, 284.354 301.470, 283.068 303.873 M 402.250 303.491 C 400.462 304.268, 399 305.385, 399 305.974 C 399 306.562, 400.330 309.978, 401.957 313.564 L 404.913 320.085 408.997 318.002 C 415.566 314.650, 416.768 308.657, 411.799 304.028 C 409.265 301.667, 406.770 301.526, 402.250 303.491 M 403.356 305.627 C 402.097 306.143, 405.748 316, 407.198 316 C 407.639 316, 408.923 315.077, 410.051 313.949 C 412.121 311.879, 412.013 309.072, 409.755 306.250 C 408.770 305.019, 405.594 304.709, 403.356 305.627 M 390.402 307.765 C 389.798 308.169, 389.024 312.212, 388.683 316.750 C 388.166 323.620, 388.308 325, 389.531 325 C 390.345 325, 391 324.086, 391 322.952 C 391 320.007, 396.843 317.569, 399.079 319.580 C 400.690 321.030, 403 321.500, 403 320.378 C 403 319.502, 392.776 306.997, 392.075 307.015 C 391.759 307.024, 391.006 307.361, 390.402 307.765 M 309.080 315.998 C 308.409 319.410, 307.634 322.791, 307.357 323.511 C 306.846 324.842, 307.879 325.322, 313.868 326.531 C 316.436 327.049, 317.132 326.895, 316.794 325.883 C 316.551 325.153, 315.260 324.297, 313.926 323.982 C 312.381 323.618, 311.500 322.700, 311.500 321.455 C 311.500 319.852, 312.102 319.548, 314.839 319.766 C 318.617 320.067, 318.918 317.732, 315.172 317.180 C 313.756 316.972, 313 316.150, 313 314.819 C 313 313.027, 313.428 312.858, 316.500 313.434 C 318.578 313.824, 320 313.690, 320 313.104 C 320 311.698, 318.853 311.160, 314.305 310.433 L 310.301 309.793 309.080 315.998 M 373.199 311.992 C 371.384 312.419, 369.728 312.939, 369.520 313.147 C 369.191 313.476, 369.901 317.854, 371.564 325.750 C 371.825 326.988, 372.755 328, 373.630 328 C 374.901 328, 375.093 327.310, 374.582 324.586 C 373.984 321.399, 374.144 321.127, 376.980 320.504 C 380.626 319.703, 379.930 317.751, 376.154 318.191 C 374.071 318.434, 373.433 318.032, 373.190 316.322 C 372.943 314.586, 373.449 314.079, 375.690 313.822 C 377.235 313.645, 378.421 313.061, 378.325 312.525 C 378.086 311.191, 377.058 311.084, 373.199 311.992 M 392 313.889 C 392 315.931, 392.495 317, 393.441 317 C 395.780 317, 395.943 315.648, 393.908 313.134 L 392 310.778 392 313.889 M 321.705 313.326 C 321.425 314.055, 320.875 317.655, 320.482 321.326 C 319.863 327.100, 319.985 328, 321.384 328 C 322.418 328, 323 327.146, 323 325.625 C 323 324.319, 323.294 321.782, 323.652 319.988 L 324.305 316.726 326.496 322.613 C 330.025 332.094, 334 330.732, 334 320.042 C 334 316.699, 334.574 316.076, 337.058 316.725 C 338.725 317.161, 339 318.138, 339 323.617 C 339 328.624, 339.323 330, 340.500 330 C 341.630 330, 342 328.787, 342 325.082 C 342 318.877, 342.722 317, 345.107 317 C 346.148 317, 347 316.325, 347 315.500 C 347 314.301, 345.505 314, 339.545 314 L 332.091 314 331.479 317.750 C 331.142 319.813, 330.743 322.175, 330.591 323 C 330.412 323.970, 329.948 323.617, 329.276 322 C 328.705 320.625, 327.532 317.813, 326.670 315.750 C 325.105 312.007, 322.668 310.817, 321.705 313.326 M 359 313.709 C 355.530 314.985, 354 317.364, 354 321.481 C 354 329.145, 361.379 332.712, 366.545 327.545 C 370.471 323.620, 369.281 316.360, 364.343 314.110 C 361.705 312.909, 361.267 312.876, 359 313.709 M 358.200 317.200 C 356.614 318.786, 356.671 323.168, 358.306 325.404 C 359.109 326.502, 360.554 327.057, 362.056 326.845 C 364.092 326.558, 364.552 325.863, 364.815 322.680 C 365.281 317.019, 361.507 313.893, 358.200 317.200" stroke="none" fill="#1a67b0" fill-rule="evenodd"/><path d="M 325.500 3.039 C 307.303 5.033, 285.639 11.164, 267.896 19.342 C 242.528 31.035, 214.247 54.793, 198.072 78 C 189.850 89.796, 179.401 110.456, 175.565 122.500 C 162.191 164.491, 165.157 208.616, 183.967 247.497 C 213.447 308.436, 276.634 347, 347 347 C 409.116 347, 464.905 317.721, 498.549 267.465 C 524.605 228.543, 533.119 182.125, 522.571 136.500 C 507.709 72.217, 451.775 19.068, 384.755 5.547 C 368.108 2.189, 342.967 1.124, 325.500 3.039 M 360.200 21.855 C 359.485 22.309, 358.827 23.652, 358.737 24.840 C 358.648 26.028, 357.995 27, 357.287 27 C 356.579 27, 356 27.675, 356 28.500 C 356 29.325, 356.615 30, 357.366 30 C 358.439 30, 358.625 31.504, 358.232 37 C 357.807 42.939, 357.972 44, 359.320 44 C 360.585 44, 360.969 42.627, 361.204 37.250 L 361.500 30.500 365 30.790 C 373.274 31.474, 373.977 31.858, 373.304 35.321 C 372.628 38.796, 371.317 40.140, 369 39.735 C 366.474 39.293, 367.230 35.661, 370 34.933 C 372.267 34.337, 372.324 34.201, 370.614 33.479 C 368.565 32.613, 366.225 33.696, 364.609 36.258 C 363.253 38.408, 366.410 42, 369.655 42 C 371.333 42, 372 42.569, 372 44 C 372 45.100, 372.441 46, 372.981 46 C 374.030 46, 374.615 44.138, 375.805 37 C 376.218 34.525, 376.884 32.586, 377.287 32.690 C 377.689 32.795, 380.088 33.191, 382.619 33.570 L 387.219 34.260 386.646 37.794 C 385.997 41.792, 384.688 43.543, 383.087 42.554 C 381.299 41.449, 381.856 38.851, 384 38.290 C 386.734 37.575, 386.528 36, 383.700 36 C 380.834 36, 379 37.756, 379 40.500 C 379 43.076, 380.796 45, 383.200 45 C 384.333 45, 385 45.741, 385 47 C 385 50.436, 386.872 49.188, 388 45 C 388.792 42.059, 389.596 41, 391.039 41 C 393.443 41, 393.560 42.724, 391.324 45.195 C 390.155 46.486, 389.965 47.365, 390.695 48.095 C 391.425 48.825, 392.388 48.323, 393.871 46.436 C 395.042 44.948, 396 43.341, 396 42.865 C 396 41.370, 391.973 37.899, 390.964 38.523 C 390.434 38.850, 390 38.416, 390 37.559 C 390 35.702, 390.735 35.653, 396.557 37.119 C 399.001 37.734, 401 38.789, 401 39.462 C 401 40.136, 400.137 43.195, 399.083 46.260 C 397.284 51.489, 397.284 53, 399.085 53 C 399.499 53, 400.810 50.075, 402 46.500 C 403.190 42.925, 404.366 40, 404.614 40 C 404.861 40, 406.659 40.667, 408.609 41.481 C 411 42.480, 412.047 43.511, 411.827 44.648 C 411.401 46.847, 409 47.641, 409 45.583 C 409 44.712, 408.550 44, 408 44 C 406.711 44, 406.733 47.499, 408.053 52.250 C 408.635 54.347, 409.724 56, 410.522 56 C 411.664 56, 411.743 55.453, 410.913 53.271 C 410.162 51.295, 410.191 50.436, 411.020 50.160 C 411.649 49.950, 412.917 48.540, 413.837 47.027 C 415.220 44.753, 415.909 44.422, 417.799 45.121 C 419.746 45.842, 419.923 46.276, 418.983 48.032 C 418.217 49.464, 417.284 49.908, 415.939 49.481 C 413.582 48.733, 413.402 49.842, 415.617 51.462 C 417.096 52.544, 417.100 52.906, 415.657 55.696 C 414.195 58.524, 414.325 60, 416.036 60 C 416.422 60, 417.930 57.253, 419.386 53.896 C 421.802 48.326, 422.251 47.846, 424.517 48.415 C 426.262 48.853, 427 48.628, 427 47.658 C 427 44.748, 400.994 34.656, 383.853 30.915 C 375.841 29.166, 374.472 28.530, 371.094 24.978 C 367.300 20.990, 363.350 19.857, 360.200 21.855 M 361.380 24.452 C 360.409 26.984, 361.979 28.001, 366.809 27.968 L 371.500 27.937 368.694 25.468 C 365.561 22.712, 362.226 22.248, 361.380 24.452 M 325 27.695 C 305.997 29.730, 275.495 38.522, 276.685 41.621 C 277.199 42.962, 278.367 42.900, 282.621 41.305 C 283.924 40.817, 285.286 43.728, 284.414 45.139 C 284.047 45.732, 283.319 45.679, 282.500 45 C 281.539 44.203, 280.990 44.208, 280.489 45.018 C 280.110 45.631, 279.957 46.264, 280.150 46.424 C 283.694 49.371, 289.456 52.836, 290.125 52.423 C 291.661 51.473, 291.073 50.354, 288.398 49.136 C 286.365 48.209, 286.042 47.654, 286.920 46.597 C 287.699 45.658, 287.740 44.446, 287.053 42.640 C 286.219 40.446, 286.393 39.860, 288.159 38.915 C 289.781 38.047, 290.448 38.099, 291.112 39.147 C 292.437 41.237, 292.157 43, 290.500 43 C 289.675 43, 289 43.450, 289 44 C 289 44.550, 289.923 45, 291.052 45 C 292.433 45, 293.446 45.981, 294.150 48 C 294.725 49.650, 295.875 51, 296.705 51 C 297.535 51, 298.006 50.437, 297.753 49.750 C 294.447 40.793, 293.821 37.727, 295.131 36.898 C 297.445 35.432, 299.741 35.902, 300.277 37.952 C 300.558 39.026, 300.273 40.122, 299.644 40.389 C 298.433 40.903, 301.588 44, 303.322 44 C 304.143 44, 303.955 40.849, 302.844 36 C 302.611 34.984, 303.284 34.500, 304.931 34.500 C 307.098 34.500, 307.512 35.178, 308.750 40.750 C 309.673 44.905, 310.624 47, 311.588 47 C 313.090 47, 313.047 46.472, 310.823 37.607 C 310.073 34.619, 310.155 33.518, 311.173 32.872 C 313.336 31.501, 313.805 31.833, 314.536 35.250 C 315.445 39.499, 316.740 41, 319.500 41 C 322.837 41, 324.229 38.736, 323.448 34.576 C 322.861 31.446, 323.026 31, 324.772 31 C 326.489 31, 326.864 31.905, 327.463 37.500 C 327.943 41.978, 328.583 44, 329.521 44 C 330.597 44, 330.760 42.528, 330.297 37 L 329.710 30 336.355 30 C 341.595 30, 343 30.317, 343 31.500 C 343 32.564, 341.910 33.004, 339.250 33.015 C 333.907 33.037, 332.649 34.055, 334.572 36.799 C 336.351 39.339, 338 39.676, 338 37.500 C 338 36.675, 338.413 36, 338.918 36 C 339.423 36, 340.521 35.737, 341.357 35.417 C 342.545 34.961, 342.945 35.762, 343.188 39.089 C 343.360 41.430, 344.063 43.530, 344.750 43.756 C 345.671 44.058, 346 42.303, 346 37.083 C 346 30.667, 346.188 30, 348 30 C 349.111 30, 350 29.333, 350 28.500 C 350 27.250, 348.210 27.027, 339.250 27.160 C 333.337 27.248, 326.925 27.489, 325 27.695 M 289.638 31.500 C 289.955 32.325, 290.841 33, 291.607 33 C 292.373 33, 293 32.325, 293 31.500 C 293 30.675, 292.115 30, 291.031 30 C 289.692 30, 289.247 30.480, 289.638 31.500 M 318.143 31.912 C 317.204 32.492, 316.998 33.713, 317.473 35.875 C 318.263 39.472, 321.037 40.174, 320.930 36.750 C 320.812 32.998, 319.650 30.980, 318.143 31.912 M 261.028 47.625 C 248.515 54.589, 226 71.537, 226 73.991 C 226 75.679, 227.776 75.975, 229.007 74.491 C 230.075 73.205, 230.705 73.411, 233.680 76.024 C 235.572 77.685, 237.591 78.753, 238.167 78.397 C 238.841 77.980, 238.974 78.507, 238.540 79.875 C 237.499 83.154, 239.730 82.422, 241.559 78.885 C 242.744 76.594, 243.465 76.065, 244.285 76.885 C 244.898 77.498, 245.760 78, 246.200 78 C 247.825 78, 246.911 75.726, 243.655 71.668 C 238.825 65.649, 238.759 65.388, 241.592 63.532 C 244.025 61.938, 244.239 61.945, 245.500 63.670 C 246.439 64.953, 246.526 65.866, 245.795 66.747 C 245 67.705, 245.489 68, 247.878 68 C 251.504 68, 251.669 67.412, 249 64 C 246.616 60.952, 246.496 59.407, 248.582 58.607 C 249.452 58.273, 250.305 58, 250.478 58 C 250.650 58, 252.274 60.362, 254.085 63.250 C 255.897 66.138, 257.526 68.695, 257.706 68.933 C 257.886 69.172, 258.475 68.925, 259.015 68.385 C 259.658 67.742, 258.815 65.528, 256.577 61.979 C 254.696 58.996, 253.379 56.195, 253.650 55.757 C 254.534 54.326, 264.354 49.101, 265.188 49.616 C 266.741 50.576, 265.979 51.696, 262.500 53.570 C 260.096 54.865, 259 56.159, 259 57.704 C 259 61.189, 266.699 65.198, 267.730 62.250 C 267.970 61.563, 267.504 61, 266.694 61 C 265.884 61, 264.202 60.174, 262.956 59.165 L 260.690 57.331 263.068 55.665 C 266.471 53.281, 267.420 53.561, 269.299 57.500 C 270.217 59.425, 271.425 61, 271.984 61 C 273.563 61, 273.219 59.491, 270.268 53.474 C 268.062 48.976, 267.798 47.743, 268.896 47.064 C 270.187 46.266, 269.661 43.987, 268.191 44.011 C 267.811 44.018, 264.588 45.644, 261.028 47.625 M 439.731 47.602 C 439.429 47.904, 439.560 49.467, 440.022 51.075 C 441.011 54.524, 440.510 54.655, 436.500 52 C 433.011 49.689, 431.997 49.520, 432.007 51.250 C 432.011 51.938, 433.788 53.633, 435.955 55.018 L 439.897 57.536 437.850 60.768 C 435.789 64.023, 433.666 64.887, 432.473 62.956 C 431.578 61.508, 434.025 58.796, 435.660 59.423 C 436.405 59.709, 437 59.285, 437 58.469 C 437 56.684, 432.906 56.494, 431.200 58.200 C 429.351 60.049, 429.777 63.730, 432.022 65.303 C 433.221 66.143, 433.804 67.347, 433.454 68.259 C 432.231 71.445, 434.889 70.854, 436.868 67.499 C 438.952 63.968, 441.277 63.021, 442.602 65.166 C 443.024 65.848, 442.131 67.281, 440.450 68.621 C 437.154 71.249, 437.795 72.870, 441.468 71.196 C 445.119 69.533, 445.912 65.157, 442.991 62.791 C 441.532 61.610, 441.030 60.570, 441.629 59.971 C 442.229 59.371, 445.145 61.063, 449.540 64.559 C 456.416 70.031, 459.779 74.051, 454.691 70.717 C 451.255 68.466, 449.312 68.548, 448 71 C 447.232 72.435, 447.247 73.593, 448.053 75.099 C 449.107 77.069, 448.987 77.156, 446.088 76.519 C 444.152 76.094, 443 76.237, 443 76.901 C 443 77.485, 444.238 78.233, 445.750 78.564 C 450.567 79.620, 450.856 79.834, 450.306 81.939 C 449.999 83.112, 450.248 84, 450.883 84 C 451.498 84, 452 83.341, 452 82.535 C 452 81.730, 452.927 80.574, 454.061 79.967 C 456.702 78.554, 456.033 76.500, 452.930 76.500 C 451.396 76.500, 450.407 75.834, 450.175 74.644 C 449.559 71.489, 451.447 70.778, 454.360 73.068 C 456.352 74.636, 457.401 74.912, 458.355 74.121 C 459.282 73.351, 459.980 73.380, 460.824 74.224 C 461.677 75.077, 462.301 75.099, 463.097 74.303 C 463.893 73.507, 461.716 71.144, 455.163 65.690 C 450.197 61.556, 445.395 57.761, 444.494 57.257 C 443.566 56.737, 442.611 54.521, 442.293 52.145 C 441.746 48.069, 440.851 46.482, 439.731 47.602 M 445 51.500 C 445 52.417, 445.484 53.005, 446.075 52.808 C 446.666 52.611, 447.150 52.023, 447.150 51.500 C 447.150 50.977, 446.666 50.389, 446.075 50.192 C 445.484 49.995, 445 50.583, 445 51.500 M 337.220 59.073 C 292.253 63.418, 252.742 95.251, 238.637 138.500 C 216.975 204.915, 259 275.351, 328.108 288.461 C 338.661 290.463, 359.370 290.457, 369.953 288.449 C 392.456 284.181, 413.775 273.013, 429.885 257.054 C 443.373 243.692, 453.170 227.876, 458.941 210.146 C 462.918 197.929, 464.384 188.326, 464.384 174.500 C 464.384 154.624, 460.697 139.136, 451.845 121.833 C 433.627 86.221, 399.474 63.086, 359.144 59.039 C 353.448 58.468, 348.048 58.061, 347.144 58.136 C 346.240 58.211, 341.774 58.633, 337.220 59.073 M 234.441 69.419 C 232.540 70.810, 232.549 70.891, 234.924 73.419 C 239.171 77.940, 242.934 75.523, 239.337 70.584 C 237.174 67.615, 236.974 67.567, 234.441 69.419 M 474 96 C 474 96.550, 473.325 97, 472.500 97 C 470.825 97, 470.481 98.561, 471.956 99.473 C 472.482 99.798, 472.702 100.612, 472.445 101.282 C 472.142 102.073, 473.033 102.500, 474.989 102.500 C 477.042 102.500, 478 102.007, 478 100.950 C 478 100.097, 478.540 98.860, 479.200 98.200 C 480.133 97.267, 479.911 97, 478.200 97 C 476.990 97, 476 96.550, 476 96 C 476 95.450, 475.550 95, 475 95 C 474.450 95, 474 95.450, 474 96 M 217.680 98.391 C 217.341 99.276, 216.374 100, 215.531 100 C 214.689 100, 214 100.450, 214 101 C 214 101.550, 214.502 102, 215.117 102 C 215.731 102, 216.016 102.832, 215.750 103.850 C 215.358 105.346, 215.813 105.680, 218.131 105.600 C 220.008 105.534, 220.996 104.966, 220.998 103.950 C 220.999 103.098, 221.540 101.860, 222.200 101.200 C 223.133 100.267, 223.033 100, 221.750 100 C 220.842 100, 219.694 99.276, 219.199 98.391 C 218.371 96.911, 218.248 96.911, 217.680 98.391 M 317.321 114.150 C 314.476 115.576, 312.598 120.239, 313.351 124.006 L 313.950 127 302.975 127 L 292 127 292 129.500 C 292 131.889, 292.267 132, 298 132 L 304 132 304 135 C 304 138.367, 302.561 138.818, 299.798 136.317 C 298.109 134.789, 297.793 134.778, 296.371 136.200 C 294.499 138.073, 295.039 139.350, 301.683 148.750 C 306.171 155.099, 307.848 156.093, 309.900 153.621 C 310.798 152.539, 310.267 151.312, 307.435 147.922 L 303.826 143.602 306.413 141.718 C 308.435 140.245, 309 138.977, 309 135.917 C 309 132.014, 309.014 132, 313 132 C 316.572 132, 317 132.261, 317 134.437 C 317 136.455, 316.442 136.927, 313.750 137.187 C 311.034 137.449, 310.500 137.910, 310.500 140 C 310.500 142.090, 311.034 142.551, 313.750 142.813 L 317 143.127 317 149.563 C 317 155.762, 317.092 156, 319.500 156 L 322 156 322 144 L 322 132 325.500 132 C 328.833 132, 329 132.167, 329 135.500 C 329 138.567, 329.310 139, 331.500 139 C 333.690 139, 334 138.567, 334 135.500 C 334 132.667, 334.381 132, 336 132 C 337.467 132, 338 131.333, 338 129.500 C 338 127.980, 337.430 127, 336.547 127 C 335.748 127, 334.047 124.901, 332.768 122.336 C 329.128 115.037, 322.529 111.540, 317.321 114.150 M 356.434 114.425 C 354.616 115.754, 354.719 116.038, 358.766 120.837 C 361.095 123.599, 363 126.116, 363 126.429 C 363 128.166, 359.994 126.434, 355.747 122.251 C 351.791 118.354, 350.756 117.771, 349.978 119.001 C 348.526 121.298, 348.723 121.665, 352.750 124.168 L 356.500 126.500 348.750 126.792 C 341.822 127.053, 341 127.292, 341 129.042 C 341 130.862, 341.742 131, 351.500 131 C 360.167 131, 362 131.262, 362 132.500 C 362 133.628, 360.791 134, 357.122 134 C 351.352 134, 349.502 135.561, 350.904 139.247 C 352.465 143.353, 356.928 146.236, 360.645 145.539 C 364.339 144.846, 365.106 145.599, 363.915 148.750 C 363.275 150.443, 362.265 151, 359.839 151 C 357.234 151, 355.569 149.922, 351.191 145.402 C 346.509 140.568, 345.574 139.997, 344.350 141.222 C 343.125 142.446, 343.479 143.262, 346.939 147.194 C 353.638 154.803, 361.158 157.023, 366.365 152.927 C 368.366 151.354, 368.996 149.970, 368.985 147.177 C 368.961 141.603, 367.921 140.597, 362.990 141.386 C 360.322 141.812, 358.267 141.637, 357.388 140.907 C 354.837 138.790, 355.955 138, 361.500 138 L 367 138 367 134.500 L 367 131 376 131 L 385 131 385 137.378 C 385 144.356, 383.752 146.386, 379.805 145.827 C 378.041 145.577, 377.428 144.764, 377.195 142.367 C 376.932 139.658, 377.303 139.090, 379.935 138.172 C 382.080 137.425, 382.803 136.651, 382.383 135.556 C 381.481 133.206, 377.220 133.689, 374.455 136.455 C 371.394 139.516, 371.272 143.805, 374.143 147.454 C 375.994 149.808, 376.878 150.132, 380.643 149.832 C 384.965 149.488, 385 149.512, 385 152.743 C 385 155.550, 385.345 156, 387.500 156 C 389.943 156, 390 155.831, 390 148.535 C 390 142, 390.259 140.932, 392.078 139.958 C 393.221 139.346, 394.796 139.092, 395.578 139.392 C 397.754 140.226, 397.367 146.358, 395.004 148.497 C 393.480 149.875, 393.272 150.623, 394.126 151.652 C 395.944 153.842, 397.898 153.213, 400.037 149.750 C 404.570 142.412, 399.888 133.094, 392.979 135.702 C 390.098 136.789, 390 136.730, 390 133.913 L 390 131 397.500 131 C 404.333 131, 405 130.822, 405 129 C 405 127.069, 404.333 127, 385.750 126.999 L 366.500 126.998 363.589 121.749 C 358.683 112.901, 358.614 112.831, 356.434 114.425 M 317.223 116.557 C 314.798 118.255, 314.242 122.714, 316.035 126.066 C 317.031 127.926, 316.630 128, 305.535 128 C 298.512 128, 294 128.391, 294 129 C 294 129.556, 296.667 130, 300 130 L 306 130 306 133.800 C 306 139.666, 302.641 141.795, 298.829 138.345 C 297.823 137.435, 297 137.158, 297 137.731 C 297 139.061, 304.523 150.359, 306.502 152.002 C 308.936 154.022, 308.167 151.794, 304.972 147.572 C 301.378 142.821, 301.360 142.612, 304.443 141.208 C 306.461 140.288, 306.940 139.260, 307.193 135.297 L 307.500 130.500 313.250 130.200 L 319 129.900 319 134.450 C 319 138.983, 318.987 139, 315.500 139 C 313.575 139, 312 139.450, 312 140 C 312 140.550, 313.575 141, 315.500 141 L 319 141 319.201 147.750 C 319.338 152.337, 319.578 150.655, 319.951 142.500 L 320.500 130.500 325.750 130.198 L 331 129.895 331.160 133.698 L 331.320 137.500 331.732 134.138 C 332.009 131.871, 332.772 130.611, 334.072 130.271 C 336.211 129.712, 336.718 128, 334.744 128 C 334.053 128, 332.456 125.750, 331.195 123 C 327.903 115.825, 322.093 113.146, 317.223 116.557 M 316.776 119.593 C 315.826 121.678, 315.886 122.707, 317.081 124.843 C 318.406 127.211, 319.243 127.532, 324.784 127.798 C 331.342 128.112, 331.916 127.648, 329.875 123.684 C 327.580 119.228, 324.723 117, 321.304 117 C 318.672 117, 317.705 117.554, 316.776 119.593 M 318.988 119.514 C 318.029 120.670, 317.919 121.873, 318.597 123.810 C 319.415 126.147, 320.158 126.540, 324.269 126.805 C 326.871 126.972, 328.998 126.747, 328.996 126.305 C 328.990 124.865, 325.055 119, 324.096 119 C 323.583 119, 322.524 118.755, 321.742 118.454 C 320.960 118.154, 319.721 118.631, 318.988 119.514 M 490.265 119.404 C 486.513 120.675, 486.445 120.771, 487.224 123.750 C 487.916 126.396, 489.841 126.795, 489.639 124.250 C 489.416 121.445, 493.430 122.003, 493.830 124.832 C 494.848 132.018, 484.068 133.137, 482.502 126.008 C 481.596 121.883, 479.564 122.069, 480.390 126.202 C 481.899 133.746, 489.546 136.545, 494.664 131.427 C 496.751 129.340, 497.133 128.207, 496.684 125.438 C 496.379 123.560, 495.538 121.187, 494.815 120.165 C 493.687 118.571, 493.041 118.463, 490.265 119.404 M 201.656 123.133 C 199.543 124.361, 196.645 130.616, 197.527 132.044 C 198.631 133.829, 199.866 133.010, 200.184 130.282 C 200.381 128.590, 201.495 127.007, 203.135 126.091 C 205.495 124.773, 206.042 124.798, 208.385 126.333 C 211.088 128.104, 212.087 133.210, 209.984 134.510 C 208.908 135.175, 209.578 137, 210.899 137 C 211.974 137, 214 132.347, 214 129.876 C 214 127.100, 208.680 121.993, 205.827 122.030 C 204.547 122.047, 202.670 122.543, 201.656 123.133 M 491.072 135.880 C 487.537 136.807, 484.439 138.182, 484.188 138.935 C 483.839 139.984, 484.464 140.151, 486.866 139.652 C 497.593 137.421, 497.075 137.162, 491.500 141.969 C 485.804 146.878, 485.720 147.006, 486.908 148.884 C 487.647 150.052, 488.893 149.997, 494.892 148.526 C 499.465 147.406, 502 146.288, 502 145.392 C 502 144.627, 501.887 144.005, 501.750 144.012 C 501.613 144.018, 499.025 144.688, 496 145.500 C 492.975 146.312, 490.302 146.982, 490.060 146.988 C 489.817 146.995, 492.036 144.835, 494.989 142.190 C 498.855 138.727, 500.178 136.907, 499.711 135.690 C 498.955 133.720, 499.337 133.712, 491.072 135.880 M 195.387 138.980 C 194.677 143.421, 194.704 143.892, 195.686 144.250 C 196.064 144.387, 196.741 143.080, 197.190 141.345 C 197.849 138.804, 198.409 138.294, 200.066 138.727 C 201.584 139.125, 202.051 139.950, 201.848 141.883 C 201.539 144.834, 203.310 146.092, 203.847 143.303 C 204.342 140.733, 205.629 139.644, 207.378 140.315 C 208.554 140.766, 208.696 141.573, 208.015 143.948 C 207.358 146.239, 207.465 147, 208.445 147 C 209.612 147, 211 142.901, 211 139.455 C 211 138.440, 199.854 135, 196.564 135 C 196.267 135, 195.737 136.791, 195.387 138.980 M 329.500 142 C 329.840 142.550, 330.740 143, 331.500 143 C 332.260 143, 333.160 142.550, 333.500 142 C 333.852 141.431, 332.991 141, 331.500 141 C 330.009 141, 329.148 141.431, 329.500 142 M 329 145 C 329 145.550, 330.125 146, 331.500 146 C 332.875 146, 334 145.550, 334 145 C 334 144.450, 332.875 144, 331.500 144 C 330.125 144, 329 144.450, 329 145 M 193 148.883 C 193 150.005, 196.552 150.969, 200.750 150.986 C 205.578 151.007, 204.707 152.258, 198.250 154.580 C 193.956 156.124, 192.500 157.135, 192.500 158.574 C 192.500 160.217, 193.568 160.631, 199.775 161.392 C 203.776 161.882, 207.363 161.970, 207.746 161.587 C 208.902 160.432, 205.728 159.032, 201.917 159.015 C 196.179 158.991, 196.452 157.716, 202.694 155.394 C 206.765 153.879, 208.590 152.644, 208.801 151.262 C 209.058 149.573, 208.341 149.199, 203.801 148.654 C 196.454 147.772, 193 147.845, 193 148.883 M 329 152 C 329 155.600, 329.250 156, 331.500 156 C 333.750 156, 334 155.600, 334 152 C 334 148.400, 333.750 148, 331.500 148 C 329.250 148, 329 148.400, 329 152 M 490.750 151.728 C 488.209 151.994, 487 152.617, 487 153.662 C 487 154.974, 488.077 155.097, 494.250 154.488 C 501.967 153.727, 503 153.426, 503 151.941 C 503 151.022, 498.285 150.940, 490.750 151.728 M 488.014 160.250 C 488.031 164.448, 488.995 168, 490.117 168 C 490.602 168, 491 167.148, 491 166.107 C 491 163.722, 492.877 163, 499.082 163 C 502.912 163, 504 162.648, 504 161.409 C 504 160.078, 502.899 159.874, 497.264 160.159 C 491.483 160.452, 490.480 160.252, 490.191 158.750 C 489.609 155.734, 487.999 156.844, 488.014 160.250 M 205 165 C 205 166.795, 204.333 167, 198.500 167 C 193.389 167, 192 167.321, 192 168.500 C 192 169.679, 193.389 170, 198.500 170 C 204.333 170, 205 170.205, 205 172 C 205 173.100, 205.450 174, 206 174 C 206.550 174, 207 171.525, 207 168.500 C 207 165.475, 206.550 163, 206 163 C 205.450 163, 205 163.900, 205 165 M 300.394 165.887 C 289.892 170.711, 289.881 186.394, 300.376 191.374 C 302.999 192.619, 305.972 193.007, 311.244 192.794 L 318.500 192.500 318.500 189.500 L 318.500 186.500 310.659 186 C 303.857 185.566, 302.554 185.174, 300.827 183.037 C 299.386 181.256, 299.002 179.738, 299.440 177.551 C 300.422 172.640, 302.311 171.549, 310.782 171 L 318.500 170.500 318.500 167.500 L 318.500 164.500 311.500 164.251 C 306.347 164.067, 303.416 164.499, 300.394 165.887 M 321 167.500 L 321 171 328.045 171 C 334.192 171, 335.404 171.313, 337.545 173.455 C 342.646 178.555, 338.789 186, 331.045 186 C 328.116 186, 327 185.586, 327 184.500 C 327 183.500, 326 183, 324 183 C 321.067 183, 321 183.111, 321 188 L 321 193 328.099 193 C 339.600 193, 345.778 188.568, 346.694 179.659 C 347.659 170.268, 340.091 164, 327.788 164 L 321 164 321 167.500 M 357.450 165.354 C 355.773 166.114, 353.186 168.179, 351.700 169.944 C 349.164 172.959, 349 173.754, 349 183.077 L 349 193 352 193 C 354.762 193, 355 192.722, 355 189.500 C 355 187.056, 355.452 186, 356.500 186 C 357.548 186, 358 184.944, 358 182.500 C 358 180.056, 357.548 179, 356.500 179 C 354.639 179, 354.635 178.606, 356.463 175.072 C 358.900 170.360, 364.270 169.529, 367.826 173.314 C 369.714 175.324, 370 176.773, 370 184.314 L 370 193 373.500 193 L 377 193 377 184.468 C 377 179.455, 376.428 174.567, 375.613 172.617 C 372.857 166.021, 363.895 162.437, 357.450 165.354 M 387.020 165.752 C 382.223 168.162, 379 173.284, 379 178.500 C 379 187.690, 385.862 192.996, 397.750 192.998 L 405 193 405 189.500 L 405 186 397.674 186 C 391.310 186, 390.063 185.696, 388.174 183.686 C 385.098 180.411, 385.302 175.694, 388.635 173.073 C 390.719 171.433, 392.704 171, 398.135 171 L 405 171 405 167.500 L 405 164 397.750 164.002 C 392.844 164.003, 389.375 164.568, 387.020 165.752 M 298.400 170.400 C 295.549 173.251, 295 174.520, 295 178.265 C 295 186.222, 300.991 191, 310.968 191 C 314.598 191, 316 190.613, 316 189.609 C 316 188.568, 314.307 188.198, 309.250 188.134 C 303.050 188.056, 302.276 187.802, 299.750 185.009 C 295.933 180.789, 295.998 175.848, 299.923 171.923 C 302.561 169.285, 303.487 169, 309.423 169 C 313.141 169, 316 168.565, 316 168 C 316 167.427, 312.967 167, 308.900 167 C 302.159 167, 301.628 167.172, 298.400 170.400 M 489 169.815 C 489 170.313, 491.813 171.121, 495.250 171.610 C 501.013 172.431, 501.500 172.695, 501.500 175 C 501.500 177.368, 501.171 177.516, 495.250 177.798 C 490.497 178.024, 489 178.454, 489 179.593 C 489 180.805, 490.285 181.035, 495.716 180.796 C 501.863 180.525, 502.562 180.267, 503.966 177.750 C 505.345 175.278, 505.345 174.722, 503.966 172.250 C 502.562 169.733, 501.863 169.475, 495.716 169.204 C 492.022 169.042, 489 169.316, 489 169.815 M 191.694 176.639 C 190.484 177.850, 192.124 179, 195.059 179 C 199.008 179, 198.969 181.766, 195 183.150 C 193.350 183.725, 192 184.827, 192 185.598 C 192 187.353, 193.767 187.335, 196.997 185.547 C 198.684 184.614, 199.883 184.488, 200.692 185.159 C 201.351 185.706, 202.927 186.006, 204.195 185.827 C 206.180 185.545, 206.542 184.840, 206.805 180.750 L 207.110 176 199.721 176 C 195.658 176, 192.046 176.288, 191.694 176.639 M 200.187 180.750 C 200.370 181.713, 201.528 182.644, 202.760 182.820 C 204.461 183.062, 205 182.641, 205 181.070 C 205 179.513, 204.362 179, 202.427 179 C 200.515 179, 199.939 179.450, 200.187 180.750 M 359 182.500 C 359 184.425, 359.450 186, 360 186 C 360.550 186, 361 184.425, 361 182.500 C 361 180.575, 360.550 179, 360 179 C 359.450 179, 359 180.575, 359 182.500 M 362 182.441 C 362 184.398, 362.450 186, 363 186 C 363.550 186, 364 184.677, 364 183.059 C 364 181.441, 363.550 179.840, 363 179.500 C 362.405 179.132, 362 180.323, 362 182.441 M 365.252 182.500 C 365.263 184.700, 365.468 185.482, 365.707 184.238 C 365.946 182.994, 365.937 181.194, 365.687 180.238 C 365.437 179.282, 365.241 180.300, 365.252 182.500 M 321 181 C 321 181.550, 322.350 182, 324 182 C 325.650 182, 327 181.550, 327 181 C 327 180.450, 325.650 180, 324 180 C 322.350 180, 321 180.450, 321 181 M 489.035 184.934 C 488.466 185.998, 488 188.187, 488 189.798 C 488 192.526, 488.321 192.772, 492.640 193.364 C 500.192 194.399, 503 194.165, 503 192.500 C 503 191.567, 502.056 191, 500.500 191 C 498.520 191, 498 190.495, 498 188.571 C 498 183.603, 491.220 180.852, 489.035 184.934 M 490.667 186.667 C 489.238 188.095, 490.116 189.789, 492.524 190.249 C 495.367 190.793, 496.295 189.933, 495.396 187.590 C 494.782 185.989, 491.906 185.428, 490.667 186.667 M 198.185 189.023 C 195.261 189.449, 192.746 189.956, 192.595 190.149 C 191.789 191.183, 193.386 199, 194.404 199 C 195.180 199, 195.455 197.774, 195.190 195.500 C 194.815 192.290, 194.997 192, 197.391 192 C 199.623 192, 200 192.433, 200 195 C 200 199.037, 201.792 198.838, 202.187 194.758 C 202.612 190.354, 205.509 189.793, 206.341 193.953 C 206.676 195.629, 207.464 197, 208.092 197 C 208.788 197, 208.998 196.122, 208.630 194.750 C 208.299 193.512, 208.021 191.488, 208.014 190.250 C 207.999 187.763, 207.377 187.685, 198.185 189.023 M 487 196.905 C 487 198.448, 488.509 200.017, 492.178 202.291 L 497.356 205.500 491.928 206.341 C 484.404 207.507, 484 207.686, 484 209.861 C 484 211.414, 485.358 212.117, 491.047 213.512 C 494.923 214.461, 498.343 214.990, 498.647 214.686 C 499.819 213.514, 497.824 212.146, 494 211.500 C 489.190 210.687, 487.716 209, 491.816 209 C 496.713 209, 501 207.823, 501 206.479 C 501 205.780, 498.733 203.754, 495.962 201.976 C 493.191 200.198, 491.083 198.583, 491.278 198.388 C 491.473 198.194, 493.175 198.477, 495.060 199.017 C 499.408 200.264, 503 200.278, 503 199.047 C 503 197.968, 497.570 196.255, 491.250 195.342 C 487.363 194.781, 487 194.914, 487 196.905 M 310 202.552 C 310 202.947, 311.125 204.313, 312.500 205.588 C 313.875 206.862, 315 208.376, 315 208.952 C 315 209.655, 306.760 210, 290 210 C 274 210, 265 210.360, 265 211 C 265 211.550, 267.223 212, 269.941 212 C 272.659 212, 275.160 212.450, 275.500 213 C 275.878 213.611, 274.344 214, 271.559 214 C 266.618 214, 265.868 214.812, 269 216.768 C 271.449 218.297, 271.628 220.195, 269.286 219.794 C 268.300 219.625, 267.420 220.243, 267.213 221.250 C 267 222.285, 267.453 223, 268.320 223 C 269.126 223, 270.045 223.675, 270.362 224.500 C 271.158 226.576, 273.009 226.388, 272.830 224.250 C 272.459 219.828, 273.087 217, 274.440 217 C 275.375 217, 275.988 218.287, 276.190 220.673 C 276.360 222.693, 277.063 224.530, 277.750 224.756 C 278.665 225.057, 279 223.402, 279 218.583 C 279 213.398, 279.319 212, 280.500 212 C 281.664 212, 282 213.321, 282 217.893 C 282 222.125, 282.410 223.943, 283.454 224.344 C 284.611 224.788, 284.967 223.639, 285.204 218.701 L 285.500 212.500 290.917 212.500 C 294.361 212.500, 296.485 212.955, 296.750 213.750 C 297.037 214.612, 295.917 215, 293.142 215 C 288.819 215, 287.636 215.889, 288.604 218.410 C 289.269 220.144, 292 220.618, 292 219 C 292 218.450, 293.096 218, 294.437 218 C 296.441 218, 296.929 218.563, 297.187 221.173 C 297.359 222.918, 298.063 224.531, 298.750 224.756 C 299.665 225.057, 300 223.402, 300 218.583 C 300 213.494, 300.330 212, 301.452 212 C 302.533 212, 302.981 213.579, 303.202 218.171 C 303.387 221.991, 303.976 224.498, 304.750 224.754 C 305.665 225.056, 306 223.403, 306 218.583 L 306 212 310 212 C 312.200 212, 314 212.450, 314 213 C 314 213.550, 313.086 214, 311.969 214 C 307.727 214, 308.228 221.517, 312.542 222.600 C 313.923 222.946, 315.513 224.091, 316.077 225.143 C 317.575 227.943, 318.674 226.645, 318.205 222.629 C 317.777 218.961, 315.328 216.982, 314.355 219.517 C 313.515 221.706, 311 221.319, 311 219 C 311 217.455, 311.667 217, 313.930 217 C 316.208 217, 316.932 216.499, 317.180 214.750 C 317.464 212.757, 318.156 212.466, 323.250 212.200 C 327.675 211.969, 329 212.225, 329 213.311 C 329 214.278, 328.211 214.572, 326.494 214.244 C 323.610 213.692, 321 215.461, 321 217.967 C 321 220.419, 324.580 223.375, 326.607 222.597 C 327.575 222.226, 329.077 222.664, 330.145 223.631 C 331.933 225.249, 332 225.086, 332 219.124 C 332 214.547, 332.390 212.787, 333.500 212.362 C 337.209 210.938, 334.295 210, 326.168 210 L 317.335 210 314.918 206.316 C 312.685 202.914, 310 200.859, 310 202.552 M 368 202.965 C 368 203.495, 368.847 204.383, 369.882 204.937 C 370.918 205.491, 372.062 206.719, 372.425 207.666 C 373.015 209.204, 372.867 209.189, 371.037 207.533 C 369.910 206.513, 368.686 205.981, 368.317 206.350 C 367.948 206.719, 368.513 207.677, 369.573 208.479 C 371.358 209.829, 371.183 209.939, 367.191 209.968 C 364.580 209.987, 363.125 210.394, 363.500 211 C 363.840 211.550, 365.891 212, 368.059 212 C 370.561 212, 372 212.460, 372 213.260 C 372 214.016, 370.702 214.515, 368.750 214.510 C 366.194 214.502, 365.435 214.954, 365.197 216.625 C 364.817 219.286, 367.717 222.307, 370.063 221.694 C 371.197 221.397, 372.004 221.906, 372.320 223.116 C 373.086 226.043, 375 225.334, 375 222.122 C 375 220.540, 375.751 218.627, 376.669 217.872 C 378.181 216.628, 378.278 216.800, 377.701 219.711 C 376.942 223.548, 378.430 224.934, 380.053 221.902 C 381.581 219.045, 379.805 215, 377.021 215 C 375.891 215, 375 214.339, 375 213.500 C 375 212.292, 376.556 212, 383 212 C 389.597 212, 391 212.275, 391 213.567 C 391 214.680, 390.419 214.950, 389 214.500 C 385.484 213.384, 383 214.847, 383 218.032 C 383 221.283, 385.900 223.484, 388.919 222.526 C 390.066 222.162, 390.985 222.518, 391.350 223.470 C 392.721 227.043, 394 224.644, 394 218.500 L 394 212 401.441 212 C 408.775 212, 411.988 213.234, 407.972 214.509 C 406.841 214.868, 404.212 214.874, 402.129 214.522 C 397.625 213.761, 395.435 215.593, 396.536 219.202 C 397.365 221.922, 399.900 225, 401.310 225 C 401.860 225, 401.529 224.137, 400.575 223.082 C 398.783 221.103, 398.727 216.307, 400.500 216.750 C 401.050 216.887, 401.500 217.412, 401.500 217.917 C 401.500 219.866, 403.197 220.399, 404.125 218.742 C 405.312 216.621, 407 216.458, 407 218.465 C 407 220.172, 410.013 222, 412.827 222 C 413.905 222, 415.045 222.675, 415.362 223.500 C 416.722 227.045, 418 224.623, 418 218.500 C 418 213.157, 418.290 212, 419.631 212 C 420.928 212, 421.148 212.698, 420.708 215.414 C 420.289 217.995, 420.623 219.254, 422.077 220.569 C 423.193 221.580, 424 221.825, 424 221.155 C 424 220.520, 425.094 220, 426.430 220 C 428.160 220, 428.953 220.626, 429.180 222.172 C 429.356 223.366, 430.063 224.529, 430.750 224.755 C 431.665 225.056, 432 223.403, 432 218.583 C 432 213.287, 432.305 212, 433.559 212 C 434.416 212, 434.840 211.550, 434.500 211 C 434.111 210.370, 422.996 210, 404.461 210 L 375.041 210 373 206 C 371.170 202.413, 368 200.489, 368 202.965 M 201.768 207.337 C 196.980 208.876, 195.263 209.857, 195.820 210.737 C 196.379 211.621, 197.498 211.717, 199.741 211.074 C 202.679 210.232, 202.920 210.360, 203.519 213.087 C 204.452 217.336, 206.370 216.786, 205.566 212.500 C 204.987 209.416, 205.155 209, 206.979 209 C 208.267 209, 209.409 209.945, 210 211.500 C 211.202 214.661, 213.411 214.888, 212.434 211.750 C 210.933 206.931, 210.019 205.003, 209.275 205.087 C 208.849 205.135, 205.471 206.148, 201.768 207.337 M 253.204 217.071 C 253.401 221.919, 253.932 224.483, 254.796 224.769 C 255.795 225.099, 256.024 223.531, 255.796 217.929 C 255.599 213.081, 255.068 210.517, 254.204 210.231 C 253.205 209.901, 252.976 211.469, 253.204 217.071 M 258 216.882 C 258 220.732, 258.450 224.160, 259 224.500 C 259.630 224.890, 260 222.530, 260 218.118 C 260 214.268, 259.550 210.840, 259 210.500 C 258.370 210.110, 258 212.470, 258 216.882 M 341.500 211 C 341.840 211.550, 344.116 212, 346.559 212 C 349.840 212, 351 212.392, 351 213.500 C 351 214.550, 349.941 215, 347.469 215 C 345.126 215, 343.727 215.549, 343.312 216.631 C 342.581 218.534, 345.872 225.197, 347.153 224.406 C 347.631 224.110, 347.354 222.916, 346.539 221.753 C 344.815 219.291, 346.060 217, 349.122 217 C 350.602 217, 351 217.743, 351 220.500 C 351 222.425, 351.480 224, 352.067 224 C 352.705 224, 352.860 224.867, 352.452 226.151 C 351.914 227.848, 352.104 228.174, 353.353 227.695 C 354.223 227.361, 355.204 227.521, 355.531 228.051 C 356.639 229.844, 353.001 230.231, 350.492 228.587 C 349.122 227.689, 348 227.317, 348 227.761 C 348 229.132, 354.019 232.207, 355.552 231.619 C 357.441 230.894, 357.410 227.586, 355.500 226 C 354.476 225.150, 354 222.879, 354 218.846 C 354 214.516, 354.401 212.783, 355.500 212.362 C 359.110 210.976, 356.398 210, 348.941 210 C 343.823 210, 341.108 210.365, 341.500 211 M 438.204 217.071 C 438.401 221.919, 438.932 224.483, 439.796 224.769 C 440.795 225.099, 441.024 223.531, 440.796 217.929 C 440.599 213.081, 440.068 210.517, 439.204 210.231 C 438.205 209.901, 437.976 211.469, 438.204 217.071 M 443 216.882 C 443 220.732, 443.450 224.160, 444 224.500 C 444.630 224.890, 445 222.530, 445 218.118 C 445 214.268, 444.550 210.840, 444 210.500 C 443.370 210.110, 443 212.470, 443 216.882 M 411.312 213.370 C 411.643 214.235, 411.206 215.652, 410.338 216.519 C 408.305 218.552, 409.214 219.414, 412.516 218.585 C 414.642 218.052, 415.068 217.428, 414.813 215.224 C 414.615 213.512, 413.803 212.385, 412.604 212.157 C 411.222 211.895, 410.872 212.223, 411.312 213.370 M 424.667 212.667 C 424.300 213.033, 424 214.158, 424 215.167 C 424 216.456, 424.742 217, 426.500 217 C 428.500 217, 429 216.500, 429 214.500 C 429 212.742, 428.456 212, 427.167 212 C 426.158 212, 425.033 212.300, 424.667 212.667 M 482.573 217.336 C 477.419 222.491, 481.110 230, 488.800 230 C 493.492 230, 496.089 227.560, 496.218 223.032 C 496.332 219.021, 493.518 216.121, 488.764 215.349 C 485.764 214.862, 484.708 215.201, 482.573 217.336 M 324.349 217.487 C 323.334 218.229, 322.819 219.152, 323.205 219.538 C 324.117 220.450, 329 219.228, 329 218.088 C 329 216.481, 326.216 216.122, 324.349 217.487 M 367.500 217 C 366.359 218.846, 367.990 220.076, 370.089 218.953 C 371.171 218.373, 371.792 217.472, 371.469 216.950 C 370.698 215.702, 368.283 215.733, 367.500 217 M 386.250 216.662 C 384.302 217.448, 384.782 220, 386.878 220 C 389.591 220, 391.546 217.423, 389.444 216.617 C 388.560 216.278, 387.761 216.036, 387.668 216.079 C 387.576 216.122, 386.938 216.385, 386.250 216.662 M 202.635 219.073 C 199.394 221.622, 199.172 225.678, 202.073 229.365 C 204.588 232.563, 208.205 232.782, 212.750 230.011 C 215.357 228.421, 216 227.378, 216 224.737 C 216 222.926, 215.299 220.445, 214.443 219.223 C 212.374 216.268, 206.299 216.190, 202.635 219.073 M 484.250 218.662 C 482.237 219.475, 482.735 224.788, 484.934 225.965 C 487.530 227.354, 491.326 227.274, 492.800 225.800 C 496.720 221.880, 490.059 216.318, 484.250 218.662 M 204 222 C 202.900 223.100, 202 224.418, 202 224.929 C 202 226.336, 204.961 229, 206.524 229 C 209.109 229, 212.960 226.703, 213.563 224.800 C 214.994 220.292, 207.812 218.188, 204 222 M 428 228 C 428 228.550, 428.830 229, 429.845 229 C 430.860 229, 432.507 229.903, 433.506 231.006 C 434.504 232.110, 435.551 232.783, 435.831 232.502 C 436.112 232.222, 435.286 230.869, 433.996 229.496 C 431.661 227.010, 428 226.097, 428 228 M 477.245 229.250 C 472.594 235.063, 476.758 243, 484.458 243 C 487.189 243, 492 237.847, 492 234.923 C 492 232.008, 490.327 232.622, 489.162 235.965 C 487.837 239.765, 483.998 240.884, 480.392 238.521 C 477.770 236.803, 477.508 234.327, 479.466 229.750 C 480.328 227.732, 478.744 227.376, 477.245 229.250 M 211.250 233.170 C 207.813 234.824, 205 236.812, 205 237.589 C 205 239.300, 205.216 239.315, 208.480 237.827 C 212.505 235.993, 213.662 238.060, 210.629 241.665 C 209.120 243.458, 208.451 245.112, 208.925 245.878 C 209.492 246.796, 210.365 246.355, 212.125 244.263 C 213.787 242.288, 215.440 241.404, 217.396 241.443 C 221.700 241.529, 222.768 239.029, 220.539 234.086 C 219.525 231.839, 218.427 230.037, 218.098 230.082 C 217.769 230.126, 214.688 231.516, 211.250 233.170 M 215.216 234.845 C 213.474 235.951, 214.832 239.178, 216.876 238.789 C 218.854 238.412, 219.728 233.993, 217.820 234.015 C 217.094 234.024, 215.922 234.397, 215.216 234.845 M 219.750 250.811 C 216.588 252.837, 214 254.731, 214 255.020 C 214 255.308, 215.383 257.222, 217.073 259.272 C 219.466 262.176, 220.861 263, 223.384 263 C 226.841 263, 230.427 260.379, 231.471 257.091 C 232.215 254.748, 228.537 246.970, 226.730 247.064 C 226.053 247.099, 222.912 248.785, 219.750 250.811 M 469.374 247.995 C 467.225 248.853, 463 254.002, 463 255.762 C 463 256.654, 474.072 264, 475.415 264 C 476.668 264, 479.993 257.412, 479.996 254.924 C 480.003 250.360, 473.717 246.260, 469.374 247.995 M 223.500 252.151 C 221.850 253.212, 219.886 254.446, 219.136 254.893 C 216.812 256.280, 219.539 260, 222.880 260 C 227.685 260, 230.495 255.271, 227.750 251.802 C 226.619 250.373, 226.214 250.407, 223.500 252.151 M 469.389 251.037 C 465.594 252.468, 465.852 254.636, 470.154 257.484 C 474.908 260.629, 477 260.193, 477 256.057 C 477 252.459, 472.859 249.728, 469.389 251.037 M 458.250 260.963 C 457.012 262.533, 456 264.281, 456 264.850 C 456 265.418, 458.617 267.897, 461.816 270.359 L 467.632 274.834 470.316 271.470 C 471.792 269.620, 473 267.633, 473 267.053 C 473 265.231, 471.239 265.904, 469.333 268.453 C 467.683 270.662, 467.309 270.763, 465.581 269.469 C 463.782 268.122, 463.767 267.915, 465.331 266.187 C 466.965 264.381, 467.579 262, 466.410 262 C 466.086 262, 465.070 262.928, 464.152 264.061 C 463.062 265.406, 461.878 265.890, 460.741 265.454 C 458.605 264.634, 458.535 263.631, 460.500 262 C 462.050 260.713, 462.574 257.958, 461.250 258.055 C 460.837 258.086, 459.488 259.394, 458.250 260.963 M 228.773 263.680 L 223.047 268.271 226.111 272.140 C 229.561 276.496, 232.140 276.410, 229.030 272.042 C 227.253 269.547, 227.197 269.081, 228.541 267.966 C 229.791 266.928, 230.463 267.086, 232.354 268.862 C 235.178 271.516, 236.446 270.611, 234.362 267.429 C 231.617 263.240, 234.820 261.323, 238.004 265.250 C 240.975 268.915, 241.522 266.373, 238.589 262.527 C 237.109 260.587, 235.584 259.020, 235.199 259.045 C 234.815 259.069, 231.923 261.155, 228.773 263.680 M 237.479 274.041 C 232.462 284.005, 233.629 285.002, 244.522 280.063 C 248.085 278.447, 251 276.647, 251 276.063 C 251 274.430, 249.386 274.771, 243.867 277.567 C 241.081 278.979, 238.620 279.953, 238.398 279.731 C 238.176 279.510, 239.316 276.913, 240.931 273.960 C 243.731 268.840, 244.001 267, 241.954 267 C 241.443 267, 239.429 270.169, 237.479 274.041 M 451.174 269.314 C 446.476 274.316, 450.173 283, 457 283 C 460.337 283, 465 279.238, 465 276.545 C 465 274.349, 464.083 274.625, 461.821 277.500 C 460.740 278.875, 458.832 280, 457.582 280 C 452.615 280, 449.924 272.313, 454 269.768 C 455.100 269.081, 456 268.177, 456 267.759 C 456 266.200, 453.275 267.078, 451.174 269.314 M 443.591 276.852 C 443.186 277.508, 444.491 279.983, 446.598 282.554 L 450.321 287.097 444.910 284.943 C 441.935 283.758, 439.010 282.591, 438.410 282.349 C 437.811 282.107, 436.742 282.606, 436.035 283.457 C 434.947 284.768, 435.407 285.734, 439.030 289.753 C 441.383 292.364, 443.650 294.888, 444.067 295.363 C 444.484 295.837, 445.336 295.910, 445.961 295.524 C 446.711 295.061, 445.815 293.260, 443.322 290.218 C 440.609 286.907, 440.104 285.838, 441.524 286.412 C 449.771 289.749, 452.184 290.244, 453.515 288.875 C 454.637 287.721, 454.005 286.552, 449.579 281.597 C 446.200 277.813, 444.050 276.110, 443.591 276.852 M 247.181 282.791 L 242.077 288.682 245.452 291.954 C 247.563 294, 249.296 294.935, 250.080 294.451 C 250.981 293.894, 250.517 293.027, 248.429 291.361 C 245.692 289.179, 245.623 288.948, 247.231 287.340 C 248.831 285.740, 249.054 285.739, 250.798 287.317 C 252.727 289.063, 255 289.563, 255 288.241 C 255 287.823, 254.100 286.919, 253 286.232 C 250.770 284.840, 250.606 284.172, 251.963 282.026 C 252.751 280.780, 253.272 280.907, 255.342 282.851 C 257.013 284.421, 258.013 284.788, 258.495 284.009 C 258.883 283.381, 259.040 282.784, 258.845 282.683 C 258.650 282.583, 257.094 281.240, 255.388 279.700 L 252.285 276.899 247.181 282.791 M 256.197 290.951 C 253.889 294.224, 252 297.113, 252 297.370 C 252 297.627, 253.599 298.825, 255.553 300.033 C 259.668 302.576, 261.625 301.740, 258.150 298.923 L 255.800 297.017 259.431 291.963 C 262.683 287.436, 263.281 285, 261.138 285 C 260.729 285, 258.505 287.678, 256.197 290.951 M 428.112 289.365 C 427.185 290.483, 427.326 292.398, 428.757 298.080 C 430.651 305.606, 432.975 308.461, 433.031 303.333 C 433.075 299.418, 437.107 296.425, 439.947 298.199 C 441.396 299.104, 442.253 299.147, 443.043 298.357 C 443.833 297.567, 442.248 296.052, 437.318 292.882 C 428.790 287.401, 429.513 287.677, 428.112 289.365 M 266.143 294.668 C 261.517 298.933, 261.126 302.280, 264.821 305.975 C 268.619 309.772, 271.354 309.800, 275.077 306.077 C 280.211 300.943, 278.608 294.181, 271.857 292.496 C 269.794 291.982, 268.540 292.459, 266.143 294.668 M 430.334 293.427 C 430.700 294.382, 431 295.802, 431 296.582 C 431 298.336, 432.090 298.386, 434.345 296.737 C 435.919 295.586, 435.788 295.306, 432.870 293.582 C 429.936 291.849, 429.723 291.836, 430.334 293.427 M 421.426 294.332 C 421.145 295.065, 421.373 297.653, 421.933 300.082 C 423.600 307.314, 423.246 307.657, 418.712 303.208 C 414.863 299.430, 411 297.712, 411 299.778 C 411 300.205, 413.668 302.903, 416.929 305.774 C 420.767 309.152, 423.411 310.779, 424.429 310.389 C 426.316 309.665, 426.339 309.015, 424.796 300.019 C 423.647 293.315, 422.536 291.440, 421.426 294.332 M 269.229 295.669 C 268.530 295.951, 267.279 297.494, 266.449 299.099 C 263.519 304.764, 268.629 308.461, 272.961 303.811 C 277.100 299.369, 274.443 293.572, 269.229 295.669 M 278.760 305.010 C 276.171 309.776, 275.375 312.114, 276.172 312.606 C 276.813 313.002, 278.097 312.363, 279.067 311.165 C 280.435 309.476, 281.478 309.146, 283.903 309.631 C 285.776 310.005, 287.588 309.757, 288.498 309.002 C 290.366 307.452, 290.363 307.580, 288.388 313.376 C 287.501 315.979, 287.021 318.354, 287.321 318.654 C 288.373 319.707, 289.865 317.939, 291.048 314.236 C 293.041 307.999, 294 308.182, 294 314.800 C 294 322.448, 295.035 322.673, 300.708 316.258 L 304.915 311.500 302.938 316.813 C 301.060 321.857, 301.070 324, 302.969 324 C 303.436 324, 304.948 320.644, 306.327 316.541 L 308.835 309.082 306.710 308.408 C 305.011 307.869, 303.731 308.711, 300.313 312.617 L 296.041 317.500 296.021 311.285 C 296.003 306.091, 295.669 304.893, 293.985 303.992 C 292.388 303.137, 291.843 303.245, 291.356 304.514 C 290.845 305.847, 290.554 305.738, 289.619 303.862 C 289.001 302.623, 287.147 300.826, 285.498 299.867 L 282.500 298.125 278.760 305.010 M 283.068 303.873 C 281.538 306.731, 281.718 307.179, 284.250 306.820 C 285.690 306.615, 286.500 305.810, 286.500 304.583 C 286.500 301.914, 284.354 301.470, 283.068 303.873 M 402.250 303.491 C 400.462 304.268, 399 305.385, 399 305.974 C 399 306.562, 400.330 309.978, 401.957 313.564 L 404.913 320.085 408.997 318.002 C 415.566 314.650, 416.768 308.657, 411.799 304.028 C 409.265 301.667, 406.770 301.526, 402.250 303.491 M 403.356 305.627 C 402.097 306.143, 405.748 316, 407.198 316 C 407.639 316, 408.923 315.077, 410.051 313.949 C 412.121 311.879, 412.013 309.072, 409.755 306.250 C 408.770 305.019, 405.594 304.709, 403.356 305.627 M 390.402 307.765 C 389.798 308.169, 389.024 312.212, 388.683 316.750 C 388.166 323.620, 388.308 325, 389.531 325 C 390.345 325, 391 324.086, 391 322.952 C 391 320.007, 396.843 317.569, 399.079 319.580 C 400.690 321.030, 403 321.500, 403 320.378 C 403 319.502, 392.776 306.997, 392.075 307.015 C 391.759 307.024, 391.006 307.361, 390.402 307.765 M 309.080 315.998 C 308.409 319.410, 307.634 322.791, 307.357 323.511 C 306.846 324.842, 307.879 325.322, 313.868 326.531 C 316.436 327.049, 317.132 326.895, 316.794 325.883 C 316.551 325.153, 315.260 324.297, 313.926 323.982 C 312.381 323.618, 311.500 322.700, 311.500 321.455 C 311.500 319.852, 312.102 319.548, 314.839 319.766 C 318.617 320.067, 318.918 317.732, 315.172 317.180 C 313.756 316.972, 313 316.150, 313 314.819 C 313 313.027, 313.428 312.858, 316.500 313.434 C 318.578 313.824, 320 313.690, 320 313.104 C 320 311.698, 318.853 311.160, 314.305 310.433 L 310.301 309.793 309.080 315.998 M 373.199 311.992 C 371.384 312.419, 369.728 312.939, 369.520 313.147 C 369.191 313.476, 369.901 317.854, 371.564 325.750 C 371.825 326.988, 372.755 328, 373.630 328 C 374.901 328, 375.093 327.310, 374.582 324.586 C 373.984 321.399, 374.144 321.127, 376.980 320.504 C 380.626 319.703, 379.930 317.751, 376.154 318.191 C 374.071 318.434, 373.433 318.032, 373.190 316.322 C 372.943 314.586, 373.449 314.079, 375.690 313.822 C 377.235 313.645, 378.421 313.061, 378.325 312.525 C 378.086 311.191, 377.058 311.084, 373.199 311.992 M 392 313.889 C 392 315.931, 392.495 317, 393.441 317 C 395.780 317, 395.943 315.648, 393.908 313.134 L 392 310.778 392 313.889 M 321.705 313.326 C 321.425 314.055, 320.875 317.655, 320.482 321.326 C 319.863 327.100, 319.985 328, 321.384 328 C 322.418 328, 323 327.146, 323 325.625 C 323 324.319, 323.294 321.782, 323.652 319.988 L 324.305 316.726 326.496 322.613 C 330.025 332.094, 334 330.732, 334 320.042 C 334 316.699, 334.574 316.076, 337.058 316.725 C 338.725 317.161, 339 318.138, 339 323.617 C 339 328.624, 339.323 330, 340.500 330 C 341.630 330, 342 328.787, 342 325.082 C 342 318.877, 342.722 317, 345.107 317 C 346.148 317, 347 316.325, 347 315.500 C 347 314.301, 345.505 314, 339.545 314 L 332.091 314 331.479 317.750 C 331.142 319.813, 330.743 322.175, 330.591 323 C 330.412 323.970, 329.948 323.617, 329.276 322 C 328.705 320.625, 327.532 317.813, 326.670 315.750 C 325.105 312.007, 322.668 310.817, 321.705 313.326 M 359 313.709 C 355.530 314.985, 354 317.364, 354 321.481 C 354 329.145, 361.379 332.712, 366.545 327.545 C 370.471 323.620, 369.281 316.360, 364.343 314.110 C 361.705 312.909, 361.267 312.876, 359 313.709 M 358.200 317.200 C 356.614 318.786, 356.671 323.168, 358.306 325.404 C 359.109 326.502, 360.554 327.057, 362.056 326.845 C 364.092 326.558, 364.552 325.863, 364.815 322.680 C 365.281 317.019, 361.507 313.893, 358.200 317.200" stroke="none" fill="#e2c34b" fill-rule="evenodd"/></svg>